solid SBOX_XL_2_5
facet normal 0.8289264153684592 0.5593576654560091 0.0
  outer loop
    vertex 604.6212626929904 312.7489441563542 397.04163567462234
    vertex 604.6212626929904 312.7489441563542 396.5416356746223
    vertex 604.2923028602539 313.23643813702245 397.04163567462234
  endloop
endfacet
facet normal 0.8289264153684592 0.5593576654560091 0.0
  outer loop
    vertex 604.2923028602539 313.23643813702245 396.5416356746223
    vertex 604.2923028602539 313.23643813702245 397.04163567462234
    vertex 604.6212626929904 312.7489441563542 396.5416356746223
  endloop
endfacet
facet normal 0.7038735596548069 0.7103252860618655 0.0
  outer loop
    vertex 603.8745585407926 313.6503881778482 397.04163567462234
    vertex 604.2923028602539 313.23643813702245 397.04163567462234
    vertex 603.8745585407926 313.6503881778482 396.5416356746223
  endloop
endfacet
facet normal 0.7038735596548069 0.7103252860618655 0.0
  outer loop
    vertex 604.2923028602539 313.23643813702245 396.5416356746223
    vertex 603.8745585407926 313.6503881778482 396.5416356746223
    vertex 604.2923028602539 313.23643813702245 397.04163567462234
  endloop
endfacet
facet normal 0.5517712377804306 0.8339955042794005 0.0
  outer loop
    vertex 603.3840834145295 313.9748864109082 397.04163567462234
    vertex 603.8745585407926 313.6503881778482 397.04163567462234
    vertex 603.3840834145295 313.9748864109082 396.5416356746223
  endloop
endfacet
facet normal 0.5517712377804306 0.8339955042794005 0.0
  outer loop
    vertex 603.8745585407926 313.6503881778482 396.5416356746223
    vertex 603.3840834145295 313.9748864109082 396.5416356746223
    vertex 603.8745585407926 313.6503881778482 397.04163567462234
  endloop
endfacet
facet normal 0.3784646566751857 0.92561574297747 0.0
  outer loop
    vertex 602.8397261655055 314.1974625510869 397.04163567462234
    vertex 603.3840834145295 313.9748864109082 397.04163567462234
    vertex 602.8397261655055 314.1974625510869 396.5416356746223
  endloop
endfacet
facet normal 0.3784646566751857 0.92561574297747 0.0
  outer loop
    vertex 603.3840834145295 313.9748864109082 396.5416356746223
    vertex 602.8397261655055 314.1974625510869 396.5416356746223
    vertex 603.3840834145295 313.9748864109082 397.04163567462234
  endloop
endfacet
facet normal 0.1906138910590247 0.9816650877643242 0.0
  outer loop
    vertex 602.2624061375212 314.3095631221391 397.04163567462234
    vertex 602.8397261655055 314.1974625510869 397.04163567462234
    vertex 602.2624061375212 314.3095631221391 396.5416356746223
  endloop
endfacet
facet normal 0.1906138910590247 0.9816650877643242 0.0
  outer loop
    vertex 602.8397261655055 314.1974625510869 396.5416356746223
    vertex 602.2624061375212 314.3095631221391 396.5416356746223
    vertex 602.8397261655055 314.1974625510869 397.04163567462234
  endloop
endfacet
facet normal -0.004562059492766127 0.9999895937524472 0.0
  outer loop
    vertex 601.6743094154876 314.3068801619861 397.04163567462234
    vertex 602.2624061375212 314.3095631221391 397.04163567462234
    vertex 601.6743094154876 314.3068801619861 396.5416356746223
  endloop
endfacet
facet normal -0.004562059492766127 0.9999895937524472 0.0
  outer loop
    vertex 602.2624061375212 314.3095631221391 396.5416356746223
    vertex 601.6743094154876 314.3068801619861 396.5416356746223
    vertex 602.2624061375212 314.3095631221391 397.04163567462234
  endloop
endfacet
facet normal -0.1995626926567849 0.9798850604533034 0.0
  outer loop
    vertex 601.0980362266239 314.189516775282 397.04163567462234
    vertex 601.6743094154876 314.3068801619861 397.04163567462234
    vertex 601.0980362266239 314.189516775282 396.5416356746223
  endloop
endfacet
facet normal -0.1995626926567849 0.9798850604533034 0.0
  outer loop
    vertex 601.6743094154876 314.3068801619861 396.5416356746223
    vertex 601.0980362266239 314.189516775282 396.5416356746223
    vertex 601.6743094154876 314.3068801619861 397.04163567462234
  endloop
endfacet
facet normal -0.38689424345810286 0.9221240938067841 0.0
  outer loop
    vertex 600.5557324264004 313.9619831711596 397.04163567462234
    vertex 601.0980362266239 314.189516775282 397.04163567462234
    vertex 600.5557324264004 313.9619831711596 396.5416356746223
  endloop
endfacet
facet normal -0.38689424345810286 0.9221240938067841 0.0
  outer loop
    vertex 601.0980362266239 314.189516775282 396.5416356746223
    vertex 600.5557324264004 313.9619831711596 396.5416356746223
    vertex 601.0980362266239 314.189516775282 397.04163567462234
  endloop
endfacet
facet normal -0.5593576654559693 0.8289264153684863 0.0
  outer loop
    vertex 600.068238445732 313.63302333842313 397.04163567462234
    vertex 600.5557324264004 313.9619831711596 397.04163567462234
    vertex 600.068238445732 313.63302333842313 396.5416356746223
  endloop
endfacet
facet normal -0.5593576654559693 0.8289264153684863 0.0
  outer loop
    vertex 600.5557324264004 313.9619831711596 396.5416356746223
    vertex 600.068238445732 313.63302333842313 396.5416356746223
    vertex 600.5557324264004 313.9619831711596 397.04163567462234
  endloop
endfacet
facet normal -0.7103252860618656 0.7038735596548068 0.0
  outer loop
    vertex 599.6542884049063 313.2152790189618 396.5416356746223
    vertex 599.6542884049063 313.2152790189618 397.04163567462234
    vertex 600.068238445732 313.63302333842313 396.5416356746223
  endloop
endfacet
facet normal -0.7103252860618656 0.7038735596548068 0.0
  outer loop
    vertex 600.068238445732 313.63302333842313 397.04163567462234
    vertex 600.068238445732 313.63302333842313 396.5416356746223
    vertex 599.6542884049063 313.2152790189618 397.04163567462234
  endloop
endfacet
facet normal -0.8339955042793799 0.5517712377804618 0.0
  outer loop
    vertex 599.3297901718463 312.72480389269873 396.5416356746223
    vertex 599.3297901718463 312.72480389269873 397.04163567462234
    vertex 599.6542884049063 313.2152790189618 396.5416356746223
  endloop
endfacet
facet normal -0.8339955042793799 0.5517712377804618 0.0
  outer loop
    vertex 599.6542884049063 313.2152790189618 397.04163567462234
    vertex 599.6542884049063 313.2152790189618 396.5416356746223
    vertex 599.3297901718463 312.72480389269873 397.04163567462234
  endloop
endfacet
facet normal -0.9256157429775116 0.3784646566750842 0.0
  outer loop
    vertex 599.1072140316677 312.18044664367466 396.5416356746223
    vertex 599.1072140316677 312.18044664367466 397.04163567462234
    vertex 599.3297901718463 312.72480389269873 396.5416356746223
  endloop
endfacet
facet normal -0.9256157429775116 0.3784646566750842 0.0
  outer loop
    vertex 599.3297901718463 312.72480389269873 397.04163567462234
    vertex 599.3297901718463 312.72480389269873 396.5416356746223
    vertex 599.1072140316677 312.18044664367466 397.04163567462234
  endloop
endfacet
facet normal -0.9816650877643099 0.19061389105909868 0.0
  outer loop
    vertex 598.9951134606154 311.60312661569054 396.5416356746223
    vertex 598.9951134606154 311.60312661569054 397.04163567462234
    vertex 599.1072140316677 312.18044664367466 396.5416356746223
  endloop
endfacet
facet normal -0.9816650877643099 0.19061389105909868 0.0
  outer loop
    vertex 599.1072140316677 312.18044664367466 397.04163567462234
    vertex 599.1072140316677 312.18044664367466 396.5416356746223
    vertex 598.9951134606154 311.60312661569054 397.04163567462234
  endloop
endfacet
facet normal -0.9999895937524471 -0.004562059492785569 0.0
  outer loop
    vertex 598.9977964207685 311.01502989365696 396.5416356746223
    vertex 598.9977964207685 311.01502989365696 397.04163567462234
    vertex 598.9951134606154 311.60312661569054 396.5416356746223
  endloop
endfacet
facet normal -0.9999895937524471 -0.004562059492785569 0.0
  outer loop
    vertex 598.9951134606154 311.60312661569054 397.04163567462234
    vertex 598.9951134606154 311.60312661569054 396.5416356746223
    vertex 598.9977964207685 311.01502989365696 397.04163567462234
  endloop
endfacet
facet normal -0.979885060453301 -0.19956269265679577 0.0
  outer loop
    vertex 599.1151598074725 310.4387567047932 396.5416356746223
    vertex 599.1151598074725 310.4387567047932 397.04163567462234
    vertex 598.9977964207685 311.01502989365696 396.5416356746223
  endloop
endfacet
facet normal -0.979885060453301 -0.19956269265679577 0.0
  outer loop
    vertex 598.9977964207685 311.01502989365696 397.04163567462234
    vertex 598.9977964207685 311.01502989365696 396.5416356746223
    vertex 599.1151598074725 310.4387567047932 397.04163567462234
  endloop
endfacet
facet normal -0.922124093806817 -0.38689424345802387 0.0
  outer loop
    vertex 599.3426934115948 309.89645290456957 396.5416356746223
    vertex 599.3426934115948 309.89645290456957 397.04163567462234
    vertex 599.1151598074725 310.4387567047932 396.5416356746223
  endloop
endfacet
facet normal -0.922124093806817 -0.38689424345802387 0.0
  outer loop
    vertex 599.1151598074725 310.4387567047932 397.04163567462234
    vertex 599.1151598074725 310.4387567047932 396.5416356746223
    vertex 599.3426934115948 309.89645290456957 397.04163567462234
  endloop
endfacet
facet normal -0.8289264153684505 -0.5593576654560223 0.0
  outer loop
    vertex 599.6716532443313 309.4089589239013 396.5416356746223
    vertex 599.6716532443313 309.4089589239013 397.04163567462234
    vertex 599.3426934115948 309.89645290456957 396.5416356746223
  endloop
endfacet
facet normal -0.8289264153684505 -0.5593576654560223 0.0
  outer loop
    vertex 599.3426934115948 309.89645290456957 397.04163567462234
    vertex 599.3426934115948 309.89645290456957 396.5416356746223
    vertex 599.6716532443313 309.4089589239013 397.04163567462234
  endloop
endfacet
facet normal -0.7038735596548261 -0.7103252860618465 0.0
  outer loop
    vertex 600.0893975637928 308.99500888307557 397.04163567462234
    vertex 599.6716532443313 309.4089589239013 397.04163567462234
    vertex 600.0893975637928 308.99500888307557 396.5416356746223
  endloop
endfacet
facet normal -0.7038735596548261 -0.7103252860618465 0.0
  outer loop
    vertex 599.6716532443313 309.4089589239013 396.5416356746223
    vertex 600.0893975637928 308.99500888307557 396.5416356746223
    vertex 599.6716532443313 309.4089589239013 397.04163567462234
  endloop
endfacet
facet normal -0.5517712377804217 -0.8339955042794064 0.0
  outer loop
    vertex 600.5798726900558 308.67051065001556 397.04163567462234
    vertex 600.0893975637928 308.99500888307557 397.04163567462234
    vertex 600.5798726900558 308.67051065001556 396.5416356746223
  endloop
endfacet
facet normal -0.5517712377804217 -0.8339955042794064 0.0
  outer loop
    vertex 600.0893975637928 308.99500888307557 396.5416356746223
    vertex 600.5798726900558 308.67051065001556 396.5416356746223
    vertex 600.0893975637928 308.99500888307557 397.04163567462234
  endloop
endfacet
facet normal -0.3784646566751857 -0.92561574297747 0.0
  outer loop
    vertex 601.1242299390799 308.4479345098369 397.04163567462234
    vertex 600.5798726900558 308.67051065001556 397.04163567462234
    vertex 601.1242299390799 308.4479345098369 396.5416356746223
  endloop
endfacet
facet normal -0.3784646566751857 -0.92561574297747 0.0
  outer loop
    vertex 600.5798726900558 308.67051065001556 396.5416356746223
    vertex 601.1242299390799 308.4479345098369 396.5416356746223
    vertex 600.5798726900558 308.67051065001556 397.04163567462234
  endloop
endfacet
facet normal -0.1906138910590247 -0.9816650877643242 0.0
  outer loop
    vertex 601.701549967064 308.33583393878473 397.04163567462234
    vertex 601.1242299390799 308.4479345098369 397.04163567462234
    vertex 601.701549967064 308.33583393878473 396.5416356746223
  endloop
endfacet
facet normal -0.1906138910590247 -0.9816650877643242 0.0
  outer loop
    vertex 601.1242299390799 308.4479345098369 396.5416356746223
    vertex 601.701549967064 308.33583393878473 396.5416356746223
    vertex 601.1242299390799 308.4479345098369 397.04163567462234
  endloop
endfacet
facet normal 0.004562059492766127 -0.9999895937524472 0.0
  outer loop
    vertex 602.2896466890976 308.33851689893766 397.04163567462234
    vertex 601.701549967064 308.33583393878473 397.04163567462234
    vertex 602.2896466890976 308.33851689893766 396.5416356746223
  endloop
endfacet
facet normal 0.004562059492766127 -0.9999895937524472 0.0
  outer loop
    vertex 601.701549967064 308.33583393878473 396.5416356746223
    vertex 602.2896466890976 308.33851689893766 396.5416356746223
    vertex 601.701549967064 308.33583393878473 397.04163567462234
  endloop
endfacet
facet normal 0.1995626926567849 -0.9798850604533034 0.0
  outer loop
    vertex 602.8659198779613 308.4558802856418 397.04163567462234
    vertex 602.2896466890976 308.33851689893766 397.04163567462234
    vertex 602.8659198779613 308.4558802856418 396.5416356746223
  endloop
endfacet
facet normal 0.1995626926567849 -0.9798850604533034 0.0
  outer loop
    vertex 602.2896466890976 308.33851689893766 396.5416356746223
    vertex 602.8659198779613 308.4558802856418 396.5416356746223
    vertex 602.2896466890976 308.33851689893766 397.04163567462234
  endloop
endfacet
facet normal 0.38689424345810286 -0.9221240938067841 0.0
  outer loop
    vertex 603.4082236781849 308.6834138897642 397.04163567462234
    vertex 602.8659198779613 308.4558802856418 397.04163567462234
    vertex 603.4082236781849 308.6834138897642 396.5416356746223
  endloop
endfacet
facet normal 0.38689424345810286 -0.9221240938067841 0.0
  outer loop
    vertex 602.8659198779613 308.4558802856418 396.5416356746223
    vertex 603.4082236781849 308.6834138897642 396.5416356746223
    vertex 602.8659198779613 308.4558802856418 397.04163567462234
  endloop
endfacet
facet normal 0.5593576654559693 -0.8289264153684863 0.0
  outer loop
    vertex 603.8957176588533 309.0123737225007 397.04163567462234
    vertex 603.4082236781849 308.6834138897642 397.04163567462234
    vertex 603.8957176588533 309.0123737225007 396.5416356746223
  endloop
endfacet
facet normal 0.5593576654559693 -0.8289264153684863 0.0
  outer loop
    vertex 603.4082236781849 308.6834138897642 396.5416356746223
    vertex 603.8957176588533 309.0123737225007 396.5416356746223
    vertex 603.4082236781849 308.6834138897642 397.04163567462234
  endloop
endfacet
facet normal 0.7103252860618656 -0.7038735596548068 0.0
  outer loop
    vertex 603.8957176588533 309.0123737225007 397.04163567462234
    vertex 603.8957176588533 309.0123737225007 396.5416356746223
    vertex 604.309667699679 309.43011804196203 397.04163567462234
  endloop
endfacet
facet normal 0.7103252860618656 -0.7038735596548068 0.0
  outer loop
    vertex 604.309667699679 309.43011804196203 396.5416356746223
    vertex 604.309667699679 309.43011804196203 397.04163567462234
    vertex 603.8957176588533 309.0123737225007 396.5416356746223
  endloop
endfacet
facet normal 0.8339955042793799 -0.5517712377804618 0.0
  outer loop
    vertex 604.309667699679 309.43011804196203 397.04163567462234
    vertex 604.309667699679 309.43011804196203 396.5416356746223
    vertex 604.634165932739 309.9205931682251 397.04163567462234
  endloop
endfacet
facet normal 0.8339955042793799 -0.5517712377804618 0.0
  outer loop
    vertex 604.634165932739 309.9205931682251 396.5416356746223
    vertex 604.634165932739 309.9205931682251 397.04163567462234
    vertex 604.309667699679 309.43011804196203 396.5416356746223
  endloop
endfacet
facet normal 0.9256157429775116 -0.3784646566750842 0.0
  outer loop
    vertex 604.634165932739 309.9205931682251 397.04163567462234
    vertex 604.634165932739 309.9205931682251 396.5416356746223
    vertex 604.8567420729175 310.4649504172491 397.04163567462234
  endloop
endfacet
facet normal 0.9256157429775116 -0.3784646566750842 0.0
  outer loop
    vertex 604.8567420729175 310.4649504172491 396.5416356746223
    vertex 604.8567420729175 310.4649504172491 397.04163567462234
    vertex 604.634165932739 309.9205931682251 396.5416356746223
  endloop
endfacet
facet normal 0.9816650877643099 -0.19061389105909868 0.0
  outer loop
    vertex 604.8567420729175 310.4649504172491 397.04163567462234
    vertex 604.8567420729175 310.4649504172491 396.5416356746223
    vertex 604.9688426439699 311.04227044523327 397.04163567462234
  endloop
endfacet
facet normal 0.9816650877643099 -0.19061389105909868 0.0
  outer loop
    vertex 604.9688426439699 311.04227044523327 396.5416356746223
    vertex 604.9688426439699 311.04227044523327 397.04163567462234
    vertex 604.8567420729175 310.4649504172491 396.5416356746223
  endloop
endfacet
facet normal 0.9999895937524471 0.004562059492785569 0.0
  outer loop
    vertex 604.9688426439699 311.04227044523327 397.04163567462234
    vertex 604.9688426439699 311.04227044523327 396.5416356746223
    vertex 604.9661596838168 311.63036716726685 397.04163567462234
  endloop
endfacet
facet normal 0.9999895937524471 0.004562059492785569 0.0
  outer loop
    vertex 604.9661596838168 311.63036716726685 396.5416356746223
    vertex 604.9661596838168 311.63036716726685 397.04163567462234
    vertex 604.9688426439699 311.04227044523327 396.5416356746223
  endloop
endfacet
facet normal 0.979885060453301 0.19956269265679577 0.0
  outer loop
    vertex 604.9661596838168 311.63036716726685 397.04163567462234
    vertex 604.9661596838168 311.63036716726685 396.5416356746223
    vertex 604.8487962971127 312.2066403561306 397.04163567462234
  endloop
endfacet
facet normal 0.979885060453301 0.19956269265679577 0.0
  outer loop
    vertex 604.8487962971127 312.2066403561306 396.5416356746223
    vertex 604.8487962971127 312.2066403561306 397.04163567462234
    vertex 604.9661596838168 311.63036716726685 396.5416356746223
  endloop
endfacet
facet normal 0.922124093806817 0.38689424345802387 0.0
  outer loop
    vertex 604.8487962971127 312.2066403561306 397.04163567462234
    vertex 604.8487962971127 312.2066403561306 396.5416356746223
    vertex 604.6212626929904 312.7489441563542 397.04163567462234
  endloop
endfacet
facet normal 0.922124093806817 0.38689424345802387 0.0
  outer loop
    vertex 604.6212626929904 312.7489441563542 396.5416356746223
    vertex 604.6212626929904 312.7489441563542 397.04163567462234
    vertex 604.8487962971127 312.2066403561306 396.5416356746223
  endloop
endfacet
facet normal 0.0 0.0 1.0
  outer loop
    vertex 598.9951134606154 311.60312661569054 397.04163567462234
    vertex 598.9977964207685 311.01502989365696 397.04163567462234
    vertex 599.1072140316677 312.18044664367466 397.04163567462234
  endloop
endfacet
facet normal 0.0 0.0 1.0
  outer loop
    vertex 599.1151598074725 310.4387567047932 397.04163567462234
    vertex 599.1072140316677 312.18044664367466 397.04163567462234
    vertex 598.9977964207685 311.01502989365696 397.04163567462234
  endloop
endfacet
facet normal 0.0 0.0 1.0
  outer loop
    vertex 599.3297901718463 312.72480389269873 397.04163567462234
    vertex 599.1072140316677 312.18044664367466 397.04163567462234
    vertex 599.1151598074725 310.4387567047932 397.04163567462234
  endloop
endfacet
facet normal 0.0 0.0 1.0
  outer loop
    vertex 599.3426934115948 309.89645290456957 397.04163567462234
    vertex 599.3297901718463 312.72480389269873 397.04163567462234
    vertex 599.1151598074725 310.4387567047932 397.04163567462234
  endloop
endfacet
facet normal 0.0 0.0 1.0
  outer loop
    vertex 599.6542884049063 313.2152790189618 397.04163567462234
    vertex 599.3297901718463 312.72480389269873 397.04163567462234
    vertex 599.3426934115948 309.89645290456957 397.04163567462234
  endloop
endfacet
facet normal 0.0 0.0 1.0
  outer loop
    vertex 599.6716532443313 309.4089589239013 397.04163567462234
    vertex 599.6542884049063 313.2152790189618 397.04163567462234
    vertex 599.3426934115948 309.89645290456957 397.04163567462234
  endloop
endfacet
facet normal 0.0 0.0 1.0
  outer loop
    vertex 599.8167777665006 311.71245194277077 397.04163567462234
    vertex 599.6542884049063 313.2152790189618 397.04163567462234
    vertex 599.6716532443313 309.4089589239013 397.04163567462234
  endloop
endfacet
facet normal 0.0 0.0 1.0
  outer loop
    vertex 600.068238445732 313.63302333842313 397.04163567462234
    vertex 599.6542884049063 313.2152790189618 397.04163567462234
    vertex 599.8167777665006 311.71245194277077 397.04163567462234
  endloop
endfacet
facet normal 0.0 0.0 1.0
  outer loop
    vertex 599.7896795711584 311.138776346871 397.04163567462234
    vertex 599.8167777665006 311.71245194277077 397.04163567462234
    vertex 599.6716532443313 309.4089589239013 397.04163567462234
  endloop
endfacet
facet normal 0.0 0.0 1.0
  outer loop
    vertex 599.9914307831569 312.2595664877197 397.04163567462234
    vertex 600.068238445732 313.63302333842313 397.04163567462234
    vertex 599.8167777665006 311.71245194277077 397.04163567462234
  endloop
endfacet
facet normal 0.0 0.0 1.0
  outer loop
    vertex 600.3017363066699 312.742835029629 397.04163567462234
    vertex 600.068238445732 313.63302333842313 397.04163567462234
    vertex 599.9914307831569 312.2595664877197 397.04163567462234
  endloop
endfacet
facet normal 0.0 0.0 1.0
  outer loop
    vertex 600.5557324264004 313.9619831711596 397.04163567462234
    vertex 600.068238445732 313.63302333842313 397.04163567462234
    vertex 600.3017363066699 312.742835029629 397.04163567462234
  endloop
endfacet
facet normal 0.0 0.0 1.0
  outer loop
    vertex 600.7265475284163 313.1293236160067 397.04163567462234
    vertex 600.5557324264004 313.9619831711596 397.04163567462234
    vertex 600.3017363066699 312.742835029629 397.04163567462234
  endloop
endfacet
facet normal 0.0 0.0 1.0
  outer loop
    vertex 601.0980362266239 314.189516775282 397.04163567462234
    vertex 600.5557324264004 313.9619831711596 397.04163567462234
    vertex 600.7265475284163 313.1293236160067 397.04163567462234
  endloop
endfacet
facet normal 0.0 0.0 1.0
  outer loop
    vertex 601.2369142656678 313.3926936883935 397.04163567462234
    vertex 601.0980362266239 314.189516775282 397.04163567462234
    vertex 600.7265475284163 313.1293236160067 397.04163567462234
  endloop
endfacet
facet normal 0.0 0.0 1.0
  outer loop
    vertex 601.6743094154876 314.3068801619861 397.04163567462234
    vertex 601.0980362266239 314.189516775282 397.04163567462234
    vertex 601.2369142656678 313.3926936883935 397.04163567462234
  endloop
endfacet
facet normal 0.0 0.0 1.0
  outer loop
    vertex 601.7980558687017 313.51499701159605 397.04163567462234
    vertex 601.6743094154876 314.3068801619861 397.04163567462234
    vertex 601.2369142656678 313.3926936883935 397.04163567462234
  endloop
endfacet
facet normal 0.0 0.0 1.0
  outer loop
    vertex 602.2624061375212 314.3095631221391 397.04163567462234
    vertex 601.6743094154876 314.3068801619861 397.04163567462234
    vertex 601.7980558687017 313.51499701159605 397.04163567462234
  endloop
endfacet
facet normal 0.0 0.0 1.0
  outer loop
    vertex 602.0292800148462 313.50407488570323 397.04163567462234
    vertex 602.2624061375212 314.3095631221391 397.04163567462234
    vertex 601.7980558687017 313.51499701159605 397.04163567462234
  endloop
endfacet
facet normal 0.0 0.0 1.0
  outer loop
    vertex 602.3717314646015 313.4878988162539 397.04163567462234
    vertex 602.2624061375212 314.3095631221391 397.04163567462234
    vertex 602.0292800148462 313.50407488570323 397.04163567462234
  endloop
endfacet
facet normal 0.0 0.0 1.0
  outer loop
    vertex 602.8397261655055 314.1974625510869 397.04163567462234
    vertex 602.2624061375212 314.3095631221391 397.04163567462234
    vertex 602.3717314646015 313.4878988162539 397.04163567462234
  endloop
endfacet
facet normal 0.0 0.0 1.0
  outer loop
    vertex 602.9188460095504 313.31324579959755 397.04163567462234
    vertex 602.8397261655055 314.1974625510869 397.04163567462234
    vertex 602.3717314646015 313.4878988162539 397.04163567462234
  endloop
endfacet
facet normal 0.0 0.0 1.0
  outer loop
    vertex 603.3840834145295 313.9748864109082 397.04163567462234
    vertex 602.8397261655055 314.1974625510869 397.04163567462234
    vertex 602.9188460095504 313.31324579959755 397.04163567462234
  endloop
endfacet
facet normal 0.0 0.0 1.0
  outer loop
    vertex 603.4021145514598 313.0029402760846 397.04163567462234
    vertex 603.3840834145295 313.9748864109082 397.04163567462234
    vertex 602.9188460095504 313.31324579959755 397.04163567462234
  endloop
endfacet
facet normal 0.0 0.0 1.0
  outer loop
    vertex 603.8745585407926 313.6503881778482 397.04163567462234
    vertex 603.3840834145295 313.9748864109082 397.04163567462234
    vertex 603.4021145514598 313.0029402760846 397.04163567462234
  endloop
endfacet
facet normal 0.0 0.0 1.0
  outer loop
    vertex 603.7886031378374 312.5781290543382 397.04163567462234
    vertex 603.8745585407926 313.6503881778482 397.04163567462234
    vertex 603.4021145514598 313.0029402760846 397.04163567462234
  endloop
endfacet
facet normal 0.0 0.0 1.0
  outer loop
    vertex 604.0519732102242 312.0677623170867 397.04163567462234
    vertex 603.8745585407926 313.6503881778482 397.04163567462234
    vertex 603.7886031378374 312.5781290543382 397.04163567462234
  endloop
endfacet
facet normal 0.0 0.0 1.0
  outer loop
    vertex 604.2923028602539 313.23643813702245 397.04163567462234
    vertex 603.8745585407926 313.6503881778482 397.04163567462234
    vertex 604.0519732102242 312.0677623170867 397.04163567462234
  endloop
endfacet
facet normal 0.0 0.0 1.0
  outer loop
    vertex 604.1742765334268 311.5066207140528 397.04163567462234
    vertex 604.2923028602539 313.23643813702245 397.04163567462234
    vertex 604.0519732102242 312.0677623170867 397.04163567462234
  endloop
endfacet
facet normal 0.0 0.0 1.0
  outer loop
    vertex 599.6716532443313 309.4089589239013 397.04163567462234
    vertex 600.0893975637928 308.99500888307557 397.04163567462234
    vertex 599.7896795711584 311.138776346871 397.04163567462234
  endloop
endfacet
facet normal 0.0 0.0 1.0
  outer loop
    vertex 599.911982894361 310.5776347438371 397.04163567462234
    vertex 599.7896795711584 311.138776346871 397.04163567462234
    vertex 600.0893975637928 308.99500888307557 397.04163567462234
  endloop
endfacet
facet normal 0.0 0.0 1.0
  outer loop
    vertex 600.1753529667479 310.06726800658555 397.04163567462234
    vertex 599.911982894361 310.5776347438371 397.04163567462234
    vertex 600.0893975637928 308.99500888307557 397.04163567462234
  endloop
endfacet
facet normal 0.0 0.0 1.0
  outer loop
    vertex 600.5798726900558 308.67051065001556 397.04163567462234
    vertex 600.1753529667479 310.06726800658555 397.04163567462234
    vertex 600.0893975637928 308.99500888307557 397.04163567462234
  endloop
endfacet
facet normal 0.0 0.0 1.0
  outer loop
    vertex 600.5618415531254 309.64245678483917 397.04163567462234
    vertex 600.1753529667479 310.06726800658555 397.04163567462234
    vertex 600.5798726900558 308.67051065001556 397.04163567462234
  endloop
endfacet
facet normal 0.0 0.0 1.0
  outer loop
    vertex 601.0451100950347 309.3321512613262 397.04163567462234
    vertex 600.5618415531254 309.64245678483917 397.04163567462234
    vertex 600.5798726900558 308.67051065001556 397.04163567462234
  endloop
endfacet
facet normal 0.0 0.0 1.0
  outer loop
    vertex 601.1242299390799 308.4479345098369 397.04163567462234
    vertex 601.0451100950347 309.3321512613262 397.04163567462234
    vertex 600.5798726900558 308.67051065001556 397.04163567462234
  endloop
endfacet
facet normal 0.0 0.0 1.0
  outer loop
    vertex 601.5922246399837 309.15749824466985 397.04163567462234
    vertex 601.0451100950347 309.3321512613262 397.04163567462234
    vertex 601.1242299390799 308.4479345098369 397.04163567462234
  endloop
endfacet
facet normal 0.0 0.0 1.0
  outer loop
    vertex 601.701549967064 308.33583393878473 397.04163567462234
    vertex 601.5922246399837 309.15749824466985 397.04163567462234
    vertex 601.1242299390799 308.4479345098369 397.04163567462234
  endloop
endfacet
facet normal 0.0 0.0 1.0
  outer loop
    vertex 602.1659002358836 309.13040004932776 397.04163567462234
    vertex 601.5922246399837 309.15749824466985 397.04163567462234
    vertex 601.701549967064 308.33583393878473 397.04163567462234
  endloop
endfacet
facet normal 0.0 0.0 1.0
  outer loop
    vertex 602.2896466890976 308.33851689893766 397.04163567462234
    vertex 602.1659002358836 309.13040004932776 397.04163567462234
    vertex 601.701549967064 308.33583393878473 397.04163567462234
  endloop
endfacet
facet normal 0.0 0.0 1.0
  outer loop
    vertex 602.6625144766651 309.2386393452005 397.04163567462234
    vertex 602.1659002358836 309.13040004932776 397.04163567462234
    vertex 602.2896466890976 308.33851689893766 397.04163567462234
  endloop
endfacet
facet normal 0.0 0.0 1.0
  outer loop
    vertex 602.8659198779613 308.4558802856418 397.04163567462234
    vertex 602.6625144766651 309.2386393452005 397.04163567462234
    vertex 602.2896466890976 308.33851689893766 397.04163567462234
  endloop
endfacet
facet normal 0.0 0.0 1.0
  outer loop
    vertex 602.7270418389174 309.2527033725303 397.04163567462234
    vertex 602.6625144766651 309.2386393452005 397.04163567462234
    vertex 602.8659198779613 308.4558802856418 397.04163567462234
  endloop
endfacet
facet normal 0.0 0.0 1.0
  outer loop
    vertex 603.237408576169 309.51607344491714 397.04163567462234
    vertex 602.7270418389174 309.2527033725303 397.04163567462234
    vertex 602.8659198779613 308.4558802856418 397.04163567462234
  endloop
endfacet
facet normal 0.0 0.0 1.0
  outer loop
    vertex 603.4082236781849 308.6834138897642 397.04163567462234
    vertex 603.237408576169 309.51607344491714 397.04163567462234
    vertex 602.8659198779613 308.4558802856418 397.04163567462234
  endloop
endfacet
facet normal 0.0 0.0 1.0
  outer loop
    vertex 603.6622197979154 309.9025620312948 397.04163567462234
    vertex 603.237408576169 309.51607344491714 397.04163567462234
    vertex 603.4082236781849 308.6834138897642 397.04163567462234
  endloop
endfacet
facet normal 0.0 0.0 1.0
  outer loop
    vertex 603.8957176588533 309.0123737225007 397.04163567462234
    vertex 603.6622197979154 309.9025620312948 397.04163567462234
    vertex 603.4082236781849 308.6834138897642 397.04163567462234
  endloop
endfacet
facet normal 0.0 0.0 1.0
  outer loop
    vertex 603.9725253214284 310.3858305732041 397.04163567462234
    vertex 603.6622197979154 309.9025620312948 397.04163567462234
    vertex 603.8957176588533 309.0123737225007 397.04163567462234
  endloop
endfacet
facet normal 0.0 0.0 1.0
  outer loop
    vertex 604.309667699679 309.43011804196203 397.04163567462234
    vertex 603.9725253214284 310.3858305732041 397.04163567462234
    vertex 603.8957176588533 309.0123737225007 397.04163567462234
  endloop
endfacet
facet normal 0.0 0.0 1.0
  outer loop
    vertex 604.1471783380846 310.93294511815304 397.04163567462234
    vertex 603.9725253214284 310.3858305732041 397.04163567462234
    vertex 604.309667699679 309.43011804196203 397.04163567462234
  endloop
endfacet
facet normal 0.0 0.0 1.0
  outer loop
    vertex 604.1742765334268 311.5066207140528 397.04163567462234
    vertex 604.1471783380846 310.93294511815304 397.04163567462234
    vertex 604.309667699679 309.43011804196203 397.04163567462234
  endloop
endfacet
facet normal 0.0 0.0 1.0
  outer loop
    vertex 604.2923028602539 313.23643813702245 397.04163567462234
    vertex 604.1742765334268 311.5066207140528 397.04163567462234
    vertex 604.309667699679 309.43011804196203 397.04163567462234
  endloop
endfacet
facet normal 0.0 0.0 1.0
  outer loop
    vertex 604.6212626929904 312.7489441563542 397.04163567462234
    vertex 604.2923028602539 313.23643813702245 397.04163567462234
    vertex 604.309667699679 309.43011804196203 397.04163567462234
  endloop
endfacet
facet normal 0.0 0.0 1.0
  outer loop
    vertex 604.634165932739 309.9205931682251 397.04163567462234
    vertex 604.6212626929904 312.7489441563542 397.04163567462234
    vertex 604.309667699679 309.43011804196203 397.04163567462234
  endloop
endfacet
facet normal 0.0 0.0 1.0
  outer loop
    vertex 604.8487962971127 312.2066403561306 397.04163567462234
    vertex 604.6212626929904 312.7489441563542 397.04163567462234
    vertex 604.634165932739 309.9205931682251 397.04163567462234
  endloop
endfacet
facet normal 0.0 0.0 1.0
  outer loop
    vertex 604.8567420729175 310.4649504172491 397.04163567462234
    vertex 604.8487962971127 312.2066403561306 397.04163567462234
    vertex 604.634165932739 309.9205931682251 397.04163567462234
  endloop
endfacet
facet normal 0.0 0.0 1.0
  outer loop
    vertex 604.9661596838168 311.63036716726685 397.04163567462234
    vertex 604.8487962971127 312.2066403561306 397.04163567462234
    vertex 604.8567420729175 310.4649504172491 397.04163567462234
  endloop
endfacet
facet normal 0.0 0.0 1.0
  outer loop
    vertex 604.9688426439699 311.04227044523327 397.04163567462234
    vertex 604.9661596838168 311.63036716726685 397.04163567462234
    vertex 604.8567420729175 310.4649504172491 397.04163567462234
  endloop
endfacet
facet normal -0.9526380310818653 0.30410653024305 0.0
  outer loop
    vertex 603.9725253214284 310.3858305732041 395.5416356746223
    vertex 603.9725253214284 310.3858305732041 397.04163567462234
    vertex 604.1471783380846 310.93294511815304 395.5416356746223
  endloop
endfacet
facet normal -0.9526380310818653 0.30410653024305 0.0
  outer loop
    vertex 604.1471783380846 310.93294511815304 397.04163567462234
    vertex 604.1471783380846 310.93294511815304 395.5416356746223
    vertex 603.9725253214284 310.3858305732041 397.04163567462234
  endloop
endfacet
facet normal -0.9988862390940884 0.047183485971979626 0.0
  outer loop
    vertex 604.1471783380846 310.93294511815304 395.5416356746223
    vertex 604.1471783380846 310.93294511815304 397.04163567462234
    vertex 604.1742765334268 311.5066207140528 395.5416356746223
  endloop
endfacet
facet normal -0.9988862390940884 0.047183485971979626 0.0
  outer loop
    vertex 604.1742765334268 311.5066207140528 397.04163567462234
    vertex 604.1742765334268 311.5066207140528 395.5416356746223
    vertex 604.1471783380846 310.93294511815304 397.04163567462234
  endloop
endfacet
facet normal -0.9770620006496128 -0.2129550348936985 0.0
  outer loop
    vertex 604.1742765334268 311.5066207140528 395.5416356746223
    vertex 604.1742765334268 311.5066207140528 397.04163567462234
    vertex 604.0519732102242 312.0677623170867 395.5416356746223
  endloop
endfacet
facet normal -0.9770620006496128 -0.2129550348936985 0.0
  outer loop
    vertex 604.0519732102242 312.0677623170867 397.04163567462234
    vertex 604.0519732102242 312.0677623170867 395.5416356746223
    vertex 604.1742765334268 311.5066207140528 397.04163567462234
  endloop
endfacet
facet normal -0.8886526015321587 -0.4585810220562189 0.0
  outer loop
    vertex 604.0519732102242 312.0677623170867 395.5416356746223
    vertex 604.0519732102242 312.0677623170867 397.04163567462234
    vertex 603.7886031378374 312.5781290543382 395.5416356746223
  endloop
endfacet
facet normal -0.8886526015321587 -0.4585810220562189 0.0
  outer loop
    vertex 603.7886031378374 312.5781290543382 397.04163567462234
    vertex 603.7886031378374 312.5781290543382 395.5416356746223
    vertex 604.0519732102242 312.0677623170867 397.04163567462234
  endloop
endfacet
facet normal -0.7396829961881626 -0.6729554704065512 0.0
  outer loop
    vertex 603.7886031378374 312.5781290543382 395.5416356746223
    vertex 603.7886031378374 312.5781290543382 397.04163567462234
    vertex 603.4021145514598 313.0029402760846 395.5416356746223
  endloop
endfacet
facet normal -0.7396829961881626 -0.6729554704065512 0.0
  outer loop
    vertex 603.4021145514598 313.0029402760846 397.04163567462234
    vertex 603.4021145514598 313.0029402760846 395.5416356746223
    vertex 603.7886031378374 312.5781290543382 397.04163567462234
  endloop
endfacet
facet normal -0.5403052170378916 -0.8414691155601832 0.0
  outer loop
    vertex 603.4021145514598 313.0029402760846 397.04163567462234
    vertex 602.9188460095504 313.31324579959755 397.04163567462234
    vertex 603.4021145514598 313.0029402760846 395.5416356746223
  endloop
endfacet
facet normal -0.5403052170378916 -0.8414691155601832 0.0
  outer loop
    vertex 602.9188460095504 313.31324579959755 395.5416356746223
    vertex 603.4021145514598 313.0029402760846 395.5416356746223
    vertex 602.9188460095504 313.31324579959755 397.04163567462234
  endloop
endfacet
facet normal -0.304106530243157 -0.9526380310818311 0.0
  outer loop
    vertex 602.9188460095504 313.31324579959755 397.04163567462234
    vertex 602.3717314646015 313.4878988162539 397.04163567462234
    vertex 602.9188460095504 313.31324579959755 395.5416356746223
  endloop
endfacet
facet normal -0.304106530243157 -0.9526380310818311 0.0
  outer loop
    vertex 602.3717314646015 313.4878988162539 395.5416356746223
    vertex 602.9188460095504 313.31324579959755 395.5416356746223
    vertex 602.3717314646015 313.4878988162539 397.04163567462234
  endloop
endfacet
facet normal -0.8414691155601718 0.5403052170379095 0.0
  outer loop
    vertex 603.6622197979154 309.9025620312948 395.5416356746223
    vertex 603.6622197979154 309.9025620312948 397.04163567462234
    vertex 603.9725253214284 310.3858305732041 395.5416356746223
  endloop
endfacet
facet normal -0.8414691155601718 0.5403052170379095 0.0
  outer loop
    vertex 603.9725253214284 310.3858305732041 397.04163567462234
    vertex 603.9725253214284 310.3858305732041 395.5416356746223
    vertex 603.6622197979154 309.9025620312948 397.04163567462234
  endloop
endfacet
facet normal 0.6729554704065728 -0.7396829961881431 0.0
  outer loop
    vertex 600.7265475284163 313.1293236160067 397.04163567462234
    vertex 600.3017363066699 312.742835029629 397.04163567462234
    vertex 600.7265475284163 313.1293236160067 395.5416356746223
  endloop
endfacet
facet normal 0.6729554704065728 -0.7396829961881431 0.0
  outer loop
    vertex 600.3017363066699 312.742835029629 395.5416356746223
    vertex 600.7265475284163 313.1293236160067 395.5416356746223
    vertex 600.3017363066699 312.742835029629 397.04163567462234
  endloop
endfacet
facet normal 0.8414691155601718 -0.5403052170379095 0.0
  outer loop
    vertex 599.9914307831569 312.2595664877197 397.04163567462234
    vertex 599.9914307831569 312.2595664877197 395.5416356746223
    vertex 600.3017363066699 312.742835029629 397.04163567462234
  endloop
endfacet
facet normal 0.8414691155601718 -0.5403052170379095 0.0
  outer loop
    vertex 600.3017363066699 312.742835029629 395.5416356746223
    vertex 600.3017363066699 312.742835029629 397.04163567462234
    vertex 599.9914307831569 312.2595664877197 395.5416356746223
  endloop
endfacet
facet normal 0.9526380310818653 -0.30410653024305 0.0
  outer loop
    vertex 599.8167777665006 311.71245194277077 397.04163567462234
    vertex 599.8167777665006 311.71245194277077 395.5416356746223
    vertex 599.9914307831569 312.2595664877197 397.04163567462234
  endloop
endfacet
facet normal 0.9526380310818653 -0.30410653024305 0.0
  outer loop
    vertex 599.9914307831569 312.2595664877197 395.5416356746223
    vertex 599.9914307831569 312.2595664877197 397.04163567462234
    vertex 599.8167777665006 311.71245194277077 395.5416356746223
  endloop
endfacet
facet normal 0.9988862390940884 -0.047183485971979626 0.0
  outer loop
    vertex 599.7896795711584 311.138776346871 397.04163567462234
    vertex 599.7896795711584 311.138776346871 395.5416356746223
    vertex 599.8167777665006 311.71245194277077 397.04163567462234
  endloop
endfacet
facet normal 0.9988862390940884 -0.047183485971979626 0.0
  outer loop
    vertex 599.8167777665006 311.71245194277077 395.5416356746223
    vertex 599.8167777665006 311.71245194277077 397.04163567462234
    vertex 599.7896795711584 311.138776346871 395.5416356746223
  endloop
endfacet
facet normal 0.9770620006496128 0.2129550348936985 0.0
  outer loop
    vertex 599.911982894361 310.5776347438371 397.04163567462234
    vertex 599.911982894361 310.5776347438371 395.5416356746223
    vertex 599.7896795711584 311.138776346871 397.04163567462234
  endloop
endfacet
facet normal 0.9770620006496128 0.2129550348936985 0.0
  outer loop
    vertex 599.7896795711584 311.138776346871 395.5416356746223
    vertex 599.7896795711584 311.138776346871 397.04163567462234
    vertex 599.911982894361 310.5776347438371 395.5416356746223
  endloop
endfacet
facet normal 0.8886526015321587 0.4585810220562189 0.0
  outer loop
    vertex 600.1753529667479 310.06726800658555 397.04163567462234
    vertex 600.1753529667479 310.06726800658555 395.5416356746223
    vertex 599.911982894361 310.5776347438371 397.04163567462234
  endloop
endfacet
facet normal 0.8886526015321587 0.4585810220562189 0.0
  outer loop
    vertex 599.911982894361 310.5776347438371 395.5416356746223
    vertex 599.911982894361 310.5776347438371 397.04163567462234
    vertex 600.1753529667479 310.06726800658555 395.5416356746223
  endloop
endfacet
facet normal 0.7396829961881626 0.6729554704065512 0.0
  outer loop
    vertex 600.5618415531254 309.64245678483917 397.04163567462234
    vertex 600.5618415531254 309.64245678483917 395.5416356746223
    vertex 600.1753529667479 310.06726800658555 397.04163567462234
  endloop
endfacet
facet normal 0.7396829961881626 0.6729554704065512 0.0
  outer loop
    vertex 600.1753529667479 310.06726800658555 395.5416356746223
    vertex 600.1753529667479 310.06726800658555 397.04163567462234
    vertex 600.5618415531254 309.64245678483917 395.5416356746223
  endloop
endfacet
facet normal 0.5403052170378916 0.8414691155601832 0.0
  outer loop
    vertex 600.5618415531254 309.64245678483917 397.04163567462234
    vertex 601.0451100950347 309.3321512613262 397.04163567462234
    vertex 600.5618415531254 309.64245678483917 395.5416356746223
  endloop
endfacet
facet normal 0.5403052170378916 0.8414691155601832 0.0
  outer loop
    vertex 601.0451100950347 309.3321512613262 395.5416356746223
    vertex 600.5618415531254 309.64245678483917 395.5416356746223
    vertex 601.0451100950347 309.3321512613262 397.04163567462234
  endloop
endfacet
facet normal 0.304106530243157 0.9526380310818311 0.0
  outer loop
    vertex 601.0451100950347 309.3321512613262 397.04163567462234
    vertex 601.5922246399837 309.15749824466985 397.04163567462234
    vertex 601.0451100950347 309.3321512613262 395.5416356746223
  endloop
endfacet
facet normal 0.304106530243157 0.9526380310818311 0.0
  outer loop
    vertex 601.5922246399837 309.15749824466985 395.5416356746223
    vertex 601.0451100950347 309.3321512613262 395.5416356746223
    vertex 601.5922246399837 309.15749824466985 397.04163567462234
  endloop
endfacet
facet normal 0.04718348597185834 0.998886239094094 0.0
  outer loop
    vertex 601.5922246399837 309.15749824466985 397.04163567462234
    vertex 602.1659002358836 309.13040004932776 397.04163567462234
    vertex 601.5922246399837 309.15749824466985 395.5416356746223
  endloop
endfacet
facet normal 0.04718348597185834 0.998886239094094 0.0
  outer loop
    vertex 602.1659002358836 309.13040004932776 395.5416356746223
    vertex 601.5922246399837 309.15749824466985 395.5416356746223
    vertex 602.1659002358836 309.13040004932776 397.04163567462234
  endloop
endfacet
facet normal -0.21295503489369097 0.9770620006496143 0.0
  outer loop
    vertex 602.1659002358836 309.13040004932776 397.04163567462234
    vertex 602.6625144766651 309.2386393452005 397.04163567462234
    vertex 602.1659002358836 309.13040004932776 395.5416356746223
  endloop
endfacet
facet normal -0.21295503489369097 0.9770620006496143 0.0
  outer loop
    vertex 602.6625144766651 309.2386393452005 395.5416356746223
    vertex 602.1659002358836 309.13040004932776 395.5416356746223
    vertex 602.6625144766651 309.2386393452005 397.04163567462234
  endloop
endfacet
facet normal -0.21295503489382703 0.9770620006495847 0.0
  outer loop
    vertex 602.6625144766651 309.2386393452005 397.04163567462234
    vertex 602.7270418389174 309.2527033725303 397.04163567462234
    vertex 602.6625144766651 309.2386393452005 395.5416356746223
  endloop
endfacet
facet normal -0.21295503489382703 0.9770620006495847 0.0
  outer loop
    vertex 602.7270418389174 309.2527033725303 395.5416356746223
    vertex 602.6625144766651 309.2386393452005 395.5416356746223
    vertex 602.7270418389174 309.2527033725303 397.04163567462234
  endloop
endfacet
facet normal -0.4585810220561409 0.888652601532199 0.0
  outer loop
    vertex 602.7270418389174 309.2527033725303 397.04163567462234
    vertex 603.237408576169 309.51607344491714 397.04163567462234
    vertex 602.7270418389174 309.2527033725303 395.5416356746223
  endloop
endfacet
facet normal -0.4585810220561409 0.888652601532199 0.0
  outer loop
    vertex 603.237408576169 309.51607344491714 395.5416356746223
    vertex 602.7270418389174 309.2527033725303 395.5416356746223
    vertex 603.237408576169 309.51607344491714 397.04163567462234
  endloop
endfacet
facet normal -0.6729554704065728 0.7396829961881431 0.0
  outer loop
    vertex 603.237408576169 309.51607344491714 397.04163567462234
    vertex 603.6622197979154 309.9025620312948 397.04163567462234
    vertex 603.237408576169 309.51607344491714 395.5416356746223
  endloop
endfacet
facet normal -0.6729554704065728 0.7396829961881431 0.0
  outer loop
    vertex 603.6622197979154 309.9025620312948 395.5416356746223
    vertex 603.237408576169 309.51607344491714 395.5416356746223
    vertex 603.6622197979154 309.9025620312948 397.04163567462234
  endloop
endfacet
facet normal 0.21295503489370665 -0.977062000649611 0.0
  outer loop
    vertex 601.7980558687017 313.51499701159605 397.04163567462234
    vertex 601.2369142656678 313.3926936883935 397.04163567462234
    vertex 601.7980558687017 313.51499701159605 395.5416356746223
  endloop
endfacet
facet normal 0.21295503489370665 -0.977062000649611 0.0
  outer loop
    vertex 601.2369142656678 313.3926936883935 395.5416356746223
    vertex 601.7980558687017 313.51499701159605 395.5416356746223
    vertex 601.2369142656678 313.3926936883935 397.04163567462234
  endloop
endfacet
facet normal -0.04718348597195451 -0.9988862390940895 0.0
  outer loop
    vertex 602.0292800148462 313.50407488570323 397.04163567462234
    vertex 601.7980558687017 313.51499701159605 397.04163567462234
    vertex 602.0292800148462 313.50407488570323 395.5416356746223
  endloop
endfacet
facet normal -0.04718348597195451 -0.9988862390940895 0.0
  outer loop
    vertex 601.7980558687017 313.51499701159605 395.5416356746223
    vertex 602.0292800148462 313.50407488570323 395.5416356746223
    vertex 601.7980558687017 313.51499701159605 397.04163567462234
  endloop
endfacet
facet normal -0.04718348597179341 -0.9988862390940972 0.0
  outer loop
    vertex 602.3717314646015 313.4878988162539 397.04163567462234
    vertex 602.0292800148462 313.50407488570323 397.04163567462234
    vertex 602.3717314646015 313.4878988162539 395.5416356746223
  endloop
endfacet
facet normal -0.04718348597179341 -0.9988862390940972 0.0
  outer loop
    vertex 602.0292800148462 313.50407488570323 395.5416356746223
    vertex 602.3717314646015 313.4878988162539 395.5416356746223
    vertex 602.0292800148462 313.50407488570323 397.04163567462234
  endloop
endfacet
facet normal 0.4585810220561409 -0.888652601532199 0.0
  outer loop
    vertex 601.2369142656678 313.3926936883935 397.04163567462234
    vertex 600.7265475284163 313.1293236160067 397.04163567462234
    vertex 601.2369142656678 313.3926936883935 395.5416356746223
  endloop
endfacet
facet normal 0.4585810220561409 -0.888652601532199 0.0
  outer loop
    vertex 600.7265475284163 313.1293236160067 395.5416356746223
    vertex 601.2369142656678 313.3926936883935 395.5416356746223
    vertex 600.7265475284163 313.1293236160067 397.04163567462234
  endloop
endfacet
facet normal 0.0 0.0 -1.0
  outer loop
    vertex 593.4941623938615 310.8677421056362 395.5416356746223
    vertex 593.5614472106753 312.48229343618135 395.5416356746223
    vertex 593.7336493497313 309.26963408566155 395.5416356746223
  endloop
endfacet
facet normal 0.0 0.0 -1.0
  outer loop
    vertex 593.9330719515843 314.0549339855388 395.5416356746223
    vertex 593.7336493497313 309.26963408566155 395.5416356746223
    vertex 593.5614472106753 312.48229343618135 395.5416356746223
  endloop
endfacet
facet normal 0.0 0.0 -1.0
  outer loop
    vertex 594.2712523957226 307.74572916392935 395.5416356746223
    vertex 593.7336493497313 309.26963408566155 395.5416356746223
    vertex 593.9330719515843 314.0549339855388 395.5416356746223
  endloop
endfacet
facet normal 0.0 0.0 -1.0
  outer loop
    vertex 594.5956051301932 315.52882442677964 395.5416356746223
    vertex 594.2712523957226 307.74572916392935 395.5416356746223
    vertex 593.9330719515843 314.0549339855388 395.5416356746223
  endloop
endfacet
facet normal 0.0 0.0 -1.0
  outer loop
    vertex 595.0875411570421 306.35110523480637 395.5416356746223
    vertex 594.2712523957226 307.74572916392935 395.5416356746223
    vertex 594.5956051301932 315.52882442677964 395.5416356746223
  endloop
endfacet
facet normal 0.0 0.0 -1.0
  outer loop
    vertex 595.5251010712137 316.85069451917354 395.5416356746223
    vertex 595.0875411570421 306.35110523480637 395.5416356746223
    vertex 594.5956051301932 315.52882442677964 395.5416356746223
  endloop
endfacet
facet normal 0.0 0.0 -1.0
  outer loop
    vertex 596.153012831036 305.13616764074834 395.5416356746223
    vertex 595.0875411570421 306.35110523480637 395.5416356746223
    vertex 595.5251010712137 316.85069451917354 395.5416356746223
  endloop
endfacet
facet normal 0.0 0.0 -1.0
  outer loop
    vertex 596.6879653695592 317.9727684334823 395.5416356746223
    vertex 596.153012831036 305.13616764074834 395.5416356746223
    vertex 595.5251010712137 316.85069451917354 395.5416356746223
  endloop
endfacet
facet normal 0.0 0.0 -1.0
  outer loop
    vertex 597.4291584953469 304.14482739189356 395.5416356746223
    vertex 596.153012831036 305.13616764074834 395.5416356746223
    vertex 596.6879653695592 317.9727684334823 395.5416356746223
  endloop
endfacet
facet normal 0.0 0.0 -1.0
  outer loop
    vertex 598.0421690796743 318.85449149490773 395.5416356746223
    vertex 597.4291584953469 304.14482739189356 395.5416356746223
    vertex 596.6879653695592 317.9727684334823 395.5416356746223
  endloop
endfacet
facet normal 0.0 0.0 -1.0
  outer loop
    vertex 598.8698549207015 303.41291410774755 395.5416356746223
    vertex 597.4291584953469 304.14482739189356 395.5416356746223
    vertex 598.0421690796743 318.85449149490773 395.5416356746223
  endloop
endfacet
facet normal 0.0 0.0 -1.0
  outer loop
    vertex 599.538767751132 319.46399593470295 395.5416356746223
    vertex 598.8698549207015 303.41291410774755 395.5416356746223
    vertex 598.0421690796743 318.85449149490773 395.5416356746223
  endloop
endfacet
facet normal 0.0 0.0 -1.0
  outer loop
    vertex 599.7896795711584 311.138776346871 395.5416356746223
    vertex 598.8698549207015 303.41291410774755 395.5416356746223
    vertex 599.538767751132 319.46399593470295 395.5416356746223
  endloop
endfacet
facet normal 0.0 0.0 -1.0
  outer loop
    vertex 600.4230315845895 302.96688104138065 395.5416356746223
    vertex 598.8698549207015 303.41291410774755 395.5416356746223
    vertex 599.7896795711584 311.138776346871 395.5416356746223
  endloop
endfacet
facet normal 0.0 0.0 -1.0
  outer loop
    vertex 599.911982894361 310.5776347438371 395.5416356746223
    vertex 600.4230315845895 302.96688104138065 395.5416356746223
    vertex 599.7896795711584 311.138776346871 395.5416356746223
  endloop
endfacet
facet normal 0.0 0.0 -1.0
  outer loop
    vertex 600.1753529667479 310.06726800658555 395.5416356746223
    vertex 600.4230315845895 302.96688104138065 395.5416356746223
    vertex 599.911982894361 310.5776347438371 395.5416356746223
  endloop
endfacet
facet normal 0.0 0.0 -1.0
  outer loop
    vertex 600.5618415531254 309.64245678483917 395.5416356746223
    vertex 600.4230315845895 302.96688104138065 395.5416356746223
    vertex 600.1753529667479 310.06726800658555 395.5416356746223
  endloop
endfacet
facet normal 0.0 0.0 -1.0
  outer loop
    vertex 602.0325526356157 302.8228489899393 395.5416356746223
    vertex 600.4230315845895 302.96688104138065 395.5416356746223
    vertex 600.5618415531254 309.64245678483917 395.5416356746223
  endloop
endfacet
facet normal 0.0 0.0 -1.0
  outer loop
    vertex 601.0451100950347 309.3321512613262 395.5416356746223
    vertex 602.0325526356157 302.8228489899393 395.5416356746223
    vertex 600.5618415531254 309.64245678483917 395.5416356746223
  endloop
endfacet
facet normal 0.0 0.0 -1.0
  outer loop
    vertex 601.5922246399837 309.15749824466985 395.5416356746223
    vertex 602.0325526356157 302.8228489899393 395.5416356746223
    vertex 601.0451100950347 309.3321512613262 395.5416356746223
  endloop
endfacet
facet normal 0.0 0.0 -1.0
  outer loop
    vertex 602.1659002358836 309.13040004932776 395.5416356746223
    vertex 602.0325526356157 302.8228489899393 395.5416356746223
    vertex 601.5922246399837 309.15749824466985 395.5416356746223
  endloop
endfacet
facet normal 0.0 0.0 -1.0
  outer loop
    vertex 603.6402457894297 302.9860236470344 395.5416356746223
    vertex 602.0325526356157 302.8228489899393 395.5416356746223
    vertex 602.1659002358836 309.13040004932776 395.5416356746223
  endloop
endfacet
facet normal 0.0 0.0 -1.0
  outer loop
    vertex 602.6625144766651 309.2386393452005 395.5416356746223
    vertex 603.6402457894297 302.9860236470344 395.5416356746223
    vertex 602.1659002358836 309.13040004932776 395.5416356746223
  endloop
endfacet
facet normal 0.0 0.0 -1.0
  outer loop
    vertex 602.7270418389174 309.2527033725303 395.5416356746223
    vertex 603.6402457894297 302.9860236470344 395.5416356746223
    vertex 602.6625144766651 309.2386393452005 395.5416356746223
  endloop
endfacet
facet normal 0.0 0.0 -1.0
  outer loop
    vertex 603.237408576169 309.51607344491714 395.5416356746223
    vertex 603.6402457894297 302.9860236470344 395.5416356746223
    vertex 602.7270418389174 309.2527033725303 395.5416356746223
  endloop
endfacet
facet normal 0.0 0.0 -1.0
  outer loop
    vertex 603.6622197979154 309.9025620312948 395.5416356746223
    vertex 603.6402457894297 302.9860236470344 395.5416356746223
    vertex 603.237408576169 309.51607344491714 395.5416356746223
  endloop
endfacet
facet normal 0.0 0.0 -1.0
  outer loop
    vertex 605.1880048266493 303.4505074554111 395.5416356746223
    vertex 603.6402457894297 302.9860236470344 395.5416356746223
    vertex 603.6622197979154 309.9025620312948 395.5416356746223
  endloop
endfacet
facet normal 0.0 0.0 -1.0
  outer loop
    vertex 603.9725253214284 310.3858305732041 395.5416356746223
    vertex 605.1880048266493 303.4505074554111 395.5416356746223
    vertex 603.6622197979154 309.9025620312948 395.5416356746223
  endloop
endfacet
facet normal 0.0 0.0 -1.0
  outer loop
    vertex 604.1471783380846 310.93294511815304 395.5416356746223
    vertex 605.1880048266493 303.4505074554111 395.5416356746223
    vertex 603.9725253214284 310.3858305732041 395.5416356746223
  endloop
endfacet
facet normal 0.0 0.0 -1.0
  outer loop
    vertex 604.1742765334268 311.5066207140528 395.5416356746223
    vertex 605.1880048266493 303.4505074554111 395.5416356746223
    vertex 604.1471783380846 310.93294511815304 395.5416356746223
  endloop
endfacet
facet normal 0.0 0.0 -1.0
  outer loop
    vertex 604.3281364387697 319.49249294804446 395.5416356746223
    vertex 605.1880048266493 303.4505074554111 395.5416356746223
    vertex 604.1742765334268 311.5066207140528 395.5416356746223
  endloop
endfacet
facet normal 0.0 0.0 -1.0
  outer loop
    vertex 605.8318820599943 318.9008407257155 395.5416356746223
    vertex 605.1880048266493 303.4505074554111 395.5416356746223
    vertex 604.3281364387697 319.49249294804446 395.5416356746223
  endloop
endfacet
facet normal 0.0 0.0 -1.0
  outer loop
    vertex 606.6198897030223 304.199512760034 395.5416356746223
    vertex 605.1880048266493 303.4505074554111 395.5416356746223
    vertex 605.8318820599943 318.9008407257155 395.5416356746223
  endloop
endfacet
facet normal 0.0 0.0 -1.0
  outer loop
    vertex 607.1964821195535 318.03529469979316 395.5416356746223
    vertex 606.6198897030223 304.199512760034 395.5416356746223
    vertex 605.8318820599943 318.9008407257155 395.5416356746223
  endloop
endfacet
facet normal 0.0 0.0 -1.0
  outer loop
    vertex 607.8841483683769 305.20596855767957 395.5416356746223
    vertex 606.6198897030223 304.199512760034 395.5416356746223
    vertex 607.1964821195535 318.03529469979316 395.5416356746223
  endloop
endfacet
facet normal 0.0 0.0 -1.0
  outer loop
    vertex 608.3726164158641 316.92713795881247 395.5416356746223
    vertex 607.8841483683769 305.20596855767957 395.5416356746223
    vertex 607.1964821195535 318.03529469979316 395.5416356746223
  endloop
endfacet
facet normal 0.0 0.0 -1.0
  outer loop
    vertex 608.9350872205537 306.433498913526 395.5416356746223
    vertex 607.8841483683769 305.20596855767957 395.5416356746223
    vertex 608.3726164158641 316.92713795881247 395.5416356746223
  endloop
endfacet
facet normal 0.0 0.0 -1.0
  outer loop
    vertex 609.3177763910693 315.61642217466664 395.5416356746223
    vertex 608.9350872205537 306.433498913526 395.5416356746223
    vertex 608.3726164158641 316.92713795881247 395.5416356746223
  endloop
endfacet
facet normal 0.0 0.0 -1.0
  outer loop
    vertex 609.73472259124 307.8377376822139 395.5416356746223
    vertex 608.9350872205537 306.433498913526 395.5416356746223
    vertex 609.3177763910693 315.61642217466664 395.5416356746223
  endloop
endfacet
facet normal 0.0 0.0 -1.0
  outer loop
    vertex 609.9978015010751 314.15052003083144 395.5416356746223
    vertex 609.73472259124 307.8377376822139 395.5416356746223
    vertex 609.3177763910693 315.61642217466664 395.5416356746223
  endloop
endfacet
facet normal 0.0 0.0 -1.0
  outer loop
    vertex 610.2541535747101 309.3679320159344 395.5416356746223
    vertex 609.73472259124 307.8377376822139 395.5416356746223
    vertex 609.9978015010751 314.15052003083144 395.5416356746223
  endloop
endfacet
facet normal 0.0 0.0 -1.0
  outer loop
    vertex 610.3881138666173 312.5824130501559 395.5416356746223
    vertex 610.2541535747101 309.3679320159344 395.5416356746223
    vertex 609.9978015010751 314.15052003083144 395.5416356746223
  endloop
endfacet
facet normal 0.0 0.0 -1.0
  outer loop
    vertex 610.474606581857 310.96877670458434 395.5416356746223
    vertex 610.2541535747101 309.3679320159344 395.5416356746223
    vertex 610.3881138666173 312.5824130501559 395.5416356746223
  endloop
endfacet
facet normal 0.0 0.0 -1.0
  outer loop
    vertex 601.1236704085959 319.7792526743654 395.5416356746223
    vertex 599.8167777665006 311.71245194277077 395.5416356746223
    vertex 599.538767751132 319.46399593470295 395.5416356746223
  endloop
endfacet
facet normal 0.0 0.0 -1.0
  outer loop
    vertex 599.7896795711584 311.138776346871 395.5416356746223
    vertex 599.538767751132 319.46399593470295 395.5416356746223
    vertex 599.8167777665006 311.71245194277077 395.5416356746223
  endloop
endfacet
facet normal 0.0 0.0 -1.0
  outer loop
    vertex 599.9914307831569 312.2595664877197 395.5416356746223
    vertex 599.8167777665006 311.71245194277077 395.5416356746223
    vertex 601.1236704085959 319.7792526743654 395.5416356746223
  endloop
endfacet
facet normal 0.0 0.0 -1.0
  outer loop
    vertex 600.3017363066699 312.742835029629 395.5416356746223
    vertex 599.9914307831569 312.2595664877197 395.5416356746223
    vertex 601.1236704085959 319.7792526743654 395.5416356746223
  endloop
endfacet
facet normal 0.0 0.0 -1.0
  outer loop
    vertex 600.7265475284163 313.1293236160067 395.5416356746223
    vertex 600.3017363066699 312.742835029629 395.5416356746223
    vertex 601.1236704085959 319.7792526743654 395.5416356746223
  endloop
endfacet
facet normal 0.0 0.0 -1.0
  outer loop
    vertex 601.2369142656678 313.3926936883935 395.5416356746223
    vertex 600.7265475284163 313.1293236160067 395.5416356746223
    vertex 601.1236704085959 319.7792526743654 395.5416356746223
  endloop
endfacet
facet normal 0.0 0.0 -1.0
  outer loop
    vertex 602.7395945406018 319.78886751393026 395.5416356746223
    vertex 601.2369142656678 313.3926936883935 395.5416356746223
    vertex 601.1236704085959 319.7792526743654 395.5416356746223
  endloop
endfacet
facet normal 0.0 0.0 -1.0
  outer loop
    vertex 601.7980558687017 313.51499701159605 395.5416356746223
    vertex 601.2369142656678 313.3926936883935 395.5416356746223
    vertex 602.7395945406018 319.78886751393026 395.5416356746223
  endloop
endfacet
facet normal 0.0 0.0 -1.0
  outer loop
    vertex 602.0292800148462 313.50407488570323 395.5416356746223
    vertex 601.7980558687017 313.51499701159605 395.5416356746223
    vertex 602.7395945406018 319.78886751393026 395.5416356746223
  endloop
endfacet
facet normal 0.0 0.0 -1.0
  outer loop
    vertex 602.3717314646015 313.4878988162539 395.5416356746223
    vertex 602.0292800148462 313.50407488570323 395.5416356746223
    vertex 602.7395945406018 319.78886751393026 395.5416356746223
  endloop
endfacet
facet normal 0.0 0.0 -1.0
  outer loop
    vertex 602.9188460095504 313.31324579959755 395.5416356746223
    vertex 602.3717314646015 313.4878988162539 395.5416356746223
    vertex 602.7395945406018 319.78886751393026 395.5416356746223
  endloop
endfacet
facet normal 0.0 0.0 -1.0
  outer loop
    vertex 604.3281364387697 319.49249294804446 395.5416356746223
    vertex 602.9188460095504 313.31324579959755 395.5416356746223
    vertex 602.7395945406018 319.78886751393026 395.5416356746223
  endloop
endfacet
facet normal 0.0 0.0 -1.0
  outer loop
    vertex 603.4021145514598 313.0029402760846 395.5416356746223
    vertex 602.9188460095504 313.31324579959755 395.5416356746223
    vertex 604.3281364387697 319.49249294804446 395.5416356746223
  endloop
endfacet
facet normal 0.0 0.0 -1.0
  outer loop
    vertex 603.7886031378374 312.5781290543382 395.5416356746223
    vertex 603.4021145514598 313.0029402760846 395.5416356746223
    vertex 604.3281364387697 319.49249294804446 395.5416356746223
  endloop
endfacet
facet normal 0.0 0.0 -1.0
  outer loop
    vertex 604.0519732102242 312.0677623170867 395.5416356746223
    vertex 603.7886031378374 312.5781290543382 395.5416356746223
    vertex 604.3281364387697 319.49249294804446 395.5416356746223
  endloop
endfacet
facet normal 0.0 0.0 -1.0
  outer loop
    vertex 604.1742765334268 311.5066207140528 395.5416356746223
    vertex 604.0519732102242 312.0677623170867 395.5416356746223
    vertex 604.3281364387697 319.49249294804446 395.5416356746223
  endloop
endfacet
facet normal 0.0 0.0 1.0
  outer loop
    vertex 593.4941623938615 310.8677421056362 396.5416356746223
    vertex 593.7336493497313 309.26963408566155 396.5416356746223
    vertex 593.5614472106753 312.48229343618135 396.5416356746223
  endloop
endfacet
facet normal 0.0 0.0 1.0
  outer loop
    vertex 593.9330719515843 314.0549339855388 396.5416356746223
    vertex 593.5614472106753 312.48229343618135 396.5416356746223
    vertex 593.7336493497313 309.26963408566155 396.5416356746223
  endloop
endfacet
facet normal 0.0 0.0 1.0
  outer loop
    vertex 594.2712523957226 307.74572916392935 396.5416356746223
    vertex 593.9330719515843 314.0549339855388 396.5416356746223
    vertex 593.7336493497313 309.26963408566155 396.5416356746223
  endloop
endfacet
facet normal 0.0 0.0 1.0
  outer loop
    vertex 594.5956051301932 315.52882442677964 396.5416356746223
    vertex 593.9330719515843 314.0549339855388 396.5416356746223
    vertex 594.2712523957226 307.74572916392935 396.5416356746223
  endloop
endfacet
facet normal 0.0 0.0 1.0
  outer loop
    vertex 595.0875411570421 306.35110523480637 396.5416356746223
    vertex 594.5956051301932 315.52882442677964 396.5416356746223
    vertex 594.2712523957226 307.74572916392935 396.5416356746223
  endloop
endfacet
facet normal 0.0 0.0 1.0
  outer loop
    vertex 595.5251010712137 316.85069451917354 396.5416356746223
    vertex 594.5956051301932 315.52882442677964 396.5416356746223
    vertex 595.0875411570421 306.35110523480637 396.5416356746223
  endloop
endfacet
facet normal 0.0 0.0 1.0
  outer loop
    vertex 596.153012831036 305.13616764074834 396.5416356746223
    vertex 595.5251010712137 316.85069451917354 396.5416356746223
    vertex 595.0875411570421 306.35110523480637 396.5416356746223
  endloop
endfacet
facet normal 0.0 0.0 1.0
  outer loop
    vertex 596.6879653695592 317.9727684334823 396.5416356746223
    vertex 595.5251010712137 316.85069451917354 396.5416356746223
    vertex 596.153012831036 305.13616764074834 396.5416356746223
  endloop
endfacet
facet normal 0.0 0.0 1.0
  outer loop
    vertex 597.4291584953469 304.14482739189356 396.5416356746223
    vertex 596.6879653695592 317.9727684334823 396.5416356746223
    vertex 596.153012831036 305.13616764074834 396.5416356746223
  endloop
endfacet
facet normal 0.0 0.0 1.0
  outer loop
    vertex 598.0421690796743 318.85449149490773 396.5416356746223
    vertex 596.6879653695592 317.9727684334823 396.5416356746223
    vertex 597.4291584953469 304.14482739189356 396.5416356746223
  endloop
endfacet
facet normal 0.0 0.0 1.0
  outer loop
    vertex 598.8698549207015 303.41291410774755 396.5416356746223
    vertex 598.0421690796743 318.85449149490773 396.5416356746223
    vertex 597.4291584953469 304.14482739189356 396.5416356746223
  endloop
endfacet
facet normal 0.0 0.0 1.0
  outer loop
    vertex 598.9951134606154 311.60312661569054 396.5416356746223
    vertex 598.0421690796743 318.85449149490773 396.5416356746223
    vertex 598.8698549207015 303.41291410774755 396.5416356746223
  endloop
endfacet
facet normal 0.0 0.0 1.0
  outer loop
    vertex 599.538767751132 319.46399593470295 396.5416356746223
    vertex 598.0421690796743 318.85449149490773 396.5416356746223
    vertex 598.9951134606154 311.60312661569054 396.5416356746223
  endloop
endfacet
facet normal 0.0 0.0 1.0
  outer loop
    vertex 599.1072140316677 312.18044664367466 396.5416356746223
    vertex 599.538767751132 319.46399593470295 396.5416356746223
    vertex 598.9951134606154 311.60312661569054 396.5416356746223
  endloop
endfacet
facet normal 0.0 0.0 1.0
  outer loop
    vertex 599.3297901718463 312.72480389269873 396.5416356746223
    vertex 599.538767751132 319.46399593470295 396.5416356746223
    vertex 599.1072140316677 312.18044664367466 396.5416356746223
  endloop
endfacet
facet normal 0.0 0.0 1.0
  outer loop
    vertex 599.6542884049063 313.2152790189618 396.5416356746223
    vertex 599.538767751132 319.46399593470295 396.5416356746223
    vertex 599.3297901718463 312.72480389269873 396.5416356746223
  endloop
endfacet
facet normal 0.0 0.0 1.0
  outer loop
    vertex 601.1236704085959 319.7792526743654 396.5416356746223
    vertex 599.538767751132 319.46399593470295 396.5416356746223
    vertex 599.6542884049063 313.2152790189618 396.5416356746223
  endloop
endfacet
facet normal 0.0 0.0 1.0
  outer loop
    vertex 600.068238445732 313.63302333842313 396.5416356746223
    vertex 601.1236704085959 319.7792526743654 396.5416356746223
    vertex 599.6542884049063 313.2152790189618 396.5416356746223
  endloop
endfacet
facet normal 0.0 0.0 1.0
  outer loop
    vertex 600.5557324264004 313.9619831711596 396.5416356746223
    vertex 601.1236704085959 319.7792526743654 396.5416356746223
    vertex 600.068238445732 313.63302333842313 396.5416356746223
  endloop
endfacet
facet normal 0.0 0.0 1.0
  outer loop
    vertex 601.0980362266239 314.189516775282 396.5416356746223
    vertex 601.1236704085959 319.7792526743654 396.5416356746223
    vertex 600.5557324264004 313.9619831711596 396.5416356746223
  endloop
endfacet
facet normal 0.0 0.0 1.0
  outer loop
    vertex 601.6743094154876 314.3068801619861 396.5416356746223
    vertex 601.1236704085959 319.7792526743654 396.5416356746223
    vertex 601.0980362266239 314.189516775282 396.5416356746223
  endloop
endfacet
facet normal 0.0 0.0 1.0
  outer loop
    vertex 602.7395945406018 319.78886751393026 396.5416356746223
    vertex 601.1236704085959 319.7792526743654 396.5416356746223
    vertex 601.6743094154876 314.3068801619861 396.5416356746223
  endloop
endfacet
facet normal 0.0 0.0 1.0
  outer loop
    vertex 602.2624061375212 314.3095631221391 396.5416356746223
    vertex 602.7395945406018 319.78886751393026 396.5416356746223
    vertex 601.6743094154876 314.3068801619861 396.5416356746223
  endloop
endfacet
facet normal 0.0 0.0 1.0
  outer loop
    vertex 602.8397261655055 314.1974625510869 396.5416356746223
    vertex 602.7395945406018 319.78886751393026 396.5416356746223
    vertex 602.2624061375212 314.3095631221391 396.5416356746223
  endloop
endfacet
facet normal 0.0 0.0 1.0
  outer loop
    vertex 604.3281364387697 319.49249294804446 396.5416356746223
    vertex 602.7395945406018 319.78886751393026 396.5416356746223
    vertex 602.8397261655055 314.1974625510869 396.5416356746223
  endloop
endfacet
facet normal 0.0 0.0 1.0
  outer loop
    vertex 603.3840834145295 313.9748864109082 396.5416356746223
    vertex 604.3281364387697 319.49249294804446 396.5416356746223
    vertex 602.8397261655055 314.1974625510869 396.5416356746223
  endloop
endfacet
facet normal 0.0 0.0 1.0
  outer loop
    vertex 603.8745585407926 313.6503881778482 396.5416356746223
    vertex 604.3281364387697 319.49249294804446 396.5416356746223
    vertex 603.3840834145295 313.9748864109082 396.5416356746223
  endloop
endfacet
facet normal 0.0 0.0 1.0
  outer loop
    vertex 604.2923028602539 313.23643813702245 396.5416356746223
    vertex 604.3281364387697 319.49249294804446 396.5416356746223
    vertex 603.8745585407926 313.6503881778482 396.5416356746223
  endloop
endfacet
facet normal 0.0 0.0 1.0
  outer loop
    vertex 604.6212626929904 312.7489441563542 396.5416356746223
    vertex 604.3281364387697 319.49249294804446 396.5416356746223
    vertex 604.2923028602539 313.23643813702245 396.5416356746223
  endloop
endfacet
facet normal 0.0 0.0 1.0
  outer loop
    vertex 605.8318820599943 318.9008407257155 396.5416356746223
    vertex 604.3281364387697 319.49249294804446 396.5416356746223
    vertex 604.6212626929904 312.7489441563542 396.5416356746223
  endloop
endfacet
facet normal 0.0 0.0 1.0
  outer loop
    vertex 604.8487962971127 312.2066403561306 396.5416356746223
    vertex 605.8318820599943 318.9008407257155 396.5416356746223
    vertex 604.6212626929904 312.7489441563542 396.5416356746223
  endloop
endfacet
facet normal 0.0 0.0 1.0
  outer loop
    vertex 604.9661596838168 311.63036716726685 396.5416356746223
    vertex 605.8318820599943 318.9008407257155 396.5416356746223
    vertex 604.8487962971127 312.2066403561306 396.5416356746223
  endloop
endfacet
facet normal 0.0 0.0 1.0
  outer loop
    vertex 604.9688426439699 311.04227044523327 396.5416356746223
    vertex 605.8318820599943 318.9008407257155 396.5416356746223
    vertex 604.9661596838168 311.63036716726685 396.5416356746223
  endloop
endfacet
facet normal 0.0 0.0 1.0
  outer loop
    vertex 605.1880048266493 303.4505074554111 396.5416356746223
    vertex 605.8318820599943 318.9008407257155 396.5416356746223
    vertex 604.9688426439699 311.04227044523327 396.5416356746223
  endloop
endfacet
facet normal 0.0 0.0 1.0
  outer loop
    vertex 606.6198897030223 304.199512760034 396.5416356746223
    vertex 605.8318820599943 318.9008407257155 396.5416356746223
    vertex 605.1880048266493 303.4505074554111 396.5416356746223
  endloop
endfacet
facet normal 0.0 0.0 1.0
  outer loop
    vertex 607.1964821195535 318.03529469979316 396.5416356746223
    vertex 605.8318820599943 318.9008407257155 396.5416356746223
    vertex 606.6198897030223 304.199512760034 396.5416356746223
  endloop
endfacet
facet normal 0.0 0.0 1.0
  outer loop
    vertex 607.8841483683769 305.20596855767957 396.5416356746223
    vertex 607.1964821195535 318.03529469979316 396.5416356746223
    vertex 606.6198897030223 304.199512760034 396.5416356746223
  endloop
endfacet
facet normal 0.0 0.0 1.0
  outer loop
    vertex 608.3726164158641 316.92713795881247 396.5416356746223
    vertex 607.1964821195535 318.03529469979316 396.5416356746223
    vertex 607.8841483683769 305.20596855767957 396.5416356746223
  endloop
endfacet
facet normal 0.0 0.0 1.0
  outer loop
    vertex 608.9350872205537 306.433498913526 396.5416356746223
    vertex 608.3726164158641 316.92713795881247 396.5416356746223
    vertex 607.8841483683769 305.20596855767957 396.5416356746223
  endloop
endfacet
facet normal 0.0 0.0 1.0
  outer loop
    vertex 609.3177763910693 315.61642217466664 396.5416356746223
    vertex 608.3726164158641 316.92713795881247 396.5416356746223
    vertex 608.9350872205537 306.433498913526 396.5416356746223
  endloop
endfacet
facet normal 0.0 0.0 1.0
  outer loop
    vertex 609.73472259124 307.8377376822139 396.5416356746223
    vertex 609.3177763910693 315.61642217466664 396.5416356746223
    vertex 608.9350872205537 306.433498913526 396.5416356746223
  endloop
endfacet
facet normal 0.0 0.0 1.0
  outer loop
    vertex 609.9978015010751 314.15052003083144 396.5416356746223
    vertex 609.3177763910693 315.61642217466664 396.5416356746223
    vertex 609.73472259124 307.8377376822139 396.5416356746223
  endloop
endfacet
facet normal 0.0 0.0 1.0
  outer loop
    vertex 610.2541535747101 309.3679320159344 396.5416356746223
    vertex 609.9978015010751 314.15052003083144 396.5416356746223
    vertex 609.73472259124 307.8377376822139 396.5416356746223
  endloop
endfacet
facet normal 0.0 0.0 1.0
  outer loop
    vertex 610.3881138666173 312.5824130501559 396.5416356746223
    vertex 609.9978015010751 314.15052003083144 396.5416356746223
    vertex 610.2541535747101 309.3679320159344 396.5416356746223
  endloop
endfacet
facet normal 0.0 0.0 1.0
  outer loop
    vertex 610.474606581857 310.96877670458434 396.5416356746223
    vertex 610.3881138666173 312.5824130501559 396.5416356746223
    vertex 610.2541535747101 309.3679320159344 396.5416356746223
  endloop
endfacet
facet normal 0.0 0.0 1.0
  outer loop
    vertex 600.4230315845895 302.96688104138065 396.5416356746223
    vertex 598.9977964207685 311.01502989365696 396.5416356746223
    vertex 598.8698549207015 303.41291410774755 396.5416356746223
  endloop
endfacet
facet normal 0.0 0.0 1.0
  outer loop
    vertex 598.9951134606154 311.60312661569054 396.5416356746223
    vertex 598.8698549207015 303.41291410774755 396.5416356746223
    vertex 598.9977964207685 311.01502989365696 396.5416356746223
  endloop
endfacet
facet normal 0.0 0.0 1.0
  outer loop
    vertex 599.1151598074725 310.4387567047932 396.5416356746223
    vertex 598.9977964207685 311.01502989365696 396.5416356746223
    vertex 600.4230315845895 302.96688104138065 396.5416356746223
  endloop
endfacet
facet normal 0.0 0.0 1.0
  outer loop
    vertex 599.3426934115948 309.89645290456957 396.5416356746223
    vertex 599.1151598074725 310.4387567047932 396.5416356746223
    vertex 600.4230315845895 302.96688104138065 396.5416356746223
  endloop
endfacet
facet normal 0.0 0.0 1.0
  outer loop
    vertex 599.6716532443313 309.4089589239013 396.5416356746223
    vertex 599.3426934115948 309.89645290456957 396.5416356746223
    vertex 600.4230315845895 302.96688104138065 396.5416356746223
  endloop
endfacet
facet normal 0.0 0.0 1.0
  outer loop
    vertex 600.0893975637928 308.99500888307557 396.5416356746223
    vertex 599.6716532443313 309.4089589239013 396.5416356746223
    vertex 600.4230315845895 302.96688104138065 396.5416356746223
  endloop
endfacet
facet normal 0.0 0.0 1.0
  outer loop
    vertex 600.5798726900558 308.67051065001556 396.5416356746223
    vertex 600.0893975637928 308.99500888307557 396.5416356746223
    vertex 600.4230315845895 302.96688104138065 396.5416356746223
  endloop
endfacet
facet normal 0.0 0.0 1.0
  outer loop
    vertex 602.0325526356157 302.8228489899393 396.5416356746223
    vertex 600.5798726900558 308.67051065001556 396.5416356746223
    vertex 600.4230315845895 302.96688104138065 396.5416356746223
  endloop
endfacet
facet normal 0.0 0.0 1.0
  outer loop
    vertex 601.1242299390799 308.4479345098369 396.5416356746223
    vertex 600.5798726900558 308.67051065001556 396.5416356746223
    vertex 602.0325526356157 302.8228489899393 396.5416356746223
  endloop
endfacet
facet normal 0.0 0.0 1.0
  outer loop
    vertex 601.701549967064 308.33583393878473 396.5416356746223
    vertex 601.1242299390799 308.4479345098369 396.5416356746223
    vertex 602.0325526356157 302.8228489899393 396.5416356746223
  endloop
endfacet
facet normal 0.0 0.0 1.0
  outer loop
    vertex 602.2896466890976 308.33851689893766 396.5416356746223
    vertex 601.701549967064 308.33583393878473 396.5416356746223
    vertex 602.0325526356157 302.8228489899393 396.5416356746223
  endloop
endfacet
facet normal 0.0 0.0 1.0
  outer loop
    vertex 603.6402457894297 302.9860236470344 396.5416356746223
    vertex 602.2896466890976 308.33851689893766 396.5416356746223
    vertex 602.0325526356157 302.8228489899393 396.5416356746223
  endloop
endfacet
facet normal 0.0 0.0 1.0
  outer loop
    vertex 602.8659198779613 308.4558802856418 396.5416356746223
    vertex 602.2896466890976 308.33851689893766 396.5416356746223
    vertex 603.6402457894297 302.9860236470344 396.5416356746223
  endloop
endfacet
facet normal 0.0 0.0 1.0
  outer loop
    vertex 603.4082236781849 308.6834138897642 396.5416356746223
    vertex 602.8659198779613 308.4558802856418 396.5416356746223
    vertex 603.6402457894297 302.9860236470344 396.5416356746223
  endloop
endfacet
facet normal 0.0 0.0 1.0
  outer loop
    vertex 603.8957176588533 309.0123737225007 396.5416356746223
    vertex 603.4082236781849 308.6834138897642 396.5416356746223
    vertex 603.6402457894297 302.9860236470344 396.5416356746223
  endloop
endfacet
facet normal 0.0 0.0 1.0
  outer loop
    vertex 605.1880048266493 303.4505074554111 396.5416356746223
    vertex 603.8957176588533 309.0123737225007 396.5416356746223
    vertex 603.6402457894297 302.9860236470344 396.5416356746223
  endloop
endfacet
facet normal 0.0 0.0 1.0
  outer loop
    vertex 604.309667699679 309.43011804196203 396.5416356746223
    vertex 603.8957176588533 309.0123737225007 396.5416356746223
    vertex 605.1880048266493 303.4505074554111 396.5416356746223
  endloop
endfacet
facet normal 0.0 0.0 1.0
  outer loop
    vertex 604.634165932739 309.9205931682251 396.5416356746223
    vertex 604.309667699679 309.43011804196203 396.5416356746223
    vertex 605.1880048266493 303.4505074554111 396.5416356746223
  endloop
endfacet
facet normal 0.0 0.0 1.0
  outer loop
    vertex 604.8567420729175 310.4649504172491 396.5416356746223
    vertex 604.634165932739 309.9205931682251 396.5416356746223
    vertex 605.1880048266493 303.4505074554111 396.5416356746223
  endloop
endfacet
facet normal 0.0 0.0 1.0
  outer loop
    vertex 604.9688426439699 311.04227044523327 396.5416356746223
    vertex 604.8567420729175 310.4649504172491 396.5416356746223
    vertex 605.1880048266493 303.4505074554111 396.5416356746223
  endloop
endfacet
facet normal 0.9906506872491013 -0.13642293008465733 0.0
  outer loop
    vertex 610.2541535747101 309.3679320159344 396.5416356746223
    vertex 610.2541535747101 309.3679320159344 395.5416356746223
    vertex 610.474606581857 310.96877670458434 396.5416356746223
  endloop
endfacet
facet normal 0.9906506872491013 -0.13642293008465733 0.0
  outer loop
    vertex 610.474606581857 310.96877670458434 395.5416356746223
    vertex 610.474606581857 310.96877670458434 396.5416356746223
    vertex 610.2541535747101 309.3679320159344 395.5416356746223
  endloop
endfacet
facet normal 0.9469301294951014 -0.32143946530317435 0.0
  outer loop
    vertex 609.73472259124 307.8377376822139 396.5416356746223
    vertex 609.73472259124 307.8377376822139 395.5416356746223
    vertex 610.2541535747101 309.3679320159344 396.5416356746223
  endloop
endfacet
facet normal 0.9469301294951014 -0.32143946530317435 0.0
  outer loop
    vertex 610.2541535747101 309.3679320159344 395.5416356746223
    vertex 610.2541535747101 309.3679320159344 396.5416356746223
    vertex 609.73472259124 307.8377376822139 395.5416356746223
  endloop
endfacet
facet normal 0.8689850496587792 -0.49483834074324645 0.0
  outer loop
    vertex 608.9350872205537 306.433498913526 396.5416356746223
    vertex 608.9350872205537 306.433498913526 395.5416356746223
    vertex 609.73472259124 307.8377376822139 396.5416356746223
  endloop
endfacet
facet normal 0.8689850496587792 -0.49483834074324645 0.0
  outer loop
    vertex 609.73472259124 307.8377376822139 395.5416356746223
    vertex 609.73472259124 307.8377376822139 396.5416356746223
    vertex 608.9350872205537 306.433498913526 395.5416356746223
  endloop
endfacet
facet normal 0.7596325860092803 -0.6503524692602107 0.0
  outer loop
    vertex 607.8841483683769 305.20596855767957 396.5416356746223
    vertex 607.8841483683769 305.20596855767957 395.5416356746223
    vertex 608.9350872205537 306.433498913526 396.5416356746223
  endloop
endfacet
facet normal 0.7596325860092803 -0.6503524692602107 0.0
  outer loop
    vertex 608.9350872205537 306.433498913526 395.5416356746223
    vertex 608.9350872205537 306.433498913526 396.5416356746223
    vertex 607.8841483683769 305.20596855767957 395.5416356746223
  endloop
endfacet
facet normal 0.6228250214980655 -0.7823611650612101 0.0
  outer loop
    vertex 607.8841483683769 305.20596855767957 396.5416356746223
    vertex 606.6198897030223 304.199512760034 396.5416356746223
    vertex 607.8841483683769 305.20596855767957 395.5416356746223
  endloop
endfacet
facet normal 0.6228250214980655 -0.7823611650612101 0.0
  outer loop
    vertex 606.6198897030223 304.199512760034 395.5416356746223
    vertex 607.8841483683769 305.20596855767957 395.5416356746223
    vertex 606.6198897030223 304.199512760034 396.5416356746223
  endloop
endfacet
facet normal 0.46350693795508724 -0.8860932899348121 0.0
  outer loop
    vertex 606.6198897030223 304.199512760034 396.5416356746223
    vertex 605.1880048266493 303.4505074554111 396.5416356746223
    vertex 606.6198897030223 304.199512760034 395.5416356746223
  endloop
endfacet
facet normal 0.46350693795508724 -0.8860932899348121 0.0
  outer loop
    vertex 605.1880048266493 303.4505074554111 395.5416356746223
    vertex 606.6198897030223 304.199512760034 395.5416356746223
    vertex 605.1880048266493 303.4505074554111 396.5416356746223
  endloop
endfacet
facet normal 0.28743650601891224 -0.9577996946165935 0.0
  outer loop
    vertex 605.1880048266493 303.4505074554111 396.5416356746223
    vertex 603.6402457894297 302.9860236470344 396.5416356746223
    vertex 605.1880048266493 303.4505074554111 395.5416356746223
  endloop
endfacet
facet normal 0.28743650601891224 -0.9577996946165935 0.0
  outer loop
    vertex 603.6402457894297 302.9860236470344 395.5416356746223
    vertex 605.1880048266493 303.4505074554111 395.5416356746223
    vertex 603.6402457894297 302.9860236470344 396.5416356746223
  endloop
endfacet
facet normal 0.10097736984667822 -0.9948887228121783 0.0
  outer loop
    vertex 603.6402457894297 302.9860236470344 396.5416356746223
    vertex 602.0325526356157 302.8228489899393 396.5416356746223
    vertex 603.6402457894297 302.9860236470344 395.5416356746223
  endloop
endfacet
facet normal 0.10097736984667822 -0.9948887228121783 0.0
  outer loop
    vertex 602.0325526356157 302.8228489899393 395.5416356746223
    vertex 603.6402457894297 302.9860236470344 395.5416356746223
    vertex 602.0325526356157 302.8228489899393 396.5416356746223
  endloop
endfacet
facet normal -0.0891313515657765 -0.996019880408046 -0.0
  outer loop
    vertex 602.0325526356157 302.8228489899393 396.5416356746223
    vertex 600.4230315845895 302.96688104138065 396.5416356746223
    vertex 602.0325526356157 302.8228489899393 395.5416356746223
  endloop
endfacet
facet normal -0.0891313515657765 -0.996019880408046 -0.0
  outer loop
    vertex 600.4230315845895 302.96688104138065 395.5416356746223
    vertex 602.0325526356157 302.8228489899393 395.5416356746223
    vertex 600.4230315845895 302.96688104138065 396.5416356746223
  endloop
endfacet
facet normal -0.2760186337031948 -0.9611522844214758 -0.0
  outer loop
    vertex 600.4230315845895 302.96688104138065 396.5416356746223
    vertex 598.8698549207015 303.41291410774755 396.5416356746223
    vertex 600.4230315845895 302.96688104138065 395.5416356746223
  endloop
endfacet
facet normal -0.2760186337031948 -0.9611522844214758 -0.0
  outer loop
    vertex 598.8698549207015 303.41291410774755 395.5416356746223
    vertex 600.4230315845895 302.96688104138065 395.5416356746223
    vertex 598.8698549207015 303.41291410774755 396.5416356746223
  endloop
endfacet
facet normal -0.4529298832589756 -0.8915461406180899 -0.0
  outer loop
    vertex 598.8698549207015 303.41291410774755 396.5416356746223
    vertex 597.4291584953469 304.14482739189356 396.5416356746223
    vertex 598.8698549207015 303.41291410774755 395.5416356746223
  endloop
endfacet
facet normal -0.4529298832589756 -0.8915461406180899 -0.0
  outer loop
    vertex 597.4291584953469 304.14482739189356 395.5416356746223
    vertex 598.8698549207015 303.41291410774755 395.5416356746223
    vertex 597.4291584953469 304.14482739189356 396.5416356746223
  endloop
endfacet
facet normal -0.6134710667365673 -0.78971719639191 -0.0
  outer loop
    vertex 597.4291584953469 304.14482739189356 396.5416356746223
    vertex 596.153012831036 305.13616764074834 396.5416356746223
    vertex 597.4291584953469 304.14482739189356 395.5416356746223
  endloop
endfacet
facet normal -0.6134710667365673 -0.78971719639191 -0.0
  outer loop
    vertex 596.153012831036 305.13616764074834 395.5416356746223
    vertex 597.4291584953469 304.14482739189356 395.5416356746223
    vertex 596.153012831036 305.13616764074834 396.5416356746223
  endloop
endfacet
facet normal -0.7518398074789885 -0.6593458151000562 -0.0
  outer loop
    vertex 596.153012831036 305.13616764074834 395.5416356746223
    vertex 596.153012831036 305.13616764074834 396.5416356746223
    vertex 595.0875411570421 306.35110523480637 395.5416356746223
  endloop
endfacet
facet normal -0.7518398074789885 -0.6593458151000562 -0.0
  outer loop
    vertex 595.0875411570421 306.35110523480637 396.5416356746223
    vertex 595.0875411570421 306.35110523480637 395.5416356746223
    vertex 596.153012831036 305.13616764074834 396.5416356746223
  endloop
endfacet
facet normal -0.8630350986795745 -0.5051439581417729 -0.0
  outer loop
    vertex 595.0875411570421 306.35110523480637 395.5416356746223
    vertex 595.0875411570421 306.35110523480637 396.5416356746223
    vertex 594.2712523957226 307.74572916392935 395.5416356746223
  endloop
endfacet
facet normal -0.8630350986795745 -0.5051439581417729 -0.0
  outer loop
    vertex 594.2712523957226 307.74572916392935 396.5416356746223
    vertex 594.2712523957226 307.74572916392935 395.5416356746223
    vertex 595.0875411570421 306.35110523480637 396.5416356746223
  endloop
endfacet
facet normal -0.9430380527979113 -0.3326848823964266 -0.0
  outer loop
    vertex 594.2712523957226 307.74572916392935 395.5416356746223
    vertex 594.2712523957226 307.74572916392935 396.5416356746223
    vertex 593.7336493497313 309.26963408566155 395.5416356746223
  endloop
endfacet
facet normal -0.9430380527979113 -0.3326848823964266 -0.0
  outer loop
    vertex 593.7336493497313 309.26963408566155 396.5416356746223
    vertex 593.7336493497313 309.26963408566155 395.5416356746223
    vertex 594.2712523957226 307.74572916392935 396.5416356746223
  endloop
endfacet
facet normal -0.9889571546264356 -0.1482017081992802 -0.0
  outer loop
    vertex 593.7336493497313 309.26963408566155 395.5416356746223
    vertex 593.7336493497313 309.26963408566155 396.5416356746223
    vertex 593.4941623938615 310.8677421056362 395.5416356746223
  endloop
endfacet
facet normal -0.9889571546264356 -0.1482017081992802 -0.0
  outer loop
    vertex 593.4941623938615 310.8677421056362 396.5416356746223
    vertex 593.4941623938615 310.8677421056362 395.5416356746223
    vertex 593.7336493497313 309.26963408566155 396.5416356746223
  endloop
endfacet
facet normal -0.999132768184023 0.04163786186791626 0.0
  outer loop
    vertex 593.4941623938615 310.8677421056362 395.5416356746223
    vertex 593.4941623938615 310.8677421056362 396.5416356746223
    vertex 593.5614472106753 312.48229343618135 395.5416356746223
  endloop
endfacet
facet normal -0.999132768184023 0.04163786186791626 0.0
  outer loop
    vertex 593.5614472106753 312.48229343618135 396.5416356746223
    vertex 593.5614472106753 312.48229343618135 395.5416356746223
    vertex 593.4941623938615 310.8677421056362 396.5416356746223
  endloop
endfacet
facet normal -0.9731971202843904 0.22997253112093624 0.0
  outer loop
    vertex 593.5614472106753 312.48229343618135 395.5416356746223
    vertex 593.5614472106753 312.48229343618135 396.5416356746223
    vertex 593.9330719515843 314.0549339855388 395.5416356746223
  endloop
endfacet
facet normal -0.9731971202843904 0.22997253112093624 0.0
  outer loop
    vertex 593.9330719515843 314.0549339855388 396.5416356746223
    vertex 593.9330719515843 314.0549339855388 395.5416356746223
    vertex 593.5614472106753 312.48229343618135 396.5416356746223
  endloop
endfacet
facet normal -0.9120875928173413 0.4099953939115265 0.0
  outer loop
    vertex 593.9330719515843 314.0549339855388 395.5416356746223
    vertex 593.9330719515843 314.0549339855388 396.5416356746223
    vertex 594.5956051301932 315.52882442677964 395.5416356746223
  endloop
endfacet
facet normal -0.9120875928173413 0.4099953939115265 0.0
  outer loop
    vertex 594.5956051301932 315.52882442677964 396.5416356746223
    vertex 594.5956051301932 315.52882442677964 395.5416356746223
    vertex 593.9330719515843 314.0549339855388 396.5416356746223
  endloop
endfacet
facet normal -0.8180128433248215 0.5751999549336224 0.0
  outer loop
    vertex 594.5956051301932 315.52882442677964 395.5416356746223
    vertex 594.5956051301932 315.52882442677964 396.5416356746223
    vertex 595.5251010712137 316.85069451917354 395.5416356746223
  endloop
endfacet
facet normal -0.8180128433248215 0.5751999549336224 0.0
  outer loop
    vertex 595.5251010712137 316.85069451917354 396.5416356746223
    vertex 595.5251010712137 316.85069451917354 395.5416356746223
    vertex 594.5956051301932 315.52882442677964 396.5416356746223
  endloop
endfacet
facet normal -0.694372978362898 0.719615290915527 0.0
  outer loop
    vertex 595.5251010712137 316.85069451917354 396.5416356746223
    vertex 596.6879653695592 317.9727684334823 396.5416356746223
    vertex 595.5251010712137 316.85069451917354 395.5416356746223
  endloop
endfacet
facet normal -0.694372978362898 0.719615290915527 0.0
  outer loop
    vertex 596.6879653695592 317.9727684334823 395.5416356746223
    vertex 595.5251010712137 316.85069451917354 395.5416356746223
    vertex 596.6879653695592 317.9727684334823 396.5416356746223
  endloop
endfacet
facet normal -0.5456366647916937 0.8380218553444755 0.0
  outer loop
    vertex 596.6879653695592 317.9727684334823 396.5416356746223
    vertex 598.0421690796743 318.85449149490773 396.5416356746223
    vertex 596.6879653695592 317.9727684334823 395.5416356746223
  endloop
endfacet
facet normal -0.5456366647916937 0.8380218553444755 0.0
  outer loop
    vertex 598.0421690796743 318.85449149490773 395.5416356746223
    vertex 596.6879653695592 317.9727684334823 395.5416356746223
    vertex 598.0421690796743 318.85449149490773 396.5416356746223
  endloop
endfacet
facet normal -0.3771796205125211 0.9261401264765665 0.0
  outer loop
    vertex 598.0421690796743 318.85449149490773 396.5416356746223
    vertex 599.538767751132 319.46399593470295 396.5416356746223
    vertex 598.0421690796743 318.85449149490773 395.5416356746223
  endloop
endfacet
facet normal -0.3771796205125211 0.9261401264765665 0.0
  outer loop
    vertex 599.538767751132 319.46399593470295 395.5416356746223
    vertex 598.0421690796743 318.85449149490773 395.5416356746223
    vertex 599.538767751132 319.46399593470295 396.5416356746223
  endloop
endfacet
facet normal -0.19509032201614487 0.9807852804032272 0.0
  outer loop
    vertex 599.538767751132 319.46399593470295 396.5416356746223
    vertex 601.1236704085959 319.7792526743654 396.5416356746223
    vertex 599.538767751132 319.46399593470295 395.5416356746223
  endloop
endfacet
facet normal -0.19509032201614487 0.9807852804032272 0.0
  outer loop
    vertex 601.1236704085959 319.7792526743654 395.5416356746223
    vertex 599.538767751132 319.46399593470295 395.5416356746223
    vertex 601.1236704085959 319.7792526743654 396.5416356746223
  endloop
endfacet
facet normal -0.005949950979140633 0.9999822988850082 0.0
  outer loop
    vertex 601.1236704085959 319.7792526743654 396.5416356746223
    vertex 602.7395945406018 319.78886751393026 396.5416356746223
    vertex 601.1236704085959 319.7792526743654 395.5416356746223
  endloop
endfacet
facet normal -0.005949950979140633 0.9999822988850082 0.0
  outer loop
    vertex 602.7395945406018 319.78886751393026 395.5416356746223
    vertex 601.1236704085959 319.7792526743654 395.5416356746223
    vertex 602.7395945406018 319.78886751393026 396.5416356746223
  endloop
endfacet
facet normal 0.18340546678862027 0.9830373516566135 0.0
  outer loop
    vertex 602.7395945406018 319.78886751393026 396.5416356746223
    vertex 604.3281364387697 319.49249294804446 396.5416356746223
    vertex 602.7395945406018 319.78886751393026 395.5416356746223
  endloop
endfacet
facet normal 0.18340546678862027 0.9830373516566135 0.0
  outer loop
    vertex 604.3281364387697 319.49249294804446 395.5416356746223
    vertex 602.7395945406018 319.78886751393026 395.5416356746223
    vertex 604.3281364387697 319.49249294804446 396.5416356746223
  endloop
endfacet
facet normal 0.3661321331283589 0.9305628732605217 0.0
  outer loop
    vertex 604.3281364387697 319.49249294804446 396.5416356746223
    vertex 605.8318820599943 318.9008407257155 396.5416356746223
    vertex 604.3281364387697 319.49249294804446 395.5416356746223
  endloop
endfacet
facet normal 0.3661321331283589 0.9305628732605217 0.0
  outer loop
    vertex 605.8318820599943 318.9008407257155 395.5416356746223
    vertex 604.3281364387697 319.49249294804446 395.5416356746223
    vertex 605.8318820599943 318.9008407257155 396.5416356746223
  endloop
endfacet
facet normal 0.5356258302289385 0.8444554280668461 0.0
  outer loop
    vertex 605.8318820599943 318.9008407257155 396.5416356746223
    vertex 607.1964821195535 318.03529469979316 396.5416356746223
    vertex 605.8318820599943 318.9008407257155 395.5416356746223
  endloop
endfacet
facet normal 0.5356258302289385 0.8444554280668461 0.0
  outer loop
    vertex 607.1964821195535 318.03529469979316 395.5416356746223
    vertex 605.8318820599943 318.9008407257155 395.5416356746223
    vertex 607.1964821195535 318.03529469979316 396.5416356746223
  endloop
endfacet
facet normal 0.6857606142654716 0.7278271634957321 0.0
  outer loop
    vertex 607.1964821195535 318.03529469979316 396.5416356746223
    vertex 608.3726164158641 316.92713795881247 396.5416356746223
    vertex 607.1964821195535 318.03529469979316 395.5416356746223
  endloop
endfacet
facet normal 0.6857606142654716 0.7278271634957321 0.0
  outer loop
    vertex 608.3726164158641 316.92713795881247 395.5416356746223
    vertex 607.1964821195535 318.03529469979316 395.5416356746223
    vertex 608.3726164158641 316.92713795881247 396.5416356746223
  endloop
endfacet
facet normal 0.8111102229706771 0.5848933289006282 0.0
  outer loop
    vertex 609.3177763910693 315.61642217466664 396.5416356746223
    vertex 609.3177763910693 315.61642217466664 395.5416356746223
    vertex 608.3726164158641 316.92713795881247 396.5416356746223
  endloop
endfacet
facet normal 0.8111102229706771 0.5848933289006282 0.0
  outer loop
    vertex 608.3726164158641 316.92713795881247 395.5416356746223
    vertex 608.3726164158641 316.92713795881247 396.5416356746223
    vertex 609.3177763910693 315.61642217466664 395.5416356746223
  endloop
endfacet
facet normal 0.9071441948905816 0.4208199254744466 0.0
  outer loop
    vertex 609.9978015010751 314.15052003083144 396.5416356746223
    vertex 609.9978015010751 314.15052003083144 395.5416356746223
    vertex 609.3177763910693 315.61642217466664 396.5416356746223
  endloop
endfacet
facet normal 0.9071441948905816 0.4208199254744466 0.0
  outer loop
    vertex 609.3177763910693 315.61642217466664 395.5416356746223
    vertex 609.3177763910693 315.61642217466664 396.5416356746223
    vertex 609.9978015010751 314.15052003083144 395.5416356746223
  endloop
endfacet
facet normal 0.9703916120660457 0.24153699350588298 0.0
  outer loop
    vertex 610.3881138666173 312.5824130501559 396.5416356746223
    vertex 610.3881138666173 312.5824130501559 395.5416356746223
    vertex 609.9978015010751 314.15052003083144 396.5416356746223
  endloop
endfacet
facet normal 0.9703916120660457 0.24153699350588298 0.0
  outer loop
    vertex 609.9978015010751 314.15052003083144 395.5416356746223
    vertex 609.9978015010751 314.15052003083144 396.5416356746223
    vertex 610.3881138666173 312.5824130501559 395.5416356746223
  endloop
endfacet
facet normal 0.9985665480507278 0.05352428527363653 0.0
  outer loop
    vertex 610.474606581857 310.96877670458434 396.5416356746223
    vertex 610.474606581857 310.96877670458434 395.5416356746223
    vertex 610.3881138666173 312.5824130501559 396.5416356746223
  endloop
endfacet
facet normal 0.9985665480507278 0.05352428527363653 0.0
  outer loop
    vertex 610.3881138666173 312.5824130501559 395.5416356746223
    vertex 610.3881138666173 312.5824130501559 396.5416356746223
    vertex 610.474606581857 310.96877670458434 395.5416356746223
  endloop
endfacet
endsolid SBOX_XL_2_5
