solid SBOX_XL_2_5
facet normal 0.0 0.0 1.0
  outer loop
    vertex 597.9364918101677 325.0769203540163 403.53843889189403
    vertex 597.7547365660707 327.2433895519806 403.53843889189403
    vertex 597.7030036476901 326.14819068708096 403.53843889189403
  endloop
endfacet
facet normal 0.0 0.0 1.0
  outer loop
    vertex 597.7547365660707 327.2433895519806 403.53843889189403
    vertex 597.9364918101677 325.0769203540163 403.53843889189403
    vertex 598.0881650524144 328.28788095597406 403.53843889189403
  endloop
endfacet
facet normal 0.0 0.0 1.0
  outer loop
    vertex 598.0881650524144 328.28788095597406 403.53843889189403
    vertex 597.9364918101677 325.0769203540163 403.53843889189403
    vertex 598.439289221088 324.102583855627 403.53843889189403
  endloop
endfacet
facet normal 0.0 0.0 1.0
  outer loop
    vertex 598.0881650524144 328.28788095597406 403.53843889189403
    vertex 598.439289221088 324.102583855627 403.53843889189403
    vertex 598.6805665063938 329.2104845359828 403.53843889189403
  endloop
endfacet
facet normal 0.0 0.0 1.0
  outer loop
    vertex 598.6805665063938 329.2104845359828 403.53843889189403
    vertex 598.439289221088 324.102583855627 403.53843889189403
    vertex 599.1771310678089 323.29158061411124 403.53843889189403
  endloop
endfacet
facet normal 0.0 0.0 1.0
  outer loop
    vertex 598.6805665063938 329.2104845359828 403.53843889189403
    vertex 599.1771310678089 323.29158061411124 403.53843889189403
    vertex 599.4915697479096 329.9483263827037 403.53843889189403
  endloop
endfacet
facet normal 0.0 0.0 1.0
  outer loop
    vertex 599.4915697479096 329.9483263827037 403.53843889189403
    vertex 599.1771310678089 323.29158061411124 403.53843889189403
    vertex 599.696002266903 326.3153926721637 403.53843889189403
  endloop
endfacet
facet normal 0.0 0.0 1.0
  outer loop
    vertex 599.696002266903 326.3153926721637 403.53843889189403
    vertex 599.1771310678089 323.29158061411124 403.53843889189403
    vertex 600.0997346478176 322.69917916013185 403.53843889189403
  endloop
endfacet
facet normal 0.0 0.0 1.0
  outer loop
    vertex 599.696002266903 326.3153926721637 403.53843889189403
    vertex 600.0997346478176 322.69917916013185 403.53843889189403
    vertex 599.8183055901055 325.7542510691298 403.53843889189403
  endloop
endfacet
facet normal 0.0 0.0 1.0
  outer loop
    vertex 599.8183055901055 325.7542510691298 403.53843889189403
    vertex 600.0997346478176 322.69917916013185 403.53843889189403
    vertex 600.0816756624923 325.2438843318783 403.53843889189403
  endloop
endfacet
facet normal 0.0 0.0 1.0
  outer loop
    vertex 600.0816756624923 325.2438843318783 403.53843889189403
    vertex 600.0997346478176 322.69917916013185 403.53843889189403
    vertex 600.46816424887 324.81907311013185 403.53843889189403
  endloop
endfacet
facet normal 0.0 0.0 1.0
  outer loop
    vertex 600.46816424887 324.81907311013185 403.53843889189403
    vertex 600.0997346478176 322.69917916013185 403.53843889189403
    vertex 601.1442260518111 322.36575067378806 403.53843889189403
  endloop
endfacet
facet normal 0.0 0.0 1.0
  outer loop
    vertex 600.46816424887 324.81907311013185 403.53843889189403
    vertex 601.1442260518111 322.36575067378806 403.53843889189403
    vertex 600.9514327907793 324.5087675866189 403.53843889189403
  endloop
endfacet
facet normal 0.0 0.0 1.0
  outer loop
    vertex 600.9514327907793 324.5087675866189 403.53843889189403
    vertex 601.1442260518111 322.36575067378806 403.53843889189403
    vertex 601.4985473357283 324.3341145699626 403.53843889189403
  endloop
endfacet
facet normal 0.0 0.0 1.0
  outer loop
    vertex 601.4985473357283 324.3341145699626 403.53843889189403
    vertex 601.1442260518111 322.36575067378806 403.53843889189403
    vertex 602.2394249167107 322.31401775540746 403.53843889189403
  endloop
endfacet
facet normal 0.0 0.0 1.0
  outer loop
    vertex 601.4985473357283 324.3341145699626 403.53843889189403
    vertex 602.2394249167107 322.31401775540746 403.53843889189403
    vertex 602.0722229316281 324.30701637462045 403.53843889189403
  endloop
endfacet
facet normal 0.0 0.0 1.0
  outer loop
    vertex 602.0722229316281 324.30701637462045 403.53843889189403
    vertex 602.2394249167107 322.31401775540746 403.53843889189403
    vertex 602.633364534662 324.429319697823 403.53843889189403
  endloop
endfacet
facet normal 0.0 0.0 1.0
  outer loop
    vertex 602.633364534662 324.429319697823 403.53843889189403
    vertex 602.2394249167107 322.31401775540746 403.53843889189403
    vertex 603.3106952497754 322.547505917885 403.53843889189403
  endloop
endfacet
facet normal 0.0 0.0 1.0
  outer loop
    vertex 602.633364534662 324.429319697823 403.53843889189403
    vertex 603.3106952497754 322.547505917885 403.53843889189403
    vertex 603.1437312719136 324.6926897702098 403.53843889189403
  endloop
endfacet
facet normal 0.0 0.0 1.0
  outer loop
    vertex 603.1437312719136 324.6926897702098 403.53843889189403
    vertex 603.3106952497754 322.547505917885 403.53843889189403
    vertex 603.56854249366 325.0791783565875 403.53843889189403
  endloop
endfacet
facet normal 0.0 0.0 1.0
  outer loop
    vertex 603.56854249366 325.0791783565875 403.53843889189403
    vertex 603.3106952497754 322.547505917885 403.53843889189403
    vertex 604.2850317481648 323.05030332880546 403.53843889189403
  endloop
endfacet
facet normal 0.0 0.0 1.0
  outer loop
    vertex 603.56854249366 325.0791783565875 403.53843889189403
    vertex 604.2850317481648 323.05030332880546 403.53843889189403
    vertex 603.8788480171729 325.5624468984968 403.53843889189403
  endloop
endfacet
facet normal 0.0 0.0 1.0
  outer loop
    vertex 603.8788480171729 325.5624468984968 403.53843889189403
    vertex 604.2850317481648 323.05030332880546 403.53843889189403
    vertex 604.0535010338291 326.1095614434457 403.53843889189403
  endloop
endfacet
facet normal 0.0 0.0 1.0
  outer loop
    vertex 604.0535010338291 326.1095614434457 403.53843889189403
    vertex 604.2850317481648 323.05030332880546 403.53843889189403
    vertex 604.0805992291713 326.6832370393455 403.53843889189403
  endloop
endfacet
facet normal 0.0 0.0 1.0
  outer loop
    vertex 599.4915697479096 329.9483263827037 403.53843889189403
    vertex 599.7231004622452 326.88906826806345 403.53843889189403
    vertex 600.4659062462988 330.4511237936241 403.53843889189403
  endloop
endfacet
facet normal 0.0 0.0 1.0
  outer loop
    vertex 599.7231004622452 326.88906826806345 403.53843889189403
    vertex 599.4915697479096 329.9483263827037 403.53843889189403
    vertex 599.696002266903 326.3153926721637 403.53843889189403
  endloop
endfacet
facet normal 0.0 0.0 1.0
  outer loop
    vertex 600.4659062462988 330.4511237936241 403.53843889189403
    vertex 599.7231004622452 326.88906826806345 403.53843889189403
    vertex 599.8977534789014 327.4361828130124 403.53843889189403
  endloop
endfacet
facet normal 0.0 0.0 1.0
  outer loop
    vertex 600.4659062462988 330.4511237936241 403.53843889189403
    vertex 599.8977534789014 327.4361828130124 403.53843889189403
    vertex 600.2080590024144 327.9194513549217 403.53843889189403
  endloop
endfacet
facet normal 0.0 0.0 1.0
  outer loop
    vertex 600.4659062462988 330.4511237936241 403.53843889189403
    vertex 600.2080590024144 327.9194513549217 403.53843889189403
    vertex 600.6328702241608 328.30593994129936 403.53843889189403
  endloop
endfacet
facet normal 0.0 0.0 1.0
  outer loop
    vertex 600.4659062462988 330.4511237936241 403.53843889189403
    vertex 600.6328702241608 328.30593994129936 403.53843889189403
    vertex 601.5371765793636 330.68461195610166 403.53843889189403
  endloop
endfacet
facet normal 0.0 0.0 1.0
  outer loop
    vertex 601.5371765793636 330.68461195610166 403.53843889189403
    vertex 600.6328702241608 328.30593994129936 403.53843889189403
    vertex 601.1432369614123 328.56931001368616 403.53843889189403
  endloop
endfacet
facet normal 0.0 0.0 1.0
  outer loop
    vertex 601.5371765793636 330.68461195610166 403.53843889189403
    vertex 601.1432369614123 328.56931001368616 403.53843889189403
    vertex 601.7043785644462 328.69161333688874 403.53843889189403
  endloop
endfacet
facet normal 0.0 0.0 1.0
  outer loop
    vertex 601.5371765793636 330.68461195610166 403.53843889189403
    vertex 601.7043785644462 328.69161333688874 403.53843889189403
    vertex 602.6323754442632 330.63287903772107 403.53843889189403
  endloop
endfacet
facet normal 0.0 0.0 1.0
  outer loop
    vertex 602.6323754442632 330.63287903772107 403.53843889189403
    vertex 601.7043785644462 328.69161333688874 403.53843889189403
    vertex 602.2780541603461 328.6645151415466 403.53843889189403
  endloop
endfacet
facet normal 0.0 0.0 1.0
  outer loop
    vertex 602.6323754442632 330.63287903772107 403.53843889189403
    vertex 602.2780541603461 328.6645151415466 403.53843889189403
    vertex 602.825168705295 328.48986212489024 403.53843889189403
  endloop
endfacet
facet normal 0.0 0.0 1.0
  outer loop
    vertex 602.6323754442632 330.63287903772107 403.53843889189403
    vertex 602.825168705295 328.48986212489024 403.53843889189403
    vertex 603.6768668482566 330.29945055137733 403.53843889189403
  endloop
endfacet
facet normal 0.0 0.0 1.0
  outer loop
    vertex 603.6768668482566 330.29945055137733 403.53843889189403
    vertex 602.825168705295 328.48986212489024 403.53843889189403
    vertex 603.3084372472043 328.17955660137727 403.53843889189403
  endloop
endfacet
facet normal 0.0 0.0 1.0
  outer loop
    vertex 603.6768668482566 330.29945055137733 403.53843889189403
    vertex 603.3084372472043 328.17955660137727 403.53843889189403
    vertex 603.6949258335819 327.7547453796309 403.53843889189403
  endloop
endfacet
facet normal 0.0 0.0 1.0
  outer loop
    vertex 603.6768668482566 330.29945055137733 403.53843889189403
    vertex 603.6949258335819 327.7547453796309 403.53843889189403
    vertex 604.5994704282654 329.70704909739794 403.53843889189403
  endloop
endfacet
facet normal 0.0 0.0 1.0
  outer loop
    vertex 604.5994704282654 329.70704909739794 403.53843889189403
    vertex 603.6949258335819 327.7547453796309 403.53843889189403
    vertex 603.9582959059688 327.2443786423794 403.53843889189403
  endloop
endfacet
facet normal 0.0 0.0 1.0
  outer loop
    vertex 604.5994704282654 329.70704909739794 403.53843889189403
    vertex 603.9582959059688 327.2443786423794 403.53843889189403
    vertex 604.0805992291713 326.6832370393455 403.53843889189403
  endloop
endfacet
facet normal 0.0 0.0 1.0
  outer loop
    vertex 604.5994704282654 329.70704909739794 403.53843889189403
    vertex 604.0805992291713 326.6832370393455 403.53843889189403
    vertex 604.2850317481648 323.05030332880546 403.53843889189403
  endloop
endfacet
facet normal 0.0 0.0 1.0
  outer loop
    vertex 604.5994704282654 329.70704909739794 403.53843889189403
    vertex 604.2850317481648 323.05030332880546 403.53843889189403
    vertex 605.0960349896806 323.7881451755264 403.53843889189403
  endloop
endfacet
facet normal 0.0 0.0 1.0
  outer loop
    vertex 604.5994704282654 329.70704909739794 403.53843889189403
    vertex 605.0960349896806 323.7881451755264 403.53843889189403
    vertex 605.3373122749862 328.8960458558821 403.53843889189403
  endloop
endfacet
facet normal 0.0 0.0 1.0
  outer loop
    vertex 605.3373122749862 328.8960458558821 403.53843889189403
    vertex 605.0960349896806 323.7881451755264 403.53843889189403
    vertex 605.6884364436598 324.7107487555351 403.53843889189403
  endloop
endfacet
facet normal 0.0 0.0 1.0
  outer loop
    vertex 605.3373122749862 328.8960458558821 403.53843889189403
    vertex 605.6884364436598 324.7107487555351 403.53843889189403
    vertex 605.8401096859067 327.9217093574929 403.53843889189403
  endloop
endfacet
facet normal 0.0 0.0 1.0
  outer loop
    vertex 605.8401096859067 327.9217093574929 403.53843889189403
    vertex 605.6884364436598 324.7107487555351 403.53843889189403
    vertex 606.0218649300037 325.75524015952857 403.53843889189403
  endloop
endfacet
facet normal 0.0 0.0 1.0
  outer loop
    vertex 605.8401096859067 327.9217093574929 403.53843889189403
    vertex 606.0218649300037 325.75524015952857 403.53843889189403
    vertex 606.0735978483842 326.8504390244282 403.53843889189403
  endloop
endfacet
facet normal -0.0 -0.0 -1.0
  outer loop
    vertex 599.4915697479096 329.9483263827037 394.5384388918941
    vertex 599.7231004622452 326.88906826806345 394.5384388918941
    vertex 599.696002266903 326.3153926721637 394.5384388918941
  endloop
endfacet
facet normal -0.0 -0.0 -1.0
  outer loop
    vertex 599.7231004622452 326.88906826806345 394.5384388918941
    vertex 599.4915697479096 329.9483263827037 394.5384388918941
    vertex 600.4659062462988 330.4511237936241 394.5384388918941
  endloop
endfacet
facet normal -0.0 -0.0 -1.0
  outer loop
    vertex 599.7231004622452 326.88906826806345 394.5384388918941
    vertex 600.4659062462988 330.4511237936241 394.5384388918941
    vertex 599.8977534789014 327.4361828130124 394.5384388918941
  endloop
endfacet
facet normal -0.0 -0.0 -1.0
  outer loop
    vertex 599.8977534789014 327.4361828130124 394.5384388918941
    vertex 600.4659062462988 330.4511237936241 394.5384388918941
    vertex 600.2080590024144 327.9194513549217 394.5384388918941
  endloop
endfacet
facet normal -0.0 -0.0 -1.0
  outer loop
    vertex 600.2080590024144 327.9194513549217 394.5384388918941
    vertex 600.4659062462988 330.4511237936241 394.5384388918941
    vertex 600.6328702241608 328.30593994129936 394.5384388918941
  endloop
endfacet
facet normal -0.0 -0.0 -1.0
  outer loop
    vertex 600.6328702241608 328.30593994129936 394.5384388918941
    vertex 600.4659062462988 330.4511237936241 394.5384388918941
    vertex 601.5371765793636 330.68461195610166 394.5384388918941
  endloop
endfacet
facet normal -0.0 -0.0 -1.0
  outer loop
    vertex 600.6328702241608 328.30593994129936 394.5384388918941
    vertex 601.5371765793636 330.68461195610166 394.5384388918941
    vertex 601.1432369614123 328.56931001368616 394.5384388918941
  endloop
endfacet
facet normal -0.0 -0.0 -1.0
  outer loop
    vertex 601.1432369614123 328.56931001368616 394.5384388918941
    vertex 601.5371765793636 330.68461195610166 394.5384388918941
    vertex 601.7043785644462 328.69161333688874 394.5384388918941
  endloop
endfacet
facet normal -0.0 -0.0 -1.0
  outer loop
    vertex 601.7043785644462 328.69161333688874 394.5384388918941
    vertex 601.5371765793636 330.68461195610166 394.5384388918941
    vertex 602.6323754442632 330.63287903772107 394.5384388918941
  endloop
endfacet
facet normal -0.0 -0.0 -1.0
  outer loop
    vertex 601.7043785644462 328.69161333688874 394.5384388918941
    vertex 602.6323754442632 330.63287903772107 394.5384388918941
    vertex 602.2780541603461 328.6645151415466 394.5384388918941
  endloop
endfacet
facet normal -0.0 -0.0 -1.0
  outer loop
    vertex 602.2780541603461 328.6645151415466 394.5384388918941
    vertex 602.6323754442632 330.63287903772107 394.5384388918941
    vertex 602.825168705295 328.48986212489024 394.5384388918941
  endloop
endfacet
facet normal -0.0 -0.0 -1.0
  outer loop
    vertex 602.825168705295 328.48986212489024 394.5384388918941
    vertex 602.6323754442632 330.63287903772107 394.5384388918941
    vertex 603.6768668482566 330.29945055137733 394.5384388918941
  endloop
endfacet
facet normal -0.0 -0.0 -1.0
  outer loop
    vertex 602.825168705295 328.48986212489024 394.5384388918941
    vertex 603.6768668482566 330.29945055137733 394.5384388918941
    vertex 603.3084372472043 328.17955660137727 394.5384388918941
  endloop
endfacet
facet normal -0.0 -0.0 -1.0
  outer loop
    vertex 603.3084372472043 328.17955660137727 394.5384388918941
    vertex 603.6768668482566 330.29945055137733 394.5384388918941
    vertex 603.6949258335819 327.7547453796309 394.5384388918941
  endloop
endfacet
facet normal -0.0 -0.0 -1.0
  outer loop
    vertex 603.6949258335819 327.7547453796309 394.5384388918941
    vertex 603.6768668482566 330.29945055137733 394.5384388918941
    vertex 604.5994704282654 329.70704909739794 394.5384388918941
  endloop
endfacet
facet normal -0.0 -0.0 -1.0
  outer loop
    vertex 603.6949258335819 327.7547453796309 394.5384388918941
    vertex 604.5994704282654 329.70704909739794 394.5384388918941
    vertex 603.9582959059688 327.2443786423794 394.5384388918941
  endloop
endfacet
facet normal -0.0 -0.0 -1.0
  outer loop
    vertex 603.9582959059688 327.2443786423794 394.5384388918941
    vertex 604.5994704282654 329.70704909739794 394.5384388918941
    vertex 604.0805992291713 326.6832370393455 394.5384388918941
  endloop
endfacet
facet normal -0.0 -0.0 -1.0
  outer loop
    vertex 604.0805992291713 326.6832370393455 394.5384388918941
    vertex 604.5994704282654 329.70704909739794 394.5384388918941
    vertex 604.2850317481648 323.05030332880546 394.5384388918941
  endloop
endfacet
facet normal -0.0 -0.0 -1.0
  outer loop
    vertex 604.2850317481648 323.05030332880546 394.5384388918941
    vertex 604.5994704282654 329.70704909739794 394.5384388918941
    vertex 605.0960349896806 323.7881451755264 394.5384388918941
  endloop
endfacet
facet normal -0.0 -0.0 -1.0
  outer loop
    vertex 605.0960349896806 323.7881451755264 394.5384388918941
    vertex 604.5994704282654 329.70704909739794 394.5384388918941
    vertex 605.3373122749862 328.8960458558821 394.5384388918941
  endloop
endfacet
facet normal -0.0 -0.0 -1.0
  outer loop
    vertex 605.0960349896806 323.7881451755264 394.5384388918941
    vertex 605.3373122749862 328.8960458558821 394.5384388918941
    vertex 605.6884364436598 324.7107487555351 394.5384388918941
  endloop
endfacet
facet normal -0.0 -0.0 -1.0
  outer loop
    vertex 605.6884364436598 324.7107487555351 394.5384388918941
    vertex 605.3373122749862 328.8960458558821 394.5384388918941
    vertex 605.8401096859067 327.9217093574929 394.5384388918941
  endloop
endfacet
facet normal -0.0 -0.0 -1.0
  outer loop
    vertex 605.6884364436598 324.7107487555351 394.5384388918941
    vertex 605.8401096859067 327.9217093574929 394.5384388918941
    vertex 606.0218649300037 325.75524015952857 394.5384388918941
  endloop
endfacet
facet normal -0.0 -0.0 -1.0
  outer loop
    vertex 606.0218649300037 325.75524015952857 394.5384388918941
    vertex 605.8401096859067 327.9217093574929 394.5384388918941
    vertex 606.0735978483842 326.8504390244282 394.5384388918941
  endloop
endfacet
facet normal -0.0 -0.0 -1.0
  outer loop
    vertex 597.7547365660707 327.2433895519806 394.5384388918941
    vertex 597.9364918101677 325.0769203540163 394.5384388918941
    vertex 597.7030036476901 326.14819068708096 394.5384388918941
  endloop
endfacet
facet normal -0.0 -0.0 -1.0
  outer loop
    vertex 597.9364918101677 325.0769203540163 394.5384388918941
    vertex 597.7547365660707 327.2433895519806 394.5384388918941
    vertex 598.0881650524144 328.28788095597406 394.5384388918941
  endloop
endfacet
facet normal -0.0 -0.0 -1.0
  outer loop
    vertex 597.9364918101677 325.0769203540163 394.5384388918941
    vertex 598.0881650524144 328.28788095597406 394.5384388918941
    vertex 598.439289221088 324.102583855627 394.5384388918941
  endloop
endfacet
facet normal -0.0 -0.0 -1.0
  outer loop
    vertex 598.439289221088 324.102583855627 394.5384388918941
    vertex 598.0881650524144 328.28788095597406 394.5384388918941
    vertex 598.6805665063938 329.2104845359828 394.5384388918941
  endloop
endfacet
facet normal -0.0 -0.0 -1.0
  outer loop
    vertex 598.439289221088 324.102583855627 394.5384388918941
    vertex 598.6805665063938 329.2104845359828 394.5384388918941
    vertex 599.1771310678089 323.29158061411124 394.5384388918941
  endloop
endfacet
facet normal -0.0 -0.0 -1.0
  outer loop
    vertex 599.1771310678089 323.29158061411124 394.5384388918941
    vertex 598.6805665063938 329.2104845359828 394.5384388918941
    vertex 599.4915697479096 329.9483263827037 394.5384388918941
  endloop
endfacet
facet normal -0.0 -0.0 -1.0
  outer loop
    vertex 599.1771310678089 323.29158061411124 394.5384388918941
    vertex 599.4915697479096 329.9483263827037 394.5384388918941
    vertex 599.696002266903 326.3153926721637 394.5384388918941
  endloop
endfacet
facet normal -0.0 -0.0 -1.0
  outer loop
    vertex 599.1771310678089 323.29158061411124 394.5384388918941
    vertex 599.696002266903 326.3153926721637 394.5384388918941
    vertex 600.0997346478176 322.69917916013185 394.5384388918941
  endloop
endfacet
facet normal -0.0 -0.0 -1.0
  outer loop
    vertex 600.0997346478176 322.69917916013185 394.5384388918941
    vertex 599.696002266903 326.3153926721637 394.5384388918941
    vertex 599.8183055901055 325.7542510691298 394.5384388918941
  endloop
endfacet
facet normal -0.0 -0.0 -1.0
  outer loop
    vertex 600.0997346478176 322.69917916013185 394.5384388918941
    vertex 599.8183055901055 325.7542510691298 394.5384388918941
    vertex 600.0816756624923 325.2438843318783 394.5384388918941
  endloop
endfacet
facet normal -0.0 -0.0 -1.0
  outer loop
    vertex 600.0997346478176 322.69917916013185 394.5384388918941
    vertex 600.0816756624923 325.2438843318783 394.5384388918941
    vertex 600.46816424887 324.81907311013185 394.5384388918941
  endloop
endfacet
facet normal -0.0 -0.0 -1.0
  outer loop
    vertex 600.0997346478176 322.69917916013185 394.5384388918941
    vertex 600.46816424887 324.81907311013185 394.5384388918941
    vertex 601.1442260518111 322.36575067378806 394.5384388918941
  endloop
endfacet
facet normal -0.0 -0.0 -1.0
  outer loop
    vertex 601.1442260518111 322.36575067378806 394.5384388918941
    vertex 600.46816424887 324.81907311013185 394.5384388918941
    vertex 600.9514327907793 324.5087675866189 394.5384388918941
  endloop
endfacet
facet normal -0.0 -0.0 -1.0
  outer loop
    vertex 601.1442260518111 322.36575067378806 394.5384388918941
    vertex 600.9514327907793 324.5087675866189 394.5384388918941
    vertex 601.4985473357283 324.3341145699626 394.5384388918941
  endloop
endfacet
facet normal -0.0 -0.0 -1.0
  outer loop
    vertex 601.1442260518111 322.36575067378806 394.5384388918941
    vertex 601.4985473357283 324.3341145699626 394.5384388918941
    vertex 602.2394249167107 322.31401775540746 394.5384388918941
  endloop
endfacet
facet normal -0.0 -0.0 -1.0
  outer loop
    vertex 602.2394249167107 322.31401775540746 394.5384388918941
    vertex 601.4985473357283 324.3341145699626 394.5384388918941
    vertex 602.0722229316281 324.30701637462045 394.5384388918941
  endloop
endfacet
facet normal -0.0 -0.0 -1.0
  outer loop
    vertex 602.2394249167107 322.31401775540746 394.5384388918941
    vertex 602.0722229316281 324.30701637462045 394.5384388918941
    vertex 602.633364534662 324.429319697823 394.5384388918941
  endloop
endfacet
facet normal -0.0 -0.0 -1.0
  outer loop
    vertex 602.2394249167107 322.31401775540746 394.5384388918941
    vertex 602.633364534662 324.429319697823 394.5384388918941
    vertex 603.3106952497754 322.547505917885 394.5384388918941
  endloop
endfacet
facet normal -0.0 -0.0 -1.0
  outer loop
    vertex 603.3106952497754 322.547505917885 394.5384388918941
    vertex 602.633364534662 324.429319697823 394.5384388918941
    vertex 603.1437312719136 324.6926897702098 394.5384388918941
  endloop
endfacet
facet normal -0.0 -0.0 -1.0
  outer loop
    vertex 603.3106952497754 322.547505917885 394.5384388918941
    vertex 603.1437312719136 324.6926897702098 394.5384388918941
    vertex 603.56854249366 325.0791783565875 394.5384388918941
  endloop
endfacet
facet normal -0.0 -0.0 -1.0
  outer loop
    vertex 603.3106952497754 322.547505917885 394.5384388918941
    vertex 603.56854249366 325.0791783565875 394.5384388918941
    vertex 604.2850317481648 323.05030332880546 394.5384388918941
  endloop
endfacet
facet normal -0.0 -0.0 -1.0
  outer loop
    vertex 604.2850317481648 323.05030332880546 394.5384388918941
    vertex 603.56854249366 325.0791783565875 394.5384388918941
    vertex 603.8788480171729 325.5624468984968 394.5384388918941
  endloop
endfacet
facet normal -0.0 -0.0 -1.0
  outer loop
    vertex 604.2850317481648 323.05030332880546 394.5384388918941
    vertex 603.8788480171729 325.5624468984968 394.5384388918941
    vertex 604.0535010338291 326.1095614434457 394.5384388918941
  endloop
endfacet
facet normal -0.0 -0.0 -1.0
  outer loop
    vertex 604.2850317481648 323.05030332880546 394.5384388918941
    vertex 604.0535010338291 326.1095614434457 394.5384388918941
    vertex 604.0805992291713 326.6832370393455 394.5384388918941
  endloop
endfacet
facet normal -0.45858102205624895 0.8886526015321433 0.0
  outer loop
    vertex 599.4915697479096 329.9483263827037 403.53843889189403
    vertex 600.4659062462988 330.4511237936241 394.5384388918941
    vertex 599.4915697479096 329.9483263827037 394.5384388918941
  endloop
endfacet
facet normal -0.45858102205624895 0.8886526015321433 0.0
  outer loop
    vertex 600.4659062462988 330.4511237936241 394.5384388918941
    vertex 599.4915697479096 329.9483263827037 403.53843889189403
    vertex 600.4659062462988 330.4511237936241 403.53843889189403
  endloop
endfacet
facet normal -0.6729554704065602 0.7396829961881544 0.0
  outer loop
    vertex 598.6805665063938 329.2104845359828 403.53843889189403
    vertex 599.4915697479096 329.9483263827037 394.5384388918941
    vertex 598.6805665063938 329.2104845359828 394.5384388918941
  endloop
endfacet
facet normal -0.6729554704065602 0.7396829961881544 0.0
  outer loop
    vertex 599.4915697479096 329.9483263827037 394.5384388918941
    vertex 598.6805665063938 329.2104845359828 403.53843889189403
    vertex 599.4915697479096 329.9483263827037 403.53843889189403
  endloop
endfacet
facet normal -0.8414691155601899 0.5403052170378813 0.0
  outer loop
    vertex 598.6805665063938 329.2104845359828 403.53843889189403
    vertex 598.0881650524144 328.28788095597406 394.5384388918941
    vertex 598.0881650524144 328.28788095597406 403.53843889189403
  endloop
endfacet
facet normal -0.8414691155601899 0.5403052170378813 0.0
  outer loop
    vertex 598.0881650524144 328.28788095597406 394.5384388918941
    vertex 598.6805665063938 329.2104845359828 403.53843889189403
    vertex 598.6805665063938 329.2104845359828 394.5384388918941
  endloop
endfacet
facet normal -0.9526380310818613 0.3041065302430624 0.0
  outer loop
    vertex 598.0881650524144 328.28788095597406 403.53843889189403
    vertex 597.7547365660707 327.2433895519806 394.5384388918941
    vertex 597.7547365660707 327.2433895519806 403.53843889189403
  endloop
endfacet
facet normal -0.9526380310818613 0.3041065302430624 0.0
  outer loop
    vertex 597.7547365660707 327.2433895519806 394.5384388918941
    vertex 598.0881650524144 328.28788095597406 403.53843889189403
    vertex 598.0881650524144 328.28788095597406 394.5384388918941
  endloop
endfacet
facet normal -0.9988862390940885 0.04718348597197599 0.0
  outer loop
    vertex 597.7547365660707 327.2433895519806 403.53843889189403
    vertex 597.7030036476901 326.14819068708096 394.5384388918941
    vertex 597.7030036476901 326.14819068708096 403.53843889189403
  endloop
endfacet
facet normal -0.9988862390940885 0.04718348597197599 0.0
  outer loop
    vertex 597.7030036476901 326.14819068708096 394.5384388918941
    vertex 597.7547365660707 327.2433895519806 403.53843889189403
    vertex 597.7547365660707 327.2433895519806 394.5384388918941
  endloop
endfacet
facet normal -0.9770620006496171 -0.21295503489367837 0.0
  outer loop
    vertex 597.7030036476901 326.14819068708096 403.53843889189403
    vertex 597.9364918101677 325.0769203540163 394.5384388918941
    vertex 597.9364918101677 325.0769203540163 403.53843889189403
  endloop
endfacet
facet normal -0.9770620006496171 -0.21295503489367837 0.0
  outer loop
    vertex 597.9364918101677 325.0769203540163 394.5384388918941
    vertex 597.7030036476901 326.14819068708096 403.53843889189403
    vertex 597.7030036476901 326.14819068708096 394.5384388918941
  endloop
endfacet
facet normal -0.8886526015321641 -0.4585810220562086 0.0
  outer loop
    vertex 597.9364918101677 325.0769203540163 403.53843889189403
    vertex 598.439289221088 324.102583855627 394.5384388918941
    vertex 598.439289221088 324.102583855627 403.53843889189403
  endloop
endfacet
facet normal -0.8886526015321641 -0.4585810220562086 0.0
  outer loop
    vertex 598.439289221088 324.102583855627 394.5384388918941
    vertex 597.9364918101677 325.0769203540163 403.53843889189403
    vertex 597.9364918101677 325.0769203540163 394.5384388918941
  endloop
endfacet
facet normal -0.7396829961881554 -0.6729554704065592 0.0
  outer loop
    vertex 598.439289221088 324.102583855627 403.53843889189403
    vertex 599.1771310678089 323.29158061411124 394.5384388918941
    vertex 599.1771310678089 323.29158061411124 403.53843889189403
  endloop
endfacet
facet normal -0.7396829961881554 -0.6729554704065592 0.0
  outer loop
    vertex 599.1771310678089 323.29158061411124 394.5384388918941
    vertex 598.439289221088 324.102583855627 403.53843889189403
    vertex 598.439289221088 324.102583855627 394.5384388918941
  endloop
endfacet
facet normal -0.5403052170379343 -0.8414691155601558 0.0
  outer loop
    vertex 600.0997346478176 322.69917916013185 403.53843889189403
    vertex 599.1771310678089 323.29158061411124 394.5384388918941
    vertex 600.0997346478176 322.69917916013185 394.5384388918941
  endloop
endfacet
facet normal -0.5403052170379343 -0.8414691155601558 0.0
  outer loop
    vertex 599.1771310678089 323.29158061411124 394.5384388918941
    vertex 600.0997346478176 322.69917916013185 403.53843889189403
    vertex 599.1771310678089 323.29158061411124 403.53843889189403
  endloop
endfacet
facet normal -0.3041065302430497 -0.9526380310818654 0.0
  outer loop
    vertex 601.1442260518111 322.36575067378806 403.53843889189403
    vertex 600.0997346478176 322.69917916013185 394.5384388918941
    vertex 601.1442260518111 322.36575067378806 394.5384388918941
  endloop
endfacet
facet normal -0.3041065302430497 -0.9526380310818654 0.0
  outer loop
    vertex 600.0997346478176 322.69917916013185 394.5384388918941
    vertex 601.1442260518111 322.36575067378806 403.53843889189403
    vertex 600.0997346478176 322.69917916013185 403.53843889189403
  endloop
endfacet
facet normal -0.04718348597201511 -0.9988862390940866 0.0
  outer loop
    vertex 602.2394249167107 322.31401775540746 403.53843889189403
    vertex 601.1442260518111 322.36575067378806 394.5384388918941
    vertex 602.2394249167107 322.31401775540746 394.5384388918941
  endloop
endfacet
facet normal -0.04718348597201511 -0.9988862390940866 0.0
  outer loop
    vertex 601.1442260518111 322.36575067378806 394.5384388918941
    vertex 602.2394249167107 322.31401775540746 403.53843889189403
    vertex 601.1442260518111 322.36575067378806 403.53843889189403
  endloop
endfacet
facet normal 0.21295503489365872 -0.9770620006496213 0.0
  outer loop
    vertex 603.3106952497754 322.547505917885 403.53843889189403
    vertex 602.2394249167107 322.31401775540746 394.5384388918941
    vertex 603.3106952497754 322.547505917885 394.5384388918941
  endloop
endfacet
facet normal 0.21295503489365872 -0.9770620006496213 0.0
  outer loop
    vertex 602.2394249167107 322.31401775540746 394.5384388918941
    vertex 603.3106952497754 322.547505917885 403.53843889189403
    vertex 602.2394249167107 322.31401775540746 403.53843889189403
  endloop
endfacet
facet normal 0.45858102205624063 -0.8886526015321478 0.0
  outer loop
    vertex 604.2850317481648 323.05030332880546 403.53843889189403
    vertex 603.3106952497754 322.547505917885 394.5384388918941
    vertex 604.2850317481648 323.05030332880546 394.5384388918941
  endloop
endfacet
facet normal 0.45858102205624063 -0.8886526015321478 0.0
  outer loop
    vertex 603.3106952497754 322.547505917885 394.5384388918941
    vertex 604.2850317481648 323.05030332880546 403.53843889189403
    vertex 603.3106952497754 322.547505917885 403.53843889189403
  endloop
endfacet
facet normal 0.6729554704065602 -0.7396829961881544 0.0
  outer loop
    vertex 605.0960349896806 323.7881451755264 403.53843889189403
    vertex 604.2850317481648 323.05030332880546 394.5384388918941
    vertex 605.0960349896806 323.7881451755264 394.5384388918941
  endloop
endfacet
facet normal 0.6729554704065602 -0.7396829961881544 0.0
  outer loop
    vertex 604.2850317481648 323.05030332880546 394.5384388918941
    vertex 605.0960349896806 323.7881451755264 403.53843889189403
    vertex 604.2850317481648 323.05030332880546 403.53843889189403
  endloop
endfacet
facet normal 0.8414691155601899 -0.5403052170378813 0.0
  outer loop
    vertex 605.6884364436598 324.7107487555351 394.5384388918941
    vertex 605.0960349896806 323.7881451755264 403.53843889189403
    vertex 605.0960349896806 323.7881451755264 394.5384388918941
  endloop
endfacet
facet normal 0.8414691155601899 -0.5403052170378813 0.0
  outer loop
    vertex 605.0960349896806 323.7881451755264 403.53843889189403
    vertex 605.6884364436598 324.7107487555351 394.5384388918941
    vertex 605.6884364436598 324.7107487555351 403.53843889189403
  endloop
endfacet
facet normal 0.9526380310818613 -0.3041065302430624 0.0
  outer loop
    vertex 606.0218649300037 325.75524015952857 394.5384388918941
    vertex 605.6884364436598 324.7107487555351 403.53843889189403
    vertex 605.6884364436598 324.7107487555351 394.5384388918941
  endloop
endfacet
facet normal 0.9526380310818613 -0.3041065302430624 0.0
  outer loop
    vertex 605.6884364436598 324.7107487555351 403.53843889189403
    vertex 606.0218649300037 325.75524015952857 394.5384388918941
    vertex 606.0218649300037 325.75524015952857 403.53843889189403
  endloop
endfacet
facet normal 0.9988862390940875 -0.04718348597199652 0.0
  outer loop
    vertex 606.0735978483842 326.8504390244282 394.5384388918941
    vertex 606.0218649300037 325.75524015952857 403.53843889189403
    vertex 606.0218649300037 325.75524015952857 394.5384388918941
  endloop
endfacet
facet normal 0.9988862390940875 -0.04718348597199652 0.0
  outer loop
    vertex 606.0218649300037 325.75524015952857 403.53843889189403
    vertex 606.0735978483842 326.8504390244282 394.5384388918941
    vertex 606.0735978483842 326.8504390244282 403.53843889189403
  endloop
endfacet
facet normal 0.9770620006496129 0.21295503489369802 0.0
  outer loop
    vertex 605.8401096859067 327.9217093574929 394.5384388918941
    vertex 606.0735978483842 326.8504390244282 403.53843889189403
    vertex 606.0735978483842 326.8504390244282 394.5384388918941
  endloop
endfacet
facet normal 0.9770620006496129 0.21295503489369802 0.0
  outer loop
    vertex 606.0735978483842 326.8504390244282 403.53843889189403
    vertex 605.8401096859067 327.9217093574929 394.5384388918941
    vertex 605.8401096859067 327.9217093574929 403.53843889189403
  endloop
endfacet
facet normal 0.8886526015321641 0.4585810220562086 0.0
  outer loop
    vertex 605.3373122749862 328.8960458558821 394.5384388918941
    vertex 605.8401096859067 327.9217093574929 403.53843889189403
    vertex 605.8401096859067 327.9217093574929 394.5384388918941
  endloop
endfacet
facet normal 0.8886526015321641 0.4585810220562086 0.0
  outer loop
    vertex 605.8401096859067 327.9217093574929 403.53843889189403
    vertex 605.3373122749862 328.8960458558821 394.5384388918941
    vertex 605.3373122749862 328.8960458558821 403.53843889189403
  endloop
endfacet
facet normal 0.7396829961881554 0.6729554704065592 0.0
  outer loop
    vertex 604.5994704282654 329.70704909739794 394.5384388918941
    vertex 605.3373122749862 328.8960458558821 403.53843889189403
    vertex 605.3373122749862 328.8960458558821 394.5384388918941
  endloop
endfacet
facet normal 0.7396829961881554 0.6729554704065592 0.0
  outer loop
    vertex 605.3373122749862 328.8960458558821 403.53843889189403
    vertex 604.5994704282654 329.70704909739794 394.5384388918941
    vertex 604.5994704282654 329.70704909739794 403.53843889189403
  endloop
endfacet
facet normal 0.5403052170379343 0.8414691155601558 0.0
  outer loop
    vertex 603.6768668482566 330.29945055137733 403.53843889189403
    vertex 604.5994704282654 329.70704909739794 394.5384388918941
    vertex 603.6768668482566 330.29945055137733 394.5384388918941
  endloop
endfacet
facet normal 0.5403052170379343 0.8414691155601558 0.0
  outer loop
    vertex 604.5994704282654 329.70704909739794 394.5384388918941
    vertex 603.6768668482566 330.29945055137733 403.53843889189403
    vertex 604.5994704282654 329.70704909739794 403.53843889189403
  endloop
endfacet
facet normal 0.3041065302430437 0.9526380310818673 0.0
  outer loop
    vertex 602.6323754442632 330.63287903772107 403.53843889189403
    vertex 603.6768668482566 330.29945055137733 394.5384388918941
    vertex 602.6323754442632 330.63287903772107 394.5384388918941
  endloop
endfacet
facet normal 0.3041065302430437 0.9526380310818673 0.0
  outer loop
    vertex 603.6768668482566 330.29945055137733 394.5384388918941
    vertex 602.6323754442632 330.63287903772107 403.53843889189403
    vertex 603.6768668482566 330.29945055137733 403.53843889189403
  endloop
endfacet
facet normal 0.047183485972016076 0.9988862390940865 0.0
  outer loop
    vertex 601.5371765793636 330.68461195610166 403.53843889189403
    vertex 602.6323754442632 330.63287903772107 394.5384388918941
    vertex 601.5371765793636 330.68461195610166 394.5384388918941
  endloop
endfacet
facet normal 0.047183485972016076 0.9988862390940865 0.0
  outer loop
    vertex 602.6323754442632 330.63287903772107 394.5384388918941
    vertex 601.5371765793636 330.68461195610166 403.53843889189403
    vertex 602.6323754442632 330.63287903772107 403.53843889189403
  endloop
endfacet
facet normal -0.21295503489365444 0.9770620006496223 0.0
  outer loop
    vertex 600.4659062462988 330.4511237936241 403.53843889189403
    vertex 601.5371765793636 330.68461195610166 394.5384388918941
    vertex 600.4659062462988 330.4511237936241 394.5384388918941
  endloop
endfacet
facet normal -0.21295503489365444 0.9770620006496223 0.0
  outer loop
    vertex 601.5371765793636 330.68461195610166 394.5384388918941
    vertex 600.4659062462988 330.4511237936241 403.53843889189403
    vertex 601.5371765793636 330.68461195610166 403.53843889189403
  endloop
endfacet
facet normal -0.7396829961881626 -0.6729554704065512 0.0
  outer loop
    vertex 603.3084372472043 328.17955660137727 403.53843889189403
    vertex 603.6949258335819 327.7547453796309 394.5384388918941
    vertex 603.6949258335819 327.7547453796309 403.53843889189403
  endloop
endfacet
facet normal -0.7396829961881626 -0.6729554704065512 0.0
  outer loop
    vertex 603.6949258335819 327.7547453796309 394.5384388918941
    vertex 603.3084372472043 328.17955660137727 403.53843889189403
    vertex 603.3084372472043 328.17955660137727 394.5384388918941
  endloop
endfacet
facet normal -0.8886526015321587 -0.4585810220562189 0.0
  outer loop
    vertex 603.6949258335819 327.7547453796309 403.53843889189403
    vertex 603.9582959059688 327.2443786423794 394.5384388918941
    vertex 603.9582959059688 327.2443786423794 403.53843889189403
  endloop
endfacet
facet normal -0.8886526015321587 -0.4585810220562189 0.0
  outer loop
    vertex 603.9582959059688 327.2443786423794 394.5384388918941
    vertex 603.6949258335819 327.7547453796309 403.53843889189403
    vertex 603.6949258335819 327.7547453796309 394.5384388918941
  endloop
endfacet
facet normal -0.9770620006496128 -0.2129550348936985 0.0
  outer loop
    vertex 603.9582959059688 327.2443786423794 403.53843889189403
    vertex 604.0805992291713 326.6832370393455 394.5384388918941
    vertex 604.0805992291713 326.6832370393455 403.53843889189403
  endloop
endfacet
facet normal -0.9770620006496128 -0.2129550348936985 0.0
  outer loop
    vertex 604.0805992291713 326.6832370393455 394.5384388918941
    vertex 603.9582959059688 327.2443786423794 403.53843889189403
    vertex 603.9582959059688 327.2443786423794 394.5384388918941
  endloop
endfacet
facet normal -0.9988862390940884 0.047183485971979626 0.0
  outer loop
    vertex 604.0805992291713 326.6832370393455 403.53843889189403
    vertex 604.0535010338291 326.1095614434457 394.5384388918941
    vertex 604.0535010338291 326.1095614434457 403.53843889189403
  endloop
endfacet
facet normal -0.9988862390940884 0.047183485971979626 0.0
  outer loop
    vertex 604.0535010338291 326.1095614434457 394.5384388918941
    vertex 604.0805992291713 326.6832370393455 403.53843889189403
    vertex 604.0805992291713 326.6832370393455 394.5384388918941
  endloop
endfacet
facet normal -0.9526380310818653 0.30410653024305 0.0
  outer loop
    vertex 604.0535010338291 326.1095614434457 403.53843889189403
    vertex 603.8788480171729 325.5624468984968 394.5384388918941
    vertex 603.8788480171729 325.5624468984968 403.53843889189403
  endloop
endfacet
facet normal -0.9526380310818653 0.30410653024305 0.0
  outer loop
    vertex 603.8788480171729 325.5624468984968 394.5384388918941
    vertex 604.0535010338291 326.1095614434457 403.53843889189403
    vertex 604.0535010338291 326.1095614434457 394.5384388918941
  endloop
endfacet
facet normal -0.8414691155601718 0.5403052170379095 0.0
  outer loop
    vertex 603.8788480171729 325.5624468984968 403.53843889189403
    vertex 603.56854249366 325.0791783565875 394.5384388918941
    vertex 603.56854249366 325.0791783565875 403.53843889189403
  endloop
endfacet
facet normal -0.8414691155601718 0.5403052170379095 0.0
  outer loop
    vertex 603.56854249366 325.0791783565875 394.5384388918941
    vertex 603.8788480171729 325.5624468984968 403.53843889189403
    vertex 603.8788480171729 325.5624468984968 394.5384388918941
  endloop
endfacet
facet normal -0.6729554704065728 0.7396829961881431 0.0
  outer loop
    vertex 603.1437312719136 324.6926897702098 403.53843889189403
    vertex 603.56854249366 325.0791783565875 394.5384388918941
    vertex 603.1437312719136 324.6926897702098 394.5384388918941
  endloop
endfacet
facet normal -0.6729554704065728 0.7396829961881431 0.0
  outer loop
    vertex 603.56854249366 325.0791783565875 394.5384388918941
    vertex 603.1437312719136 324.6926897702098 403.53843889189403
    vertex 603.56854249366 325.0791783565875 403.53843889189403
  endloop
endfacet
facet normal -0.4585810220561409 0.888652601532199 0.0
  outer loop
    vertex 602.633364534662 324.429319697823 403.53843889189403
    vertex 603.1437312719136 324.6926897702098 394.5384388918941
    vertex 602.633364534662 324.429319697823 394.5384388918941
  endloop
endfacet
facet normal -0.4585810220561409 0.888652601532199 0.0
  outer loop
    vertex 603.1437312719136 324.6926897702098 394.5384388918941
    vertex 602.633364534662 324.429319697823 403.53843889189403
    vertex 603.1437312719136 324.6926897702098 403.53843889189403
  endloop
endfacet
facet normal -0.21295503489370665 0.977062000649611 0.0
  outer loop
    vertex 602.0722229316281 324.30701637462045 403.53843889189403
    vertex 602.633364534662 324.429319697823 394.5384388918941
    vertex 602.0722229316281 324.30701637462045 394.5384388918941
  endloop
endfacet
facet normal -0.21295503489370665 0.977062000649611 0.0
  outer loop
    vertex 602.633364534662 324.429319697823 394.5384388918941
    vertex 602.0722229316281 324.30701637462045 403.53843889189403
    vertex 602.633364534662 324.429319697823 403.53843889189403
  endloop
endfacet
facet normal 0.04718348597185834 0.998886239094094 0.0
  outer loop
    vertex 601.4985473357283 324.3341145699626 403.53843889189403
    vertex 602.0722229316281 324.30701637462045 394.5384388918941
    vertex 601.4985473357283 324.3341145699626 394.5384388918941
  endloop
endfacet
facet normal 0.04718348597185834 0.998886239094094 0.0
  outer loop
    vertex 602.0722229316281 324.30701637462045 394.5384388918941
    vertex 601.4985473357283 324.3341145699626 403.53843889189403
    vertex 602.0722229316281 324.30701637462045 403.53843889189403
  endloop
endfacet
facet normal 0.304106530243157 0.9526380310818311 0.0
  outer loop
    vertex 600.9514327907793 324.5087675866189 403.53843889189403
    vertex 601.4985473357283 324.3341145699626 394.5384388918941
    vertex 600.9514327907793 324.5087675866189 394.5384388918941
  endloop
endfacet
facet normal 0.304106530243157 0.9526380310818311 0.0
  outer loop
    vertex 601.4985473357283 324.3341145699626 394.5384388918941
    vertex 600.9514327907793 324.5087675866189 403.53843889189403
    vertex 601.4985473357283 324.3341145699626 403.53843889189403
  endloop
endfacet
facet normal 0.5403052170378916 0.8414691155601832 0.0
  outer loop
    vertex 600.46816424887 324.81907311013185 403.53843889189403
    vertex 600.9514327907793 324.5087675866189 394.5384388918941
    vertex 600.46816424887 324.81907311013185 394.5384388918941
  endloop
endfacet
facet normal 0.5403052170378916 0.8414691155601832 0.0
  outer loop
    vertex 600.9514327907793 324.5087675866189 394.5384388918941
    vertex 600.46816424887 324.81907311013185 403.53843889189403
    vertex 600.9514327907793 324.5087675866189 403.53843889189403
  endloop
endfacet
facet normal 0.7396829961881626 0.6729554704065512 0.0
  outer loop
    vertex 600.0816756624923 325.2438843318783 394.5384388918941
    vertex 600.46816424887 324.81907311013185 403.53843889189403
    vertex 600.46816424887 324.81907311013185 394.5384388918941
  endloop
endfacet
facet normal 0.7396829961881626 0.6729554704065512 0.0
  outer loop
    vertex 600.46816424887 324.81907311013185 403.53843889189403
    vertex 600.0816756624923 325.2438843318783 394.5384388918941
    vertex 600.0816756624923 325.2438843318783 403.53843889189403
  endloop
endfacet
facet normal 0.8886526015321587 0.4585810220562189 0.0
  outer loop
    vertex 599.8183055901055 325.7542510691298 394.5384388918941
    vertex 600.0816756624923 325.2438843318783 403.53843889189403
    vertex 600.0816756624923 325.2438843318783 394.5384388918941
  endloop
endfacet
facet normal 0.8886526015321587 0.4585810220562189 0.0
  outer loop
    vertex 600.0816756624923 325.2438843318783 403.53843889189403
    vertex 599.8183055901055 325.7542510691298 394.5384388918941
    vertex 599.8183055901055 325.7542510691298 403.53843889189403
  endloop
endfacet
facet normal 0.9770620006496128 0.2129550348936985 0.0
  outer loop
    vertex 599.696002266903 326.3153926721637 394.5384388918941
    vertex 599.8183055901055 325.7542510691298 403.53843889189403
    vertex 599.8183055901055 325.7542510691298 394.5384388918941
  endloop
endfacet
facet normal 0.9770620006496128 0.2129550348936985 0.0
  outer loop
    vertex 599.8183055901055 325.7542510691298 403.53843889189403
    vertex 599.696002266903 326.3153926721637 394.5384388918941
    vertex 599.696002266903 326.3153926721637 403.53843889189403
  endloop
endfacet
facet normal 0.9988862390940884 -0.047183485971979626 0.0
  outer loop
    vertex 599.7231004622452 326.88906826806345 394.5384388918941
    vertex 599.696002266903 326.3153926721637 403.53843889189403
    vertex 599.696002266903 326.3153926721637 394.5384388918941
  endloop
endfacet
facet normal 0.9988862390940884 -0.047183485971979626 0.0
  outer loop
    vertex 599.696002266903 326.3153926721637 403.53843889189403
    vertex 599.7231004622452 326.88906826806345 394.5384388918941
    vertex 599.7231004622452 326.88906826806345 403.53843889189403
  endloop
endfacet
facet normal 0.9526380310818653 -0.30410653024305 0.0
  outer loop
    vertex 599.8977534789014 327.4361828130124 394.5384388918941
    vertex 599.7231004622452 326.88906826806345 403.53843889189403
    vertex 599.7231004622452 326.88906826806345 394.5384388918941
  endloop
endfacet
facet normal 0.9526380310818653 -0.30410653024305 0.0
  outer loop
    vertex 599.7231004622452 326.88906826806345 403.53843889189403
    vertex 599.8977534789014 327.4361828130124 394.5384388918941
    vertex 599.8977534789014 327.4361828130124 403.53843889189403
  endloop
endfacet
facet normal 0.8414691155601718 -0.5403052170379095 0.0
  outer loop
    vertex 600.2080590024144 327.9194513549217 394.5384388918941
    vertex 599.8977534789014 327.4361828130124 403.53843889189403
    vertex 599.8977534789014 327.4361828130124 394.5384388918941
  endloop
endfacet
facet normal 0.8414691155601718 -0.5403052170379095 0.0
  outer loop
    vertex 599.8977534789014 327.4361828130124 403.53843889189403
    vertex 600.2080590024144 327.9194513549217 394.5384388918941
    vertex 600.2080590024144 327.9194513549217 403.53843889189403
  endloop
endfacet
facet normal 0.6729554704065728 -0.7396829961881431 0.0
  outer loop
    vertex 600.6328702241608 328.30593994129936 403.53843889189403
    vertex 600.2080590024144 327.9194513549217 394.5384388918941
    vertex 600.6328702241608 328.30593994129936 394.5384388918941
  endloop
endfacet
facet normal 0.6729554704065728 -0.7396829961881431 0.0
  outer loop
    vertex 600.2080590024144 327.9194513549217 394.5384388918941
    vertex 600.6328702241608 328.30593994129936 403.53843889189403
    vertex 600.2080590024144 327.9194513549217 403.53843889189403
  endloop
endfacet
facet normal 0.4585810220561409 -0.888652601532199 0.0
  outer loop
    vertex 601.1432369614123 328.56931001368616 403.53843889189403
    vertex 600.6328702241608 328.30593994129936 394.5384388918941
    vertex 601.1432369614123 328.56931001368616 394.5384388918941
  endloop
endfacet
facet normal 0.4585810220561409 -0.888652601532199 0.0
  outer loop
    vertex 600.6328702241608 328.30593994129936 394.5384388918941
    vertex 601.1432369614123 328.56931001368616 403.53843889189403
    vertex 600.6328702241608 328.30593994129936 403.53843889189403
  endloop
endfacet
facet normal 0.21295503489370665 -0.977062000649611 0.0
  outer loop
    vertex 601.7043785644462 328.69161333688874 403.53843889189403
    vertex 601.1432369614123 328.56931001368616 394.5384388918941
    vertex 601.7043785644462 328.69161333688874 394.5384388918941
  endloop
endfacet
facet normal 0.21295503489370665 -0.977062000649611 0.0
  outer loop
    vertex 601.1432369614123 328.56931001368616 394.5384388918941
    vertex 601.7043785644462 328.69161333688874 403.53843889189403
    vertex 601.1432369614123 328.56931001368616 403.53843889189403
  endloop
endfacet
facet normal -0.04718348597185834 -0.998886239094094 0.0
  outer loop
    vertex 602.2780541603461 328.6645151415466 403.53843889189403
    vertex 601.7043785644462 328.69161333688874 394.5384388918941
    vertex 602.2780541603461 328.6645151415466 394.5384388918941
  endloop
endfacet
facet normal -0.04718348597185834 -0.998886239094094 0.0
  outer loop
    vertex 601.7043785644462 328.69161333688874 394.5384388918941
    vertex 602.2780541603461 328.6645151415466 403.53843889189403
    vertex 601.7043785644462 328.69161333688874 403.53843889189403
  endloop
endfacet
facet normal -0.304106530243157 -0.9526380310818311 0.0
  outer loop
    vertex 602.825168705295 328.48986212489024 403.53843889189403
    vertex 602.2780541603461 328.6645151415466 394.5384388918941
    vertex 602.825168705295 328.48986212489024 394.5384388918941
  endloop
endfacet
facet normal -0.304106530243157 -0.9526380310818311 0.0
  outer loop
    vertex 602.2780541603461 328.6645151415466 394.5384388918941
    vertex 602.825168705295 328.48986212489024 403.53843889189403
    vertex 602.2780541603461 328.6645151415466 403.53843889189403
  endloop
endfacet
facet normal -0.5403052170378916 -0.8414691155601832 0.0
  outer loop
    vertex 603.3084372472043 328.17955660137727 403.53843889189403
    vertex 602.825168705295 328.48986212489024 394.5384388918941
    vertex 603.3084372472043 328.17955660137727 394.5384388918941
  endloop
endfacet
facet normal -0.5403052170378916 -0.8414691155601832 0.0
  outer loop
    vertex 602.825168705295 328.48986212489024 394.5384388918941
    vertex 603.3084372472043 328.17955660137727 403.53843889189403
    vertex 602.825168705295 328.48986212489024 403.53843889189403
  endloop
endfacet
endsolid SBOX_XL_2_5
