solid SBOX_XL_2_5
facet normal 0.0 0.0 1.0
  outer loop
    vertex 589.4243857073561 360.33486928438117 403.5384388918939
    vertex 594.4461784553381 357.34716277616536 403.5384388918939
    vertex 595.9243857073565 360.33486928438117 403.5384388918939
  endloop
endfacet
facet normal 0.0 0.0 1.0
  outer loop
    vertex 594.4461784553381 357.34716277616536 403.5384388918939
    vertex 589.4243857073561 360.33486928438117 403.5384388918939
    vertex 589.4243857073561 341.43486928440626 403.5384388918939
  endloop
endfacet
facet normal 0.0 0.0 1.0
  outer loop
    vertex 595.9243857073565 360.33486928438117 403.5384388918939
    vertex 594.4461784553381 357.34716277616536 403.5384388918939
    vertex 594.594034327672 357.6237816572126 403.5384388918939
  endloop
endfacet
facet normal 0.0 0.0 1.0
  outer loop
    vertex 595.9243857073565 360.33486928438117 403.5384388918939
    vertex 594.594034327672 357.6237816572126 403.5384388918939
    vertex 596.6267108666145 360.2656962938328 403.5384388918939
  endloop
endfacet
facet normal 0.0 0.0 1.0
  outer loop
    vertex 596.6267108666145 360.2656962938328 403.5384388918939
    vertex 594.594034327672 357.6237816572126 403.5384388918939
    vertex 594.7930148574577 357.8662401342797 403.5384388918939
  endloop
endfacet
facet normal 0.0 0.0 1.0
  outer loop
    vertex 596.6267108666145 360.2656962938328 403.5384388918939
    vertex 594.7930148574577 357.8662401342797 403.5384388918939
    vertex 597.3020460638708 360.06083560142173 403.5384388918939
  endloop
endfacet
facet normal 0.0 0.0 1.0
  outer loop
    vertex 597.3020460638708 360.06083560142173 403.5384388918939
    vertex 594.7930148574577 357.8662401342797 403.5384388918939
    vertex 595.0354733345248 358.06522066406524 403.5384388918939
  endloop
endfacet
facet normal 0.0 0.0 1.0
  outer loop
    vertex 597.3020460638708 360.06083560142173 403.5384388918939
    vertex 595.0354733345248 358.06522066406524 403.5384388918939
    vertex 597.924438546227 359.7281598886702 403.5384388918939
  endloop
endfacet
facet normal 0.0 0.0 1.0
  outer loop
    vertex 597.924438546227 359.7281598886702 403.5384388918939
    vertex 595.0354733345248 358.06522066406524 403.5384388918939
    vertex 595.312092215572 358.2130765363992 403.5384388918939
  endloop
endfacet
facet normal 0.0 0.0 1.0
  outer loop
    vertex 597.924438546227 359.7281598886702 403.5384388918939
    vertex 595.312092215572 358.2130765363992 403.5384388918939
    vertex 598.469970119628 359.28045369665256 403.5384388918939
  endloop
endfacet
facet normal 0.0 0.0 1.0
  outer loop
    vertex 598.469970119628 359.28045369665256 403.5384388918939
    vertex 595.312092215572 358.2130765363992 403.5384388918939
    vertex 595.6122411921302 358.30412573302635 403.5384388918939
  endloop
endfacet
facet normal 0.0 0.0 1.0
  outer loop
    vertex 598.469970119628 359.28045369665256 403.5384388918939
    vertex 595.6122411921302 358.30412573302635 403.5384388918939
    vertex 598.9176763116454 358.7349221232516 403.5384388918939
  endloop
endfacet
facet normal 0.0 0.0 1.0
  outer loop
    vertex 598.9176763116454 358.7349221232516 403.5384388918939
    vertex 595.6122411921302 358.30412573302635 403.5384388918939
    vertex 595.9243857073562 358.3348692843812 403.5384388918939
  endloop
endfacet
facet normal 0.0 0.0 1.0
  outer loop
    vertex 594.4461784553381 357.34716277616536 403.5384388918939
    vertex 589.4243857073561 341.43486928440626 403.5384388918939
    vertex 594.355129258711 357.047013799607 403.5384388918939
  endloop
endfacet
facet normal 0.0 0.0 1.0
  outer loop
    vertex 594.355129258711 357.047013799607 403.5384388918939
    vertex 589.4243857073561 341.43486928440626 403.5384388918939
    vertex 594.3243857073561 356.7348692843812 403.5384388918939
  endloop
endfacet
facet normal 0.0 0.0 1.0
  outer loop
    vertex 594.3243857073561 356.7348692843812 403.5384388918939
    vertex 589.4243857073561 341.43486928440626 403.5384388918939
    vertex 594.355129258711 356.4227247691554 403.5384388918939
  endloop
endfacet
facet normal 0.0 0.0 1.0
  outer loop
    vertex 594.355129258711 356.4227247691554 403.5384388918939
    vertex 589.4243857073561 341.43486928440626 403.5384388918939
    vertex 594.4461784553381 356.1225757925971 403.5384388918939
  endloop
endfacet
facet normal 0.0 0.0 1.0
  outer loop
    vertex 594.4461784553381 356.1225757925971 403.5384388918939
    vertex 589.4243857073561 341.43486928440626 403.5384388918939
    vertex 594.594034327672 355.84595691154993 403.5384388918939
  endloop
endfacet
facet normal 0.0 0.0 1.0
  outer loop
    vertex 594.594034327672 355.84595691154993 403.5384388918939
    vertex 589.4243857073561 341.43486928440626 403.5384388918939
    vertex 594.7930148574577 355.60349843448273 403.5384388918939
  endloop
endfacet
facet normal 0.0 0.0 1.0
  outer loop
    vertex 594.7930148574577 355.60349843448273 403.5384388918939
    vertex 589.4243857073561 341.43486928440626 403.5384388918939
    vertex 595.0354733345248 355.4045179046972 403.5384388918939
  endloop
endfacet
facet normal 0.0 0.0 1.0
  outer loop
    vertex 595.0354733345248 355.4045179046972 403.5384388918939
    vertex 589.4243857073561 341.43486928440626 403.5384388918939
    vertex 595.312092215572 355.2566620323632 403.5384388918939
  endloop
endfacet
facet normal 0.0 0.0 1.0
  outer loop
    vertex 595.312092215572 355.2566620323632 403.5384388918939
    vertex 589.4243857073561 341.43486928440626 403.5384388918939
    vertex 595.6122411921302 355.16561283573606 403.5384388918939
  endloop
endfacet
facet normal 0.0 0.0 1.0
  outer loop
    vertex 595.6122411921302 355.16561283573606 403.5384388918939
    vertex 589.4243857073561 341.43486928440626 403.5384388918939
    vertex 595.9243857073562 355.1348692843813 403.5384388918939
  endloop
endfacet
facet normal 0.0 0.0 1.0
  outer loop
    vertex 595.9243857073562 355.1348692843813 403.5384388918939
    vertex 589.4243857073561 341.43486928440626 403.5384388918939
    vertex 601.312092215572 346.51307653642425 403.5384388918939
  endloop
endfacet
facet normal 0.0 0.0 1.0
  outer loop
    vertex 595.9243857073562 355.1348692843813 403.5384388918939
    vertex 601.312092215572 346.51307653642425 403.5384388918939
    vertex 601.6122411921302 346.6041257330514 403.5384388918939
  endloop
endfacet
facet normal 0.0 0.0 1.0
  outer loop
    vertex 595.9243857073562 355.1348692843813 403.5384388918939
    vertex 601.6122411921302 346.6041257330514 403.5384388918939
    vertex 604.9176763116454 347.0349221232766 403.5384388918939
  endloop
endfacet
facet normal 0.0 0.0 1.0
  outer loop
    vertex 604.9176763116454 347.0349221232766 403.5384388918939
    vertex 601.6122411921302 346.6041257330514 403.5384388918939
    vertex 601.9243857073561 346.6348692844062 403.5384388918939
  endloop
endfacet
facet normal 0.0 0.0 1.0
  outer loop
    vertex 601.312092215572 346.51307653642425 403.5384388918939
    vertex 589.4243857073561 341.43486928440626 403.5384388918939
    vertex 601.0354733345247 346.3652206640903 403.5384388918939
  endloop
endfacet
facet normal 0.0 0.0 1.0
  outer loop
    vertex 601.0354733345247 346.3652206640903 403.5384388918939
    vertex 589.4243857073561 341.43486928440626 403.5384388918939
    vertex 600.7930148574576 346.1662401343047 403.5384388918939
  endloop
endfacet
facet normal 0.0 0.0 1.0
  outer loop
    vertex 600.7930148574576 346.1662401343047 403.5384388918939
    vertex 589.4243857073561 341.43486928440626 403.5384388918939
    vertex 600.594034327672 345.92378165723756 403.5384388918939
  endloop
endfacet
facet normal 0.0 0.0 1.0
  outer loop
    vertex 600.594034327672 345.92378165723756 403.5384388918939
    vertex 589.4243857073561 341.43486928440626 403.5384388918939
    vertex 600.4461784553381 345.6471627761904 403.5384388918939
  endloop
endfacet
facet normal 0.0 0.0 1.0
  outer loop
    vertex 600.4461784553381 345.6471627761904 403.5384388918939
    vertex 589.4243857073561 341.43486928440626 403.5384388918939
    vertex 600.3551292587109 345.34701379963207 403.5384388918939
  endloop
endfacet
facet normal 0.0 0.0 1.0
  outer loop
    vertex 600.3551292587109 345.34701379963207 403.5384388918939
    vertex 589.4243857073561 341.43486928440626 403.5384388918939
    vertex 600.3243857073561 345.0348692844063 403.5384388918939
  endloop
endfacet
facet normal 0.0 0.0 1.0
  outer loop
    vertex 600.3243857073561 345.0348692844063 403.5384388918939
    vertex 589.4243857073561 341.43486928440626 403.5384388918939
    vertex 600.3551292587109 344.72272476918045 403.5384388918939
  endloop
endfacet
facet normal 0.0 0.0 1.0
  outer loop
    vertex 600.3551292587109 344.72272476918045 403.5384388918939
    vertex 589.4243857073561 341.43486928440626 403.5384388918939
    vertex 600.4461784553381 344.42257579262207 403.5384388918939
  endloop
endfacet
facet normal 0.0 0.0 1.0
  outer loop
    vertex 600.4461784553381 344.42257579262207 403.5384388918939
    vertex 589.4243857073561 341.43486928440626 403.5384388918939
    vertex 600.594034327672 344.14595691157484 403.5384388918939
  endloop
endfacet
facet normal 0.0 0.0 1.0
  outer loop
    vertex 600.594034327672 344.14595691157484 403.5384388918939
    vertex 589.4243857073561 341.43486928440626 403.5384388918939
    vertex 600.7930148574576 343.9034984345078 403.5384388918939
  endloop
endfacet
facet normal 0.0 0.0 1.0
  outer loop
    vertex 600.7930148574576 343.9034984345078 403.5384388918939
    vertex 589.4243857073561 341.43486928440626 403.5384388918939
    vertex 601.0354733345247 343.7045179047222 403.5384388918939
  endloop
endfacet
facet normal 0.0 0.0 1.0
  outer loop
    vertex 601.0354733345247 343.7045179047222 403.5384388918939
    vertex 589.4243857073561 341.43486928440626 403.5384388918939
    vertex 601.312092215572 343.55666203238826 403.5384388918939
  endloop
endfacet
facet normal 0.0 0.0 1.0
  outer loop
    vertex 601.312092215572 343.55666203238826 403.5384388918939
    vertex 589.4243857073561 341.43486928440626 403.5384388918939
    vertex 601.6122411921302 343.46561283576114 403.5384388918939
  endloop
endfacet
facet normal 0.0 0.0 1.0
  outer loop
    vertex 601.6122411921302 343.46561283576114 403.5384388918939
    vertex 589.4243857073561 341.43486928440626 403.5384388918939
    vertex 601.9243857073561 343.4348692844063 403.5384388918939
  endloop
endfacet
facet normal 0.0 0.0 1.0
  outer loop
    vertex 601.9243857073561 343.4348692844063 403.5384388918939
    vertex 589.4243857073561 341.43486928440626 403.5384388918939
    vertex 604.9176763116452 343.03481644553545 403.5384388918939
  endloop
endfacet
facet normal 0.0 0.0 1.0
  outer loop
    vertex 604.9176763116452 343.03481644553545 403.5384388918939
    vertex 589.4243857073561 341.43486928440626 403.5384388918939
    vertex 604.4699701196275 342.48928487213453 403.5384388918939
  endloop
endfacet
facet normal 0.0 0.0 1.0
  outer loop
    vertex 604.4699701196275 342.48928487213453 403.5384388918939
    vertex 589.4243857073561 341.43486928440626 403.5384388918939
    vertex 603.9244385462265 342.04157868011697 403.5384388918939
  endloop
endfacet
facet normal 0.0 0.0 1.0
  outer loop
    vertex 603.9244385462265 342.04157868011697 403.5384388918939
    vertex 589.4243857073561 341.43486928440626 403.5384388918939
    vertex 603.3020460638703 341.70890296736553 403.5384388918939
  endloop
endfacet
facet normal 0.0 0.0 1.0
  outer loop
    vertex 603.3020460638703 341.70890296736553 403.5384388918939
    vertex 589.4243857073561 341.43486928440626 403.5384388918939
    vertex 602.626710866614 341.50404227495466 403.5384388918939
  endloop
endfacet
facet normal 0.0 0.0 1.0
  outer loop
    vertex 602.626710866614 341.50404227495466 403.5384388918939
    vertex 589.4243857073561 341.43486928440626 403.5384388918939
    vertex 601.924385707356 341.43486928440626 403.5384388918939
  endloop
endfacet
facet normal 0.0 0.0 1.0
  outer loop
    vertex 601.9243857073561 346.6348692844062 403.5384388918939
    vertex 605.2503520243969 346.4125296409203 403.5384388918939
    vertex 604.9176763116454 347.0349221232766 403.5384388918939
  endloop
endfacet
facet normal 0.0 0.0 1.0
  outer loop
    vertex 605.2503520243969 346.4125296409203 403.5384388918939
    vertex 601.9243857073561 346.6348692844062 403.5384388918939
    vertex 602.236530222582 346.6041257330514 403.5384388918939
  endloop
endfacet
facet normal 0.0 0.0 1.0
  outer loop
    vertex 605.2503520243969 346.4125296409203 403.5384388918939
    vertex 602.236530222582 346.6041257330514 403.5384388918939
    vertex 602.5366791991402 346.51307653642425 403.5384388918939
  endloop
endfacet
facet normal 0.0 0.0 1.0
  outer loop
    vertex 605.2503520243969 346.4125296409203 403.5384388918939
    vertex 602.5366791991402 346.51307653642425 403.5384388918939
    vertex 602.8132980801876 346.3652206640903 403.5384388918939
  endloop
endfacet
facet normal 0.0 0.0 1.0
  outer loop
    vertex 605.2503520243969 346.4125296409203 403.5384388918939
    vertex 602.8132980801876 346.3652206640903 403.5384388918939
    vertex 605.4552127168079 345.73719444366407 403.5384388918939
  endloop
endfacet
facet normal 0.0 0.0 1.0
  outer loop
    vertex 605.4552127168079 345.73719444366407 403.5384388918939
    vertex 602.8132980801876 346.3652206640903 403.5384388918939
    vertex 603.0557565572547 346.1662401343047 403.5384388918939
  endloop
endfacet
facet normal 0.0 0.0 1.0
  outer loop
    vertex 605.4552127168079 345.73719444366407 403.5384388918939
    vertex 603.0557565572547 346.1662401343047 403.5384388918939
    vertex 603.2547370870402 345.92378165723756 403.5384388918939
  endloop
endfacet
facet normal 0.0 0.0 1.0
  outer loop
    vertex 605.4552127168079 345.73719444366407 403.5384388918939
    vertex 603.2547370870402 345.92378165723756 403.5384388918939
    vertex 603.4025929593741 345.6471627761904 403.5384388918939
  endloop
endfacet
facet normal 0.0 0.0 1.0
  outer loop
    vertex 605.4552127168079 345.73719444366407 403.5384388918939
    vertex 603.4025929593741 345.6471627761904 403.5384388918939
    vertex 605.5243857073561 345.034869284406 403.5384388918939
  endloop
endfacet
facet normal 0.0 0.0 1.0
  outer loop
    vertex 605.5243857073561 345.034869284406 403.5384388918939
    vertex 603.4025929593741 345.6471627761904 403.5384388918939
    vertex 603.4936421560013 345.34701379963207 403.5384388918939
  endloop
endfacet
facet normal 0.0 0.0 1.0
  outer loop
    vertex 605.5243857073561 345.034869284406 403.5384388918939
    vertex 603.4936421560013 345.34701379963207 403.5384388918939
    vertex 603.5243857073561 345.0348692844063 403.5384388918939
  endloop
endfacet
facet normal 0.0 0.0 1.0
  outer loop
    vertex 605.5243857073561 345.034869284406 403.5384388918939
    vertex 603.5243857073561 345.0348692844063 403.5384388918939
    vertex 603.4936421560013 344.72272476918045 403.5384388918939
  endloop
endfacet
facet normal 0.0 0.0 1.0
  outer loop
    vertex 605.5243857073561 345.034869284406 403.5384388918939
    vertex 603.4936421560013 344.72272476918045 403.5384388918939
    vertex 605.4552127168078 344.33254412514793 403.5384388918939
  endloop
endfacet
facet normal 0.0 0.0 1.0
  outer loop
    vertex 605.4552127168078 344.33254412514793 403.5384388918939
    vertex 603.4936421560013 344.72272476918045 403.5384388918939
    vertex 603.4025929593741 344.42257579262207 403.5384388918939
  endloop
endfacet
facet normal 0.0 0.0 1.0
  outer loop
    vertex 605.4552127168078 344.33254412514793 403.5384388918939
    vertex 603.4025929593741 344.42257579262207 403.5384388918939
    vertex 603.2547370870402 344.14595691157484 403.5384388918939
  endloop
endfacet
facet normal 0.0 0.0 1.0
  outer loop
    vertex 605.4552127168078 344.33254412514793 403.5384388918939
    vertex 603.2547370870402 344.14595691157484 403.5384388918939
    vertex 605.2503520243968 343.6572089278917 403.5384388918939
  endloop
endfacet
facet normal 0.0 0.0 1.0
  outer loop
    vertex 605.2503520243968 343.6572089278917 403.5384388918939
    vertex 603.2547370870402 344.14595691157484 403.5384388918939
    vertex 603.0557565572547 343.9034984345078 403.5384388918939
  endloop
endfacet
facet normal 0.0 0.0 1.0
  outer loop
    vertex 605.2503520243968 343.6572089278917 403.5384388918939
    vertex 603.0557565572547 343.9034984345078 403.5384388918939
    vertex 602.8132980801876 343.7045179047222 403.5384388918939
  endloop
endfacet
facet normal 0.0 0.0 1.0
  outer loop
    vertex 605.2503520243968 343.6572089278917 403.5384388918939
    vertex 602.8132980801876 343.7045179047222 403.5384388918939
    vertex 602.5366791991402 343.55666203238826 403.5384388918939
  endloop
endfacet
facet normal 0.0 0.0 1.0
  outer loop
    vertex 605.2503520243968 343.6572089278917 403.5384388918939
    vertex 602.5366791991402 343.55666203238826 403.5384388918939
    vertex 604.9176763116452 343.03481644553545 403.5384388918939
  endloop
endfacet
facet normal 0.0 0.0 1.0
  outer loop
    vertex 604.9176763116452 343.03481644553545 403.5384388918939
    vertex 602.5366791991402 343.55666203238826 403.5384388918939
    vertex 602.236530222582 343.46561283576114 403.5384388918939
  endloop
endfacet
facet normal 0.0 0.0 1.0
  outer loop
    vertex 604.9176763116452 343.03481644553545 403.5384388918939
    vertex 602.236530222582 343.46561283576114 403.5384388918939
    vertex 601.9243857073561 343.4348692844063 403.5384388918939
  endloop
endfacet
facet normal 0.0 0.0 1.0
  outer loop
    vertex 598.9176763116454 358.7349221232516 403.5384388918939
    vertex 597.2547370870401 357.6237816572126 403.5384388918939
    vertex 604.9176763116454 347.0349221232766 403.5384388918939
  endloop
endfacet
facet normal 0.0 0.0 1.0
  outer loop
    vertex 597.2547370870401 357.6237816572126 403.5384388918939
    vertex 598.9176763116454 358.7349221232516 403.5384388918939
    vertex 597.0557565572545 357.8662401342797 403.5384388918939
  endloop
endfacet
facet normal 0.0 0.0 1.0
  outer loop
    vertex 597.0557565572545 357.8662401342797 403.5384388918939
    vertex 598.9176763116454 358.7349221232516 403.5384388918939
    vertex 596.8132980801875 358.06522066406524 403.5384388918939
  endloop
endfacet
facet normal 0.0 0.0 1.0
  outer loop
    vertex 596.8132980801875 358.06522066406524 403.5384388918939
    vertex 598.9176763116454 358.7349221232516 403.5384388918939
    vertex 596.5366791991403 358.2130765363992 403.5384388918939
  endloop
endfacet
facet normal 0.0 0.0 1.0
  outer loop
    vertex 596.5366791991403 358.2130765363992 403.5384388918939
    vertex 598.9176763116454 358.7349221232516 403.5384388918939
    vertex 596.2365302225819 358.30412573302635 403.5384388918939
  endloop
endfacet
facet normal 0.0 0.0 1.0
  outer loop
    vertex 596.2365302225819 358.30412573302635 403.5384388918939
    vertex 598.9176763116454 358.7349221232516 403.5384388918939
    vertex 595.9243857073562 358.3348692843812 403.5384388918939
  endloop
endfacet
facet normal 0.0 0.0 1.0
  outer loop
    vertex 604.9176763116454 347.0349221232766 403.5384388918939
    vertex 597.2547370870401 357.6237816572126 403.5384388918939
    vertex 597.4025929593743 357.34716277616536 403.5384388918939
  endloop
endfacet
facet normal 0.0 0.0 1.0
  outer loop
    vertex 604.9176763116454 347.0349221232766 403.5384388918939
    vertex 597.4025929593743 357.34716277616536 403.5384388918939
    vertex 597.4936421560012 357.047013799607 403.5384388918939
  endloop
endfacet
facet normal 0.0 0.0 1.0
  outer loop
    vertex 604.9176763116454 347.0349221232766 403.5384388918939
    vertex 597.4936421560012 357.047013799607 403.5384388918939
    vertex 597.524385707356 356.7348692843812 403.5384388918939
  endloop
endfacet
facet normal 0.0 0.0 1.0
  outer loop
    vertex 604.9176763116454 347.0349221232766 403.5384388918939
    vertex 597.524385707356 356.7348692843812 403.5384388918939
    vertex 597.4936421560012 356.4227247691554 403.5384388918939
  endloop
endfacet
facet normal 0.0 0.0 1.0
  outer loop
    vertex 604.9176763116454 347.0349221232766 403.5384388918939
    vertex 597.4936421560012 356.4227247691554 403.5384388918939
    vertex 597.4025929593743 356.1225757925971 403.5384388918939
  endloop
endfacet
facet normal 0.0 0.0 1.0
  outer loop
    vertex 604.9176763116454 347.0349221232766 403.5384388918939
    vertex 597.4025929593743 356.1225757925971 403.5384388918939
    vertex 597.2547370870401 355.84595691154993 403.5384388918939
  endloop
endfacet
facet normal 0.0 0.0 1.0
  outer loop
    vertex 604.9176763116454 347.0349221232766 403.5384388918939
    vertex 597.2547370870401 355.84595691154993 403.5384388918939
    vertex 597.0557565572545 355.60349843448273 403.5384388918939
  endloop
endfacet
facet normal 0.0 0.0 1.0
  outer loop
    vertex 604.9176763116454 347.0349221232766 403.5384388918939
    vertex 597.0557565572545 355.60349843448273 403.5384388918939
    vertex 596.8132980801875 355.4045179046972 403.5384388918939
  endloop
endfacet
facet normal 0.0 0.0 1.0
  outer loop
    vertex 604.9176763116454 347.0349221232766 403.5384388918939
    vertex 596.8132980801875 355.4045179046972 403.5384388918939
    vertex 596.5366791991403 355.2566620323632 403.5384388918939
  endloop
endfacet
facet normal 0.0 0.0 1.0
  outer loop
    vertex 604.9176763116454 347.0349221232766 403.5384388918939
    vertex 596.5366791991403 355.2566620323632 403.5384388918939
    vertex 596.2365302225819 355.16561283573606 403.5384388918939
  endloop
endfacet
facet normal 0.0 0.0 1.0
  outer loop
    vertex 604.9176763116454 347.0349221232766 403.5384388918939
    vertex 596.2365302225819 355.16561283573606 403.5384388918939
    vertex 595.9243857073562 355.1348692843813 403.5384388918939
  endloop
endfacet
facet normal 0.9951847266721908 -0.09801714032962404 0.0
  outer loop
    vertex 605.5243857073561 345.034869284406 403.5384388918939
    vertex 605.4552127168078 344.33254412514793 398.5384388918939
    vertex 605.5243857073561 345.034869284406 398.5384388918939
  endloop
endfacet
facet normal 0.9951847266721908 -0.09801714032962404 0.0
  outer loop
    vertex 605.4552127168078 344.33254412514793 398.5384388918939
    vertex 605.5243857073561 345.034869284406 403.5384388918939
    vertex 605.4552127168078 344.33254412514793 403.5384388918939
  endloop
endfacet
facet normal 0.0 0.0 -1.0
  outer loop
    vertex 598.9176763116454 358.7349221232516 398.5384388918939
    vertex 596.2365302225819 358.30412573302635 398.5384388918939
    vertex 595.9243857073562 358.3348692843812 398.5384388918939
  endloop
endfacet
facet normal 0.0 0.0 -1.0
  outer loop
    vertex 596.2365302225819 358.30412573302635 398.5384388918939
    vertex 598.9176763116454 358.7349221232516 398.5384388918939
    vertex 596.5366791991403 358.2130765363992 398.5384388918939
  endloop
endfacet
facet normal 0.0 0.0 -1.0
  outer loop
    vertex 596.5366791991403 358.2130765363992 398.5384388918939
    vertex 598.9176763116454 358.7349221232516 398.5384388918939
    vertex 596.8132980801875 358.06522066406524 398.5384388918939
  endloop
endfacet
facet normal 0.0 0.0 -1.0
  outer loop
    vertex 596.8132980801875 358.06522066406524 398.5384388918939
    vertex 598.9176763116454 358.7349221232516 398.5384388918939
    vertex 597.0557565572545 357.8662401342797 398.5384388918939
  endloop
endfacet
facet normal 0.0 0.0 -1.0
  outer loop
    vertex 597.0557565572545 357.8662401342797 398.5384388918939
    vertex 598.9176763116454 358.7349221232516 398.5384388918939
    vertex 597.2547370870401 357.6237816572126 398.5384388918939
  endloop
endfacet
facet normal 0.0 0.0 -1.0
  outer loop
    vertex 597.2547370870401 357.6237816572126 398.5384388918939
    vertex 598.9176763116454 358.7349221232516 398.5384388918939
    vertex 604.9176763116454 347.0349221232766 398.5384388918939
  endloop
endfacet
facet normal 0.0 0.0 -1.0
  outer loop
    vertex 597.2547370870401 357.6237816572126 398.5384388918939
    vertex 604.9176763116454 347.0349221232766 398.5384388918939
    vertex 597.4025929593743 357.34716277616536 398.5384388918939
  endloop
endfacet
facet normal 0.0 0.0 -1.0
  outer loop
    vertex 597.4025929593743 357.34716277616536 398.5384388918939
    vertex 604.9176763116454 347.0349221232766 398.5384388918939
    vertex 597.4936421560012 357.047013799607 398.5384388918939
  endloop
endfacet
facet normal 0.0 0.0 -1.0
  outer loop
    vertex 597.4936421560012 357.047013799607 398.5384388918939
    vertex 604.9176763116454 347.0349221232766 398.5384388918939
    vertex 597.524385707356 356.7348692843812 398.5384388918939
  endloop
endfacet
facet normal 0.0 0.0 -1.0
  outer loop
    vertex 597.524385707356 356.7348692843812 398.5384388918939
    vertex 604.9176763116454 347.0349221232766 398.5384388918939
    vertex 597.4936421560012 356.4227247691554 398.5384388918939
  endloop
endfacet
facet normal 0.0 0.0 -1.0
  outer loop
    vertex 597.4936421560012 356.4227247691554 398.5384388918939
    vertex 604.9176763116454 347.0349221232766 398.5384388918939
    vertex 597.4025929593743 356.1225757925971 398.5384388918939
  endloop
endfacet
facet normal 0.0 0.0 -1.0
  outer loop
    vertex 597.4025929593743 356.1225757925971 398.5384388918939
    vertex 604.9176763116454 347.0349221232766 398.5384388918939
    vertex 597.2547370870401 355.84595691154993 398.5384388918939
  endloop
endfacet
facet normal 0.0 0.0 -1.0
  outer loop
    vertex 597.2547370870401 355.84595691154993 398.5384388918939
    vertex 604.9176763116454 347.0349221232766 398.5384388918939
    vertex 597.0557565572545 355.60349843448273 398.5384388918939
  endloop
endfacet
facet normal 0.0 0.0 -1.0
  outer loop
    vertex 597.0557565572545 355.60349843448273 398.5384388918939
    vertex 604.9176763116454 347.0349221232766 398.5384388918939
    vertex 596.8132980801875 355.4045179046972 398.5384388918939
  endloop
endfacet
facet normal 0.0 0.0 -1.0
  outer loop
    vertex 596.8132980801875 355.4045179046972 398.5384388918939
    vertex 604.9176763116454 347.0349221232766 398.5384388918939
    vertex 596.5366791991403 355.2566620323632 398.5384388918939
  endloop
endfacet
facet normal 0.0 0.0 -1.0
  outer loop
    vertex 596.5366791991403 355.2566620323632 398.5384388918939
    vertex 604.9176763116454 347.0349221232766 398.5384388918939
    vertex 596.2365302225819 355.16561283573606 398.5384388918939
  endloop
endfacet
facet normal 0.0 0.0 -1.0
  outer loop
    vertex 596.2365302225819 355.16561283573606 398.5384388918939
    vertex 604.9176763116454 347.0349221232766 398.5384388918939
    vertex 595.9243857073562 355.1348692843813 398.5384388918939
  endloop
endfacet
facet normal 0.0 0.0 -1.0
  outer loop
    vertex 605.2503520243969 346.4125296409203 398.5384388918939
    vertex 601.9243857073561 346.6348692844062 398.5384388918939
    vertex 604.9176763116454 347.0349221232766 398.5384388918939
  endloop
endfacet
facet normal 0.0 0.0 -1.0
  outer loop
    vertex 601.9243857073561 346.6348692844062 398.5384388918939
    vertex 605.2503520243969 346.4125296409203 398.5384388918939
    vertex 602.236530222582 346.6041257330514 398.5384388918939
  endloop
endfacet
facet normal 0.0 0.0 -1.0
  outer loop
    vertex 602.236530222582 346.6041257330514 398.5384388918939
    vertex 605.2503520243969 346.4125296409203 398.5384388918939
    vertex 602.5366791991402 346.51307653642425 398.5384388918939
  endloop
endfacet
facet normal 0.0 0.0 -1.0
  outer loop
    vertex 602.5366791991402 346.51307653642425 398.5384388918939
    vertex 605.2503520243969 346.4125296409203 398.5384388918939
    vertex 602.8132980801876 346.3652206640903 398.5384388918939
  endloop
endfacet
facet normal 0.0 0.0 -1.0
  outer loop
    vertex 602.8132980801876 346.3652206640903 398.5384388918939
    vertex 605.2503520243969 346.4125296409203 398.5384388918939
    vertex 605.4552127168079 345.73719444366407 398.5384388918939
  endloop
endfacet
facet normal 0.0 0.0 -1.0
  outer loop
    vertex 602.8132980801876 346.3652206640903 398.5384388918939
    vertex 605.4552127168079 345.73719444366407 398.5384388918939
    vertex 603.0557565572547 346.1662401343047 398.5384388918939
  endloop
endfacet
facet normal 0.0 0.0 -1.0
  outer loop
    vertex 603.0557565572547 346.1662401343047 398.5384388918939
    vertex 605.4552127168079 345.73719444366407 398.5384388918939
    vertex 603.2547370870402 345.92378165723756 398.5384388918939
  endloop
endfacet
facet normal 0.0 0.0 -1.0
  outer loop
    vertex 603.2547370870402 345.92378165723756 398.5384388918939
    vertex 605.4552127168079 345.73719444366407 398.5384388918939
    vertex 603.4025929593741 345.6471627761904 398.5384388918939
  endloop
endfacet
facet normal 0.0 0.0 -1.0
  outer loop
    vertex 603.4025929593741 345.6471627761904 398.5384388918939
    vertex 605.4552127168079 345.73719444366407 398.5384388918939
    vertex 605.5243857073561 345.034869284406 398.5384388918939
  endloop
endfacet
facet normal 0.0 0.0 -1.0
  outer loop
    vertex 603.4025929593741 345.6471627761904 398.5384388918939
    vertex 605.5243857073561 345.034869284406 398.5384388918939
    vertex 603.4936421560013 345.34701379963207 398.5384388918939
  endloop
endfacet
facet normal 0.0 0.0 -1.0
  outer loop
    vertex 603.4936421560013 345.34701379963207 398.5384388918939
    vertex 605.5243857073561 345.034869284406 398.5384388918939
    vertex 603.5243857073561 345.0348692844063 398.5384388918939
  endloop
endfacet
facet normal 0.0 0.0 -1.0
  outer loop
    vertex 603.5243857073561 345.0348692844063 398.5384388918939
    vertex 605.5243857073561 345.034869284406 398.5384388918939
    vertex 603.4936421560013 344.72272476918045 398.5384388918939
  endloop
endfacet
facet normal 0.0 0.0 -1.0
  outer loop
    vertex 603.4936421560013 344.72272476918045 398.5384388918939
    vertex 605.5243857073561 345.034869284406 398.5384388918939
    vertex 605.4552127168078 344.33254412514793 398.5384388918939
  endloop
endfacet
facet normal 0.0 0.0 -1.0
  outer loop
    vertex 603.4936421560013 344.72272476918045 398.5384388918939
    vertex 605.4552127168078 344.33254412514793 398.5384388918939
    vertex 603.4025929593741 344.42257579262207 398.5384388918939
  endloop
endfacet
facet normal 0.0 0.0 -1.0
  outer loop
    vertex 603.4025929593741 344.42257579262207 398.5384388918939
    vertex 605.4552127168078 344.33254412514793 398.5384388918939
    vertex 603.2547370870402 344.14595691157484 398.5384388918939
  endloop
endfacet
facet normal 0.0 0.0 -1.0
  outer loop
    vertex 603.2547370870402 344.14595691157484 398.5384388918939
    vertex 605.4552127168078 344.33254412514793 398.5384388918939
    vertex 605.2503520243968 343.6572089278917 398.5384388918939
  endloop
endfacet
facet normal 0.0 0.0 -1.0
  outer loop
    vertex 603.2547370870402 344.14595691157484 398.5384388918939
    vertex 605.2503520243968 343.6572089278917 398.5384388918939
    vertex 603.0557565572547 343.9034984345078 398.5384388918939
  endloop
endfacet
facet normal 0.0 0.0 -1.0
  outer loop
    vertex 603.0557565572547 343.9034984345078 398.5384388918939
    vertex 605.2503520243968 343.6572089278917 398.5384388918939
    vertex 602.8132980801876 343.7045179047222 398.5384388918939
  endloop
endfacet
facet normal 0.0 0.0 -1.0
  outer loop
    vertex 602.8132980801876 343.7045179047222 398.5384388918939
    vertex 605.2503520243968 343.6572089278917 398.5384388918939
    vertex 602.5366791991402 343.55666203238826 398.5384388918939
  endloop
endfacet
facet normal 0.0 0.0 -1.0
  outer loop
    vertex 602.5366791991402 343.55666203238826 398.5384388918939
    vertex 605.2503520243968 343.6572089278917 398.5384388918939
    vertex 604.9176763116452 343.03481644553545 398.5384388918939
  endloop
endfacet
facet normal 0.0 0.0 -1.0
  outer loop
    vertex 602.5366791991402 343.55666203238826 398.5384388918939
    vertex 604.9176763116452 343.03481644553545 398.5384388918939
    vertex 602.236530222582 343.46561283576114 398.5384388918939
  endloop
endfacet
facet normal 0.0 0.0 -1.0
  outer loop
    vertex 602.236530222582 343.46561283576114 398.5384388918939
    vertex 604.9176763116452 343.03481644553545 398.5384388918939
    vertex 601.9243857073561 343.4348692844063 398.5384388918939
  endloop
endfacet
facet normal 0.0 0.0 -1.0
  outer loop
    vertex 596.6267108666145 360.2656962938328 398.5384388918939
    vertex 589.4243857073561 360.33486928438117 398.5384388918939
    vertex 595.9243857073565 360.33486928438117 398.5384388918939
  endloop
endfacet
facet normal 0.0 0.0 -1.0
  outer loop
    vertex 589.4243857073561 360.33486928438117 398.5384388918939
    vertex 596.6267108666145 360.2656962938328 398.5384388918939
    vertex 594.594034327672 357.6237816572126 398.5384388918939
  endloop
endfacet
facet normal 0.0 0.0 -1.0
  outer loop
    vertex 589.4243857073561 360.33486928438117 398.5384388918939
    vertex 594.594034327672 357.6237816572126 398.5384388918939
    vertex 594.4461784553381 357.34716277616536 398.5384388918939
  endloop
endfacet
facet normal 0.0 0.0 -1.0
  outer loop
    vertex 589.4243857073561 360.33486928438117 398.5384388918939
    vertex 594.4461784553381 357.34716277616536 398.5384388918939
    vertex 589.4243857073561 341.43486928440626 398.5384388918939
  endloop
endfacet
facet normal 0.0 0.0 -1.0
  outer loop
    vertex 594.594034327672 357.6237816572126 398.5384388918939
    vertex 596.6267108666145 360.2656962938328 398.5384388918939
    vertex 594.7930148574577 357.8662401342797 398.5384388918939
  endloop
endfacet
facet normal 0.0 0.0 -1.0
  outer loop
    vertex 594.7930148574577 357.8662401342797 398.5384388918939
    vertex 596.6267108666145 360.2656962938328 398.5384388918939
    vertex 597.3020460638708 360.06083560142173 398.5384388918939
  endloop
endfacet
facet normal 0.0 0.0 -1.0
  outer loop
    vertex 594.7930148574577 357.8662401342797 398.5384388918939
    vertex 597.3020460638708 360.06083560142173 398.5384388918939
    vertex 595.0354733345248 358.06522066406524 398.5384388918939
  endloop
endfacet
facet normal 0.0 0.0 -1.0
  outer loop
    vertex 595.0354733345248 358.06522066406524 398.5384388918939
    vertex 597.3020460638708 360.06083560142173 398.5384388918939
    vertex 597.924438546227 359.7281598886702 398.5384388918939
  endloop
endfacet
facet normal 0.0 0.0 -1.0
  outer loop
    vertex 595.0354733345248 358.06522066406524 398.5384388918939
    vertex 597.924438546227 359.7281598886702 398.5384388918939
    vertex 595.312092215572 358.2130765363992 398.5384388918939
  endloop
endfacet
facet normal 0.0 0.0 -1.0
  outer loop
    vertex 595.312092215572 358.2130765363992 398.5384388918939
    vertex 597.924438546227 359.7281598886702 398.5384388918939
    vertex 598.469970119628 359.28045369665256 398.5384388918939
  endloop
endfacet
facet normal 0.0 0.0 -1.0
  outer loop
    vertex 595.312092215572 358.2130765363992 398.5384388918939
    vertex 598.469970119628 359.28045369665256 398.5384388918939
    vertex 595.6122411921302 358.30412573302635 398.5384388918939
  endloop
endfacet
facet normal 0.0 0.0 -1.0
  outer loop
    vertex 595.6122411921302 358.30412573302635 398.5384388918939
    vertex 598.469970119628 359.28045369665256 398.5384388918939
    vertex 598.9176763116454 358.7349221232516 398.5384388918939
  endloop
endfacet
facet normal 0.0 0.0 -1.0
  outer loop
    vertex 595.6122411921302 358.30412573302635 398.5384388918939
    vertex 598.9176763116454 358.7349221232516 398.5384388918939
    vertex 595.9243857073562 358.3348692843812 398.5384388918939
  endloop
endfacet
facet normal 0.0 0.0 -1.0
  outer loop
    vertex 589.4243857073561 341.43486928440626 398.5384388918939
    vertex 594.4461784553381 357.34716277616536 398.5384388918939
    vertex 594.355129258711 357.047013799607 398.5384388918939
  endloop
endfacet
facet normal 0.0 0.0 -1.0
  outer loop
    vertex 589.4243857073561 341.43486928440626 398.5384388918939
    vertex 594.355129258711 357.047013799607 398.5384388918939
    vertex 594.3243857073561 356.7348692843812 398.5384388918939
  endloop
endfacet
facet normal 0.0 0.0 -1.0
  outer loop
    vertex 589.4243857073561 341.43486928440626 398.5384388918939
    vertex 594.3243857073561 356.7348692843812 398.5384388918939
    vertex 594.355129258711 356.4227247691554 398.5384388918939
  endloop
endfacet
facet normal 0.0 0.0 -1.0
  outer loop
    vertex 589.4243857073561 341.43486928440626 398.5384388918939
    vertex 594.355129258711 356.4227247691554 398.5384388918939
    vertex 594.4461784553381 356.1225757925971 398.5384388918939
  endloop
endfacet
facet normal 0.0 0.0 -1.0
  outer loop
    vertex 589.4243857073561 341.43486928440626 398.5384388918939
    vertex 594.4461784553381 356.1225757925971 398.5384388918939
    vertex 594.594034327672 355.84595691154993 398.5384388918939
  endloop
endfacet
facet normal 0.0 0.0 -1.0
  outer loop
    vertex 589.4243857073561 341.43486928440626 398.5384388918939
    vertex 594.594034327672 355.84595691154993 398.5384388918939
    vertex 594.7930148574577 355.60349843448273 398.5384388918939
  endloop
endfacet
facet normal 0.0 0.0 -1.0
  outer loop
    vertex 589.4243857073561 341.43486928440626 398.5384388918939
    vertex 594.7930148574577 355.60349843448273 398.5384388918939
    vertex 595.0354733345248 355.4045179046972 398.5384388918939
  endloop
endfacet
facet normal 0.0 0.0 -1.0
  outer loop
    vertex 589.4243857073561 341.43486928440626 398.5384388918939
    vertex 595.0354733345248 355.4045179046972 398.5384388918939
    vertex 595.312092215572 355.2566620323632 398.5384388918939
  endloop
endfacet
facet normal 0.0 0.0 -1.0
  outer loop
    vertex 589.4243857073561 341.43486928440626 398.5384388918939
    vertex 595.312092215572 355.2566620323632 398.5384388918939
    vertex 595.6122411921302 355.16561283573606 398.5384388918939
  endloop
endfacet
facet normal 0.0 0.0 -1.0
  outer loop
    vertex 589.4243857073561 341.43486928440626 398.5384388918939
    vertex 595.6122411921302 355.16561283573606 398.5384388918939
    vertex 595.9243857073562 355.1348692843813 398.5384388918939
  endloop
endfacet
facet normal 0.0 0.0 -1.0
  outer loop
    vertex 589.4243857073561 341.43486928440626 398.5384388918939
    vertex 595.9243857073562 355.1348692843813 398.5384388918939
    vertex 601.312092215572 346.51307653642425 398.5384388918939
  endloop
endfacet
facet normal 0.0 0.0 -1.0
  outer loop
    vertex 601.312092215572 346.51307653642425 398.5384388918939
    vertex 595.9243857073562 355.1348692843813 398.5384388918939
    vertex 601.6122411921302 346.6041257330514 398.5384388918939
  endloop
endfacet
facet normal 0.0 0.0 -1.0
  outer loop
    vertex 601.6122411921302 346.6041257330514 398.5384388918939
    vertex 595.9243857073562 355.1348692843813 398.5384388918939
    vertex 604.9176763116454 347.0349221232766 398.5384388918939
  endloop
endfacet
facet normal 0.0 0.0 -1.0
  outer loop
    vertex 601.6122411921302 346.6041257330514 398.5384388918939
    vertex 604.9176763116454 347.0349221232766 398.5384388918939
    vertex 601.9243857073561 346.6348692844062 398.5384388918939
  endloop
endfacet
facet normal 0.0 0.0 -1.0
  outer loop
    vertex 589.4243857073561 341.43486928440626 398.5384388918939
    vertex 601.312092215572 346.51307653642425 398.5384388918939
    vertex 601.0354733345247 346.3652206640903 398.5384388918939
  endloop
endfacet
facet normal 0.0 0.0 -1.0
  outer loop
    vertex 589.4243857073561 341.43486928440626 398.5384388918939
    vertex 601.0354733345247 346.3652206640903 398.5384388918939
    vertex 600.7930148574576 346.1662401343047 398.5384388918939
  endloop
endfacet
facet normal 0.0 0.0 -1.0
  outer loop
    vertex 589.4243857073561 341.43486928440626 398.5384388918939
    vertex 600.7930148574576 346.1662401343047 398.5384388918939
    vertex 600.594034327672 345.92378165723756 398.5384388918939
  endloop
endfacet
facet normal 0.0 0.0 -1.0
  outer loop
    vertex 589.4243857073561 341.43486928440626 398.5384388918939
    vertex 600.594034327672 345.92378165723756 398.5384388918939
    vertex 600.4461784553381 345.6471627761904 398.5384388918939
  endloop
endfacet
facet normal 0.0 0.0 -1.0
  outer loop
    vertex 589.4243857073561 341.43486928440626 398.5384388918939
    vertex 600.4461784553381 345.6471627761904 398.5384388918939
    vertex 600.3551292587109 345.34701379963207 398.5384388918939
  endloop
endfacet
facet normal 0.0 0.0 -1.0
  outer loop
    vertex 589.4243857073561 341.43486928440626 398.5384388918939
    vertex 600.3551292587109 345.34701379963207 398.5384388918939
    vertex 600.3243857073561 345.0348692844063 398.5384388918939
  endloop
endfacet
facet normal 0.0 0.0 -1.0
  outer loop
    vertex 589.4243857073561 341.43486928440626 398.5384388918939
    vertex 600.3243857073561 345.0348692844063 398.5384388918939
    vertex 600.3551292587109 344.72272476918045 398.5384388918939
  endloop
endfacet
facet normal 0.0 0.0 -1.0
  outer loop
    vertex 589.4243857073561 341.43486928440626 398.5384388918939
    vertex 600.3551292587109 344.72272476918045 398.5384388918939
    vertex 600.4461784553381 344.42257579262207 398.5384388918939
  endloop
endfacet
facet normal 0.0 0.0 -1.0
  outer loop
    vertex 589.4243857073561 341.43486928440626 398.5384388918939
    vertex 600.4461784553381 344.42257579262207 398.5384388918939
    vertex 600.594034327672 344.14595691157484 398.5384388918939
  endloop
endfacet
facet normal 0.0 0.0 -1.0
  outer loop
    vertex 589.4243857073561 341.43486928440626 398.5384388918939
    vertex 600.594034327672 344.14595691157484 398.5384388918939
    vertex 600.7930148574576 343.9034984345078 398.5384388918939
  endloop
endfacet
facet normal 0.0 0.0 -1.0
  outer loop
    vertex 589.4243857073561 341.43486928440626 398.5384388918939
    vertex 600.7930148574576 343.9034984345078 398.5384388918939
    vertex 601.0354733345247 343.7045179047222 398.5384388918939
  endloop
endfacet
facet normal 0.0 0.0 -1.0
  outer loop
    vertex 589.4243857073561 341.43486928440626 398.5384388918939
    vertex 601.0354733345247 343.7045179047222 398.5384388918939
    vertex 601.312092215572 343.55666203238826 398.5384388918939
  endloop
endfacet
facet normal 0.0 0.0 -1.0
  outer loop
    vertex 589.4243857073561 341.43486928440626 398.5384388918939
    vertex 601.312092215572 343.55666203238826 398.5384388918939
    vertex 601.6122411921302 343.46561283576114 398.5384388918939
  endloop
endfacet
facet normal 0.0 0.0 -1.0
  outer loop
    vertex 589.4243857073561 341.43486928440626 398.5384388918939
    vertex 601.6122411921302 343.46561283576114 398.5384388918939
    vertex 601.9243857073561 343.4348692844063 398.5384388918939
  endloop
endfacet
facet normal 0.0 0.0 -1.0
  outer loop
    vertex 589.4243857073561 341.43486928440626 398.5384388918939
    vertex 601.9243857073561 343.4348692844063 398.5384388918939
    vertex 604.9176763116452 343.03481644553545 398.5384388918939
  endloop
endfacet
facet normal 0.0 0.0 -1.0
  outer loop
    vertex 589.4243857073561 341.43486928440626 398.5384388918939
    vertex 604.9176763116452 343.03481644553545 398.5384388918939
    vertex 604.4699701196275 342.48928487213453 398.5384388918939
  endloop
endfacet
facet normal 0.0 0.0 -1.0
  outer loop
    vertex 589.4243857073561 341.43486928440626 398.5384388918939
    vertex 604.4699701196275 342.48928487213453 398.5384388918939
    vertex 603.9244385462265 342.04157868011697 398.5384388918939
  endloop
endfacet
facet normal 0.0 0.0 -1.0
  outer loop
    vertex 589.4243857073561 341.43486928440626 398.5384388918939
    vertex 603.9244385462265 342.04157868011697 398.5384388918939
    vertex 603.3020460638703 341.70890296736553 398.5384388918939
  endloop
endfacet
facet normal 0.0 0.0 -1.0
  outer loop
    vertex 589.4243857073561 341.43486928440626 398.5384388918939
    vertex 603.3020460638703 341.70890296736553 398.5384388918939
    vertex 602.626710866614 341.50404227495466 398.5384388918939
  endloop
endfacet
facet normal 0.0 0.0 -1.0
  outer loop
    vertex 589.4243857073561 341.43486928440626 398.5384388918939
    vertex 602.626710866614 341.50404227495466 398.5384388918939
    vertex 601.924385707356 341.43486928440626 398.5384388918939
  endloop
endfacet
facet normal 0.956940335732186 -0.2902846772545378 0.0
  outer loop
    vertex 605.4552127168078 344.33254412514793 403.5384388918939
    vertex 605.2503520243968 343.6572089278917 398.5384388918939
    vertex 605.4552127168078 344.33254412514793 398.5384388918939
  endloop
endfacet
facet normal 0.956940335732186 -0.2902846772545378 0.0
  outer loop
    vertex 605.2503520243968 343.6572089278917 398.5384388918939
    vertex 605.4552127168078 344.33254412514793 403.5384388918939
    vertex 605.2503520243968 343.6572089278917 403.5384388918939
  endloop
endfacet
facet normal 0.9569403357322301 0.2902846772543927 0.0
  outer loop
    vertex 605.2503520243969 346.4125296409203 403.5384388918939
    vertex 605.4552127168079 345.73719444366407 398.5384388918939
    vertex 605.2503520243969 346.4125296409203 398.5384388918939
  endloop
endfacet
facet normal 0.9569403357322301 0.2902846772543927 0.0
  outer loop
    vertex 605.4552127168079 345.73719444366407 398.5384388918939
    vertex 605.2503520243969 346.4125296409203 403.5384388918939
    vertex 605.4552127168079 345.73719444366407 403.5384388918939
  endloop
endfacet
facet normal 0.8819212643483855 0.47139673682594063 0.0
  outer loop
    vertex 604.9176763116454 347.0349221232766 403.5384388918939
    vertex 605.2503520243969 346.4125296409203 398.5384388918939
    vertex 604.9176763116454 347.0349221232766 398.5384388918939
  endloop
endfacet
facet normal 0.8819212643483855 0.47139673682594063 0.0
  outer loop
    vertex 605.2503520243969 346.4125296409203 398.5384388918939
    vertex 604.9176763116454 347.0349221232766 403.5384388918939
    vertex 605.2503520243969 346.4125296409203 403.5384388918939
  endloop
endfacet
facet normal 0.8819212643483249 -0.4713967368260544 0.0
  outer loop
    vertex 605.2503520243968 343.6572089278917 403.5384388918939
    vertex 604.9176763116452 343.03481644553545 398.5384388918939
    vertex 605.2503520243968 343.6572089278917 398.5384388918939
  endloop
endfacet
facet normal 0.8819212643483249 -0.4713967368260544 0.0
  outer loop
    vertex 604.9176763116452 343.03481644553545 398.5384388918939
    vertex 605.2503520243968 343.6572089278917 403.5384388918939
    vertex 604.9176763116452 343.03481644553545 403.5384388918939
  endloop
endfacet
facet normal 0.7730104533626851 -0.6343932841637085 0.0
  outer loop
    vertex 604.9176763116452 343.03481644553545 403.5384388918939
    vertex 604.4699701196275 342.48928487213453 398.5384388918939
    vertex 604.9176763116452 343.03481644553545 398.5384388918939
  endloop
endfacet
facet normal 0.7730104533626851 -0.6343932841637085 0.0
  outer loop
    vertex 604.4699701196275 342.48928487213453 398.5384388918939
    vertex 604.9176763116452 343.03481644553545 403.5384388918939
    vertex 604.4699701196275 342.48928487213453 403.5384388918939
  endloop
endfacet
facet normal 0.47139673682605765 0.881921264348323 0.0
  outer loop
    vertex 597.924438546227 359.7281598886702 403.5384388918939
    vertex 597.3020460638708 360.06083560142173 398.5384388918939
    vertex 597.3020460638708 360.06083560142173 403.5384388918939
  endloop
endfacet
facet normal 0.47139673682605765 0.881921264348323 0.0
  outer loop
    vertex 597.3020460638708 360.06083560142173 398.5384388918939
    vertex 597.924438546227 359.7281598886702 403.5384388918939
    vertex 597.924438546227 359.7281598886702 398.5384388918939
  endloop
endfacet
facet normal 6.938893903907227e-17 1.0 0.0
  outer loop
    vertex 595.9243857073565 360.33486928438117 403.5384388918939
    vertex 589.4243857073561 360.33486928438117 398.5384388918939
    vertex 589.4243857073561 360.33486928438117 403.5384388918939
  endloop
endfacet
facet normal 6.938893903907227e-17 1.0 0.0
  outer loop
    vertex 589.4243857073561 360.33486928438117 398.5384388918939
    vertex 595.9243857073565 360.33486928438117 403.5384388918939
    vertex 595.9243857073565 360.33486928438117 398.5384388918939
  endloop
endfacet
facet normal 0.2902846772545378 0.956940335732186 0.0
  outer loop
    vertex 597.3020460638708 360.06083560142173 403.5384388918939
    vertex 596.6267108666145 360.2656962938328 398.5384388918939
    vertex 596.6267108666145 360.2656962938328 403.5384388918939
  endloop
endfacet
facet normal 0.2902846772545378 0.956940335732186 0.0
  outer loop
    vertex 596.6267108666145 360.2656962938328 398.5384388918939
    vertex 597.3020460638708 360.06083560142173 403.5384388918939
    vertex 597.3020460638708 360.06083560142173 398.5384388918939
  endloop
endfacet
facet normal 0.09801714032962404 0.9951847266721908 0.0
  outer loop
    vertex 596.6267108666145 360.2656962938328 403.5384388918939
    vertex 595.9243857073565 360.33486928438117 398.5384388918939
    vertex 595.9243857073565 360.33486928438117 403.5384388918939
  endloop
endfacet
facet normal 0.09801714032962404 0.9951847266721908 0.0
  outer loop
    vertex 595.9243857073565 360.33486928438117 398.5384388918939
    vertex 596.6267108666145 360.2656962938328 403.5384388918939
    vertex 596.6267108666145 360.2656962938328 398.5384388918939
  endloop
endfacet
facet normal 0.6343932841635977 -0.7730104533627762 0.0
  outer loop
    vertex 604.4699701196275 342.48928487213453 398.5384388918939
    vertex 603.9244385462265 342.04157868011697 403.5384388918939
    vertex 603.9244385462265 342.04157868011697 398.5384388918939
  endloop
endfacet
facet normal 0.6343932841635977 -0.7730104533627762 0.0
  outer loop
    vertex 603.9244385462265 342.04157868011697 403.5384388918939
    vertex 604.4699701196275 342.48928487213453 398.5384388918939
    vertex 604.4699701196275 342.48928487213453 403.5384388918939
  endloop
endfacet
facet normal 0.47139673682593153 -0.8819212643483905 0.0
  outer loop
    vertex 603.9244385462265 342.04157868011697 398.5384388918939
    vertex 603.3020460638703 341.70890296736553 403.5384388918939
    vertex 603.3020460638703 341.70890296736553 398.5384388918939
  endloop
endfacet
facet normal 0.47139673682593153 -0.8819212643483905 0.0
  outer loop
    vertex 603.3020460638703 341.70890296736553 403.5384388918939
    vertex 603.9244385462265 342.04157868011697 398.5384388918939
    vertex 603.9244385462265 342.04157868011697 403.5384388918939
  endloop
endfacet
facet normal 0.2902846772543927 -0.9569403357322301 0.0
  outer loop
    vertex 603.3020460638703 341.70890296736553 398.5384388918939
    vertex 602.626710866614 341.50404227495466 403.5384388918939
    vertex 602.626710866614 341.50404227495466 398.5384388918939
  endloop
endfacet
facet normal 0.2902846772543927 -0.9569403357322301 0.0
  outer loop
    vertex 602.626710866614 341.50404227495466 403.5384388918939
    vertex 603.3020460638703 341.70890296736553 398.5384388918939
    vertex 603.3020460638703 341.70890296736553 403.5384388918939
  endloop
endfacet
facet normal -0.09801714032981325 -0.9951847266721721 0.0
  outer loop
    vertex 596.2365302225819 358.30412573302635 398.5384388918939
    vertex 595.9243857073562 358.3348692843812 403.5384388918939
    vertex 595.9243857073562 358.3348692843812 398.5384388918939
  endloop
endfacet
facet normal -0.09801714032981325 -0.9951847266721721 0.0
  outer loop
    vertex 595.9243857073562 358.3348692843812 403.5384388918939
    vertex 596.2365302225819 358.30412573302635 398.5384388918939
    vertex 596.2365302225819 358.30412573302635 403.5384388918939
  endloop
endfacet
facet normal 0.9951847266722049 0.09801714032948065 0.0
  outer loop
    vertex 605.4552127168079 345.73719444366407 403.5384388918939
    vertex 605.5243857073561 345.034869284406 398.5384388918939
    vertex 605.4552127168079 345.73719444366407 398.5384388918939
  endloop
endfacet
facet normal 0.9951847266722049 0.09801714032948065 0.0
  outer loop
    vertex 605.5243857073561 345.034869284406 398.5384388918939
    vertex 605.4552127168079 345.73719444366407 403.5384388918939
    vertex 605.5243857073561 345.034869284406 403.5384388918939
  endloop
endfacet
facet normal 0.09801714032972894 -0.9951847266721804 0.0
  outer loop
    vertex 595.9243857073562 358.3348692843812 398.5384388918939
    vertex 595.6122411921302 358.30412573302635 403.5384388918939
    vertex 595.6122411921302 358.30412573302635 398.5384388918939
  endloop
endfacet
facet normal 0.09801714032972894 -0.9951847266721804 0.0
  outer loop
    vertex 595.6122411921302 358.30412573302635 403.5384388918939
    vertex 595.9243857073562 358.3348692843812 398.5384388918939
    vertex 595.9243857073562 358.3348692843812 403.5384388918939
  endloop
endfacet
facet normal 0.4713967368258818 -0.881921264348417 0.0
  outer loop
    vertex 595.312092215572 358.2130765363992 398.5384388918939
    vertex 595.0354733345248 358.06522066406524 403.5384388918939
    vertex 595.0354733345248 358.06522066406524 398.5384388918939
  endloop
endfacet
facet normal 0.4713967368258818 -0.881921264348417 0.0
  outer loop
    vertex 595.0354733345248 358.06522066406524 403.5384388918939
    vertex 595.312092215572 358.2130765363992 398.5384388918939
    vertex 595.312092215572 358.2130765363992 403.5384388918939
  endloop
endfacet
facet normal 0.6343932841637991 -0.7730104533626108 0.0
  outer loop
    vertex 595.0354733345248 358.06522066406524 398.5384388918939
    vertex 594.7930148574577 357.8662401342797 403.5384388918939
    vertex 594.7930148574577 357.8662401342797 398.5384388918939
  endloop
endfacet
facet normal 0.6343932841637991 -0.7730104533626108 0.0
  outer loop
    vertex 594.7930148574577 357.8662401342797 403.5384388918939
    vertex 595.0354733345248 358.06522066406524 398.5384388918939
    vertex 595.0354733345248 358.06522066406524 403.5384388918939
  endloop
endfacet
facet normal 0.7730104533625276 -0.6343932841639005 0.0
  outer loop
    vertex 594.7930148574577 357.8662401342797 403.5384388918939
    vertex 594.594034327672 357.6237816572126 398.5384388918939
    vertex 594.7930148574577 357.8662401342797 398.5384388918939
  endloop
endfacet
facet normal 0.7730104533625276 -0.6343932841639005 0.0
  outer loop
    vertex 594.594034327672 357.6237816572126 398.5384388918939
    vertex 594.7930148574577 357.8662401342797 403.5384388918939
    vertex 594.594034327672 357.6237816572126 403.5384388918939
  endloop
endfacet
facet normal 0.8819212643482974 -0.4713967368261057 0.0
  outer loop
    vertex 594.594034327672 357.6237816572126 403.5384388918939
    vertex 594.4461784553381 357.34716277616536 398.5384388918939
    vertex 594.594034327672 357.6237816572126 398.5384388918939
  endloop
endfacet
facet normal 0.8819212643482974 -0.4713967368261057 0.0
  outer loop
    vertex 594.4461784553381 357.34716277616536 398.5384388918939
    vertex 594.594034327672 357.6237816572126 403.5384388918939
    vertex 594.4461784553381 357.34716277616536 403.5384388918939
  endloop
endfacet
facet normal 0.9569403357323543 -0.290284677253983 0.0
  outer loop
    vertex 594.4461784553381 357.34716277616536 403.5384388918939
    vertex 594.355129258711 357.047013799607 398.5384388918939
    vertex 594.4461784553381 357.34716277616536 398.5384388918939
  endloop
endfacet
facet normal 0.9569403357323543 -0.290284677253983 0.0
  outer loop
    vertex 594.355129258711 357.047013799607 398.5384388918939
    vertex 594.4461784553381 357.34716277616536 403.5384388918939
    vertex 594.355129258711 357.047013799607 403.5384388918939
  endloop
endfacet
facet normal 0.9951847266721482 -0.09801714033005611 0.0
  outer loop
    vertex 594.355129258711 357.047013799607 403.5384388918939
    vertex 594.3243857073561 356.7348692843812 398.5384388918939
    vertex 594.355129258711 357.047013799607 398.5384388918939
  endloop
endfacet
facet normal 0.9951847266721482 -0.09801714033005611 0.0
  outer loop
    vertex 594.3243857073561 356.7348692843812 398.5384388918939
    vertex 594.355129258711 357.047013799607 403.5384388918939
    vertex 594.3243857073561 356.7348692843812 403.5384388918939
  endloop
endfacet
facet normal 0.9951847266721495 0.09801714033004193 0.0
  outer loop
    vertex 594.3243857073561 356.7348692843812 403.5384388918939
    vertex 594.355129258711 356.4227247691554 398.5384388918939
    vertex 594.3243857073561 356.7348692843812 398.5384388918939
  endloop
endfacet
facet normal 0.9951847266721495 0.09801714033004193 0.0
  outer loop
    vertex 594.355129258711 356.4227247691554 398.5384388918939
    vertex 594.3243857073561 356.7348692843812 403.5384388918939
    vertex 594.355129258711 356.4227247691554 403.5384388918939
  endloop
endfacet
facet normal 0.9569403357323423 0.29028467725402285 0.0
  outer loop
    vertex 594.355129258711 356.4227247691554 403.5384388918939
    vertex 594.4461784553381 356.1225757925971 398.5384388918939
    vertex 594.355129258711 356.4227247691554 398.5384388918939
  endloop
endfacet
facet normal 0.9569403357323423 0.29028467725402285 0.0
  outer loop
    vertex 594.4461784553381 356.1225757925971 398.5384388918939
    vertex 594.355129258711 356.4227247691554 403.5384388918939
    vertex 594.4461784553381 356.1225757925971 403.5384388918939
  endloop
endfacet
facet normal 0.8819212643482655 0.4713967368261654 0.0
  outer loop
    vertex 594.4461784553381 356.1225757925971 403.5384388918939
    vertex 594.594034327672 355.84595691154993 398.5384388918939
    vertex 594.4461784553381 356.1225757925971 398.5384388918939
  endloop
endfacet
facet normal 0.8819212643482655 0.4713967368261654 0.0
  outer loop
    vertex 594.594034327672 355.84595691154993 398.5384388918939
    vertex 594.4461784553381 356.1225757925971 403.5384388918939
    vertex 594.594034327672 355.84595691154993 403.5384388918939
  endloop
endfacet
facet normal 0.7730104533626434 0.6343932841637595 0.0
  outer loop
    vertex 594.594034327672 355.84595691154993 403.5384388918939
    vertex 594.7930148574577 355.60349843448273 398.5384388918939
    vertex 594.594034327672 355.84595691154993 398.5384388918939
  endloop
endfacet
facet normal 0.7730104533626434 0.6343932841637595 0.0
  outer loop
    vertex 594.7930148574577 355.60349843448273 398.5384388918939
    vertex 594.594034327672 355.84595691154993 403.5384388918939
    vertex 594.7930148574577 355.60349843448273 403.5384388918939
  endloop
endfacet
facet normal 0.6343932841637991 0.7730104533626108 0.0
  outer loop
    vertex 595.0354733345248 355.4045179046972 403.5384388918939
    vertex 594.7930148574577 355.60349843448273 398.5384388918939
    vertex 594.7930148574577 355.60349843448273 403.5384388918939
  endloop
endfacet
facet normal 0.6343932841637991 0.7730104533626108 0.0
  outer loop
    vertex 594.7930148574577 355.60349843448273 398.5384388918939
    vertex 595.0354733345248 355.4045179046972 403.5384388918939
    vertex 595.0354733345248 355.4045179046972 398.5384388918939
  endloop
endfacet
facet normal 0.4713967368258819 0.881921264348417 0.0
  outer loop
    vertex 595.312092215572 355.2566620323632 403.5384388918939
    vertex 595.0354733345248 355.4045179046972 398.5384388918939
    vertex 595.0354733345248 355.4045179046972 403.5384388918939
  endloop
endfacet
facet normal 0.4713967368258819 0.881921264348417 0.0
  outer loop
    vertex 595.0354733345248 355.4045179046972 398.5384388918939
    vertex 595.312092215572 355.2566620323632 403.5384388918939
    vertex 595.312092215572 355.2566620323632 398.5384388918939
  endloop
endfacet
facet normal 0.29028467725458984 0.9569403357321703 0.0
  outer loop
    vertex 595.6122411921302 355.16561283573606 403.5384388918939
    vertex 595.312092215572 355.2566620323632 398.5384388918939
    vertex 595.312092215572 355.2566620323632 403.5384388918939
  endloop
endfacet
facet normal 0.29028467725458984 0.9569403357321703 0.0
  outer loop
    vertex 595.312092215572 355.2566620323632 398.5384388918939
    vertex 595.6122411921302 355.16561283573606 403.5384388918939
    vertex 595.6122411921302 355.16561283573606 398.5384388918939
  endloop
endfacet
facet normal 0.09801714032944413 0.9951847266722084 0.0
  outer loop
    vertex 595.9243857073562 355.1348692843813 403.5384388918939
    vertex 595.6122411921302 355.16561283573606 398.5384388918939
    vertex 595.6122411921302 355.16561283573606 403.5384388918939
  endloop
endfacet
facet normal 0.09801714032944413 0.9951847266722084 0.0
  outer loop
    vertex 595.6122411921302 355.16561283573606 398.5384388918939
    vertex 595.9243857073562 355.1348692843813 403.5384388918939
    vertex 595.9243857073562 355.1348692843813 398.5384388918939
  endloop
endfacet
facet normal -0.09801714032952819 0.9951847266722001 0.0
  outer loop
    vertex 596.2365302225819 355.16561283573606 403.5384388918939
    vertex 595.9243857073562 355.1348692843813 398.5384388918939
    vertex 595.9243857073562 355.1348692843813 403.5384388918939
  endloop
endfacet
facet normal -0.09801714032952819 0.9951847266722001 0.0
  outer loop
    vertex 595.9243857073562 355.1348692843813 398.5384388918939
    vertex 596.2365302225819 355.16561283573606 403.5384388918939
    vertex 596.2365302225819 355.16561283573606 398.5384388918939
  endloop
endfacet
facet normal -0.2902846772544299 0.9569403357322188 0.0
  outer loop
    vertex 596.5366791991403 355.2566620323632 403.5384388918939
    vertex 596.2365302225819 355.16561283573606 398.5384388918939
    vertex 596.2365302225819 355.16561283573606 403.5384388918939
  endloop
endfacet
facet normal -0.2902846772544299 0.9569403357322188 0.0
  outer loop
    vertex 596.2365302225819 355.16561283573606 398.5384388918939
    vertex 596.5366791991403 355.2566620323632 403.5384388918939
    vertex 596.5366791991403 355.2566620323632 398.5384388918939
  endloop
endfacet
facet normal -0.4713967368258818 0.881921264348417 0.0
  outer loop
    vertex 596.8132980801875 355.4045179046972 403.5384388918939
    vertex 596.5366791991403 355.2566620323632 398.5384388918939
    vertex 596.5366791991403 355.2566620323632 403.5384388918939
  endloop
endfacet
facet normal -0.4713967368258818 0.881921264348417 0.0
  outer loop
    vertex 596.5366791991403 355.2566620323632 398.5384388918939
    vertex 596.8132980801875 355.4045179046972 403.5384388918939
    vertex 596.8132980801875 355.4045179046972 398.5384388918939
  endloop
endfacet
facet normal 0.29028467725458973 -0.9569403357321703 0.0
  outer loop
    vertex 595.6122411921302 358.30412573302635 398.5384388918939
    vertex 595.312092215572 358.2130765363992 403.5384388918939
    vertex 595.312092215572 358.2130765363992 398.5384388918939
  endloop
endfacet
facet normal 0.29028467725458973 -0.9569403357321703 0.0
  outer loop
    vertex 595.312092215572 358.2130765363992 403.5384388918939
    vertex 595.6122411921302 358.30412573302635 398.5384388918939
    vertex 595.6122411921302 358.30412573302635 403.5384388918939
  endloop
endfacet
facet normal -0.634393284163658 0.7730104533627266 0.0
  outer loop
    vertex 597.0557565572545 355.60349843448273 403.5384388918939
    vertex 596.8132980801875 355.4045179046972 398.5384388918939
    vertex 596.8132980801875 355.4045179046972 403.5384388918939
  endloop
endfacet
facet normal -0.634393284163658 0.7730104533627266 0.0
  outer loop
    vertex 596.8132980801875 355.4045179046972 398.5384388918939
    vertex 597.0557565572545 355.60349843448273 403.5384388918939
    vertex 597.0557565572545 355.60349843448273 398.5384388918939
  endloop
endfacet
facet normal -0.7730104533629256 0.6343932841634157 0.0
  outer loop
    vertex 597.0557565572545 355.60349843448273 403.5384388918939
    vertex 597.2547370870401 355.84595691154993 398.5384388918939
    vertex 597.0557565572545 355.60349843448273 398.5384388918939
  endloop
endfacet
facet normal -0.7730104533629256 0.6343932841634157 0.0
  outer loop
    vertex 597.2547370870401 355.84595691154993 398.5384388918939
    vertex 597.0557565572545 355.60349843448273 403.5384388918939
    vertex 597.2547370870401 355.84595691154993 403.5384388918939
  endloop
endfacet
facet normal -0.8819212643482655 0.4713967368261655 0.0
  outer loop
    vertex 597.2547370870401 355.84595691154993 403.5384388918939
    vertex 597.4025929593743 356.1225757925971 398.5384388918939
    vertex 597.2547370870401 355.84595691154993 398.5384388918939
  endloop
endfacet
facet normal -0.8819212643482655 0.4713967368261655 0.0
  outer loop
    vertex 597.4025929593743 356.1225757925971 398.5384388918939
    vertex 597.2547370870401 355.84595691154993 403.5384388918939
    vertex 597.4025929593743 356.1225757925971 403.5384388918939
  endloop
endfacet
facet normal -0.9569403357321824 0.29028467725454987 0.0
  outer loop
    vertex 597.4025929593743 356.1225757925971 403.5384388918939
    vertex 597.4936421560012 356.4227247691554 398.5384388918939
    vertex 597.4025929593743 356.1225757925971 398.5384388918939
  endloop
endfacet
facet normal -0.9569403357321824 0.29028467725454987 0.0
  outer loop
    vertex 597.4936421560012 356.4227247691554 398.5384388918939
    vertex 597.4025929593743 356.1225757925971 403.5384388918939
    vertex 597.4936421560012 356.4227247691554 403.5384388918939
  endloop
endfacet
facet normal -0.9951847266722057 0.0980171403294722 0.0
  outer loop
    vertex 597.4936421560012 356.4227247691554 403.5384388918939
    vertex 597.524385707356 356.7348692843812 398.5384388918939
    vertex 597.4936421560012 356.4227247691554 398.5384388918939
  endloop
endfacet
facet normal -0.9951847266722057 0.0980171403294722 0.0
  outer loop
    vertex 597.524385707356 356.7348692843812 398.5384388918939
    vertex 597.4936421560012 356.4227247691554 403.5384388918939
    vertex 597.524385707356 356.7348692843812 403.5384388918939
  endloop
endfacet
facet normal -0.9951847266722044 -0.09801714032948611 0.0
  outer loop
    vertex 597.524385707356 356.7348692843812 403.5384388918939
    vertex 597.4936421560012 357.047013799607 398.5384388918939
    vertex 597.524385707356 356.7348692843812 398.5384388918939
  endloop
endfacet
facet normal -0.9951847266722044 -0.09801714032948611 0.0
  outer loop
    vertex 597.4936421560012 357.047013799607 398.5384388918939
    vertex 597.524385707356 356.7348692843812 403.5384388918939
    vertex 597.4936421560012 357.047013799607 403.5384388918939
  endloop
endfacet
facet normal -0.9569403357321945 -0.2902846772545098 0.0
  outer loop
    vertex 597.4936421560012 357.047013799607 403.5384388918939
    vertex 597.4025929593743 357.34716277616536 398.5384388918939
    vertex 597.4936421560012 357.047013799607 398.5384388918939
  endloop
endfacet
facet normal -0.9569403357321945 -0.2902846772545098 0.0
  outer loop
    vertex 597.4025929593743 357.34716277616536 398.5384388918939
    vertex 597.4936421560012 357.047013799607 403.5384388918939
    vertex 597.4025929593743 357.34716277616536 403.5384388918939
  endloop
endfacet
facet normal -0.8819212643482974 -0.4713967368261056 0.0
  outer loop
    vertex 597.4025929593743 357.34716277616536 403.5384388918939
    vertex 597.2547370870401 357.6237816572126 398.5384388918939
    vertex 597.4025929593743 357.34716277616536 398.5384388918939
  endloop
endfacet
facet normal -0.8819212643482974 -0.4713967368261056 0.0
  outer loop
    vertex 597.2547370870401 357.6237816572126 398.5384388918939
    vertex 597.4025929593743 357.34716277616536 403.5384388918939
    vertex 597.2547370870401 357.6237816572126 403.5384388918939
  endloop
endfacet
facet normal -0.7730104533628098 -0.6343932841635568 0.0
  outer loop
    vertex 597.2547370870401 357.6237816572126 403.5384388918939
    vertex 597.0557565572545 357.8662401342797 398.5384388918939
    vertex 597.2547370870401 357.6237816572126 398.5384388918939
  endloop
endfacet
facet normal -0.7730104533628098 -0.6343932841635568 0.0
  outer loop
    vertex 597.0557565572545 357.8662401342797 398.5384388918939
    vertex 597.2547370870401 357.6237816572126 403.5384388918939
    vertex 597.0557565572545 357.8662401342797 403.5384388918939
  endloop
endfacet
facet normal -0.634393284163658 -0.7730104533627266 0.0
  outer loop
    vertex 597.0557565572545 357.8662401342797 398.5384388918939
    vertex 596.8132980801875 358.06522066406524 403.5384388918939
    vertex 596.8132980801875 358.06522066406524 398.5384388918939
  endloop
endfacet
facet normal -0.634393284163658 -0.7730104533627266 0.0
  outer loop
    vertex 596.8132980801875 358.06522066406524 403.5384388918939
    vertex 597.0557565572545 357.8662401342797 398.5384388918939
    vertex 597.0557565572545 357.8662401342797 403.5384388918939
  endloop
endfacet
facet normal -0.4713967368258819 -0.881921264348417 0.0
  outer loop
    vertex 596.8132980801875 358.06522066406524 398.5384388918939
    vertex 596.5366791991403 358.2130765363992 403.5384388918939
    vertex 596.5366791991403 358.2130765363992 398.5384388918939
  endloop
endfacet
facet normal -0.4713967368258819 -0.881921264348417 0.0
  outer loop
    vertex 596.5366791991403 358.2130765363992 403.5384388918939
    vertex 596.8132980801875 358.06522066406524 398.5384388918939
    vertex 596.8132980801875 358.06522066406524 403.5384388918939
  endloop
endfacet
facet normal -0.29028467725443 -0.9569403357322188 0.0
  outer loop
    vertex 596.5366791991403 358.2130765363992 398.5384388918939
    vertex 596.2365302225819 358.30412573302635 403.5384388918939
    vertex 596.2365302225819 358.30412573302635 398.5384388918939
  endloop
endfacet
facet normal -0.29028467725443 -0.9569403357322188 0.0
  outer loop
    vertex 596.2365302225819 358.30412573302635 403.5384388918939
    vertex 596.5366791991403 358.2130765363992 398.5384388918939
    vertex 596.5366791991403 358.2130765363992 403.5384388918939
  endloop
endfacet
facet normal 0.09801714032944413 0.9951847266722084 0.0
  outer loop
    vertex 601.9243857073561 343.4348692844063 403.5384388918939
    vertex 601.6122411921302 343.46561283576114 398.5384388918939
    vertex 601.6122411921302 343.46561283576114 403.5384388918939
  endloop
endfacet
facet normal 0.09801714032944413 0.9951847266722084 0.0
  outer loop
    vertex 601.6122411921302 343.46561283576114 398.5384388918939
    vertex 601.9243857073561 343.4348692844063 403.5384388918939
    vertex 601.9243857073561 343.4348692844063 398.5384388918939
  endloop
endfacet
facet normal -0.09801714032950011 0.9951847266722028 0.0
  outer loop
    vertex 602.236530222582 343.46561283576114 403.5384388918939
    vertex 601.9243857073561 343.4348692844063 398.5384388918939
    vertex 601.9243857073561 343.4348692844063 403.5384388918939
  endloop
endfacet
facet normal -0.09801714032950011 0.9951847266722028 0.0
  outer loop
    vertex 601.9243857073561 343.4348692844063 398.5384388918939
    vertex 602.236530222582 343.46561283576114 403.5384388918939
    vertex 602.236530222582 343.46561283576114 398.5384388918939
  endloop
endfacet
facet normal 0.7730104533627801 0.634393284163593 0.0
  outer loop
    vertex 598.469970119628 359.28045369665256 403.5384388918939
    vertex 598.9176763116454 358.7349221232516 398.5384388918939
    vertex 598.469970119628 359.28045369665256 398.5384388918939
  endloop
endfacet
facet normal 0.7730104533627801 0.634393284163593 0.0
  outer loop
    vertex 598.9176763116454 358.7349221232516 398.5384388918939
    vertex 598.469970119628 359.28045369665256 403.5384388918939
    vertex 598.9176763116454 358.7349221232516 403.5384388918939
  endloop
endfacet
facet normal 0.6343932841637085 0.7730104533626851 0.0
  outer loop
    vertex 598.469970119628 359.28045369665256 403.5384388918939
    vertex 597.924438546227 359.7281598886702 398.5384388918939
    vertex 597.924438546227 359.7281598886702 403.5384388918939
  endloop
endfacet
facet normal 0.6343932841637085 0.7730104533626851 0.0
  outer loop
    vertex 597.924438546227 359.7281598886702 398.5384388918939
    vertex 598.469970119628 359.28045369665256 403.5384388918939
    vertex 598.469970119628 359.28045369665256 398.5384388918939
  endloop
endfacet
facet normal -1.0 6.938893903907227e-17 0.0
  outer loop
    vertex 589.4243857073561 341.43486928440626 403.5384388918939
    vertex 589.4243857073561 360.33486928438117 398.5384388918939
    vertex 589.4243857073561 341.43486928440626 398.5384388918939
  endloop
endfacet
facet normal -1.0 6.938893903907227e-17 0.0
  outer loop
    vertex 589.4243857073561 360.33486928438117 398.5384388918939
    vertex 589.4243857073561 341.43486928440626 403.5384388918939
    vertex 589.4243857073561 360.33486928438117 403.5384388918939
  endloop
endfacet
facet normal 0.8898174628123409 0.45631664759704793 0.0
  outer loop
    vertex 598.9176763116454 358.7349221232516 403.5384388918939
    vertex 604.9176763116454 347.0349221232766 398.5384388918939
    vertex 598.9176763116454 358.7349221232516 398.5384388918939
  endloop
endfacet
facet normal 0.8898174628123409 0.45631664759704793 0.0
  outer loop
    vertex 604.9176763116454 347.0349221232766 398.5384388918939
    vertex 598.9176763116454 358.7349221232516 403.5384388918939
    vertex 604.9176763116454 347.0349221232766 403.5384388918939
  endloop
endfacet
facet normal 0.09801714032948776 -0.995184726672204 0.0
  outer loop
    vertex 602.626710866614 341.50404227495466 398.5384388918939
    vertex 601.924385707356 341.43486928440626 403.5384388918939
    vertex 601.924385707356 341.43486928440626 398.5384388918939
  endloop
endfacet
facet normal 0.09801714032948776 -0.995184726672204 0.0
  outer loop
    vertex 601.924385707356 341.43486928440626 403.5384388918939
    vertex 602.626710866614 341.50404227495466 398.5384388918939
    vertex 602.626710866614 341.50404227495466 403.5384388918939
  endloop
endfacet
facet normal -6.938893903907227e-17 -1.0 0.0
  outer loop
    vertex 601.924385707356 341.43486928440626 398.5384388918939
    vertex 589.4243857073561 341.43486928440626 403.5384388918939
    vertex 589.4243857073561 341.43486928440626 398.5384388918939
  endloop
endfacet
facet normal -6.938893903907227e-17 -1.0 0.0
  outer loop
    vertex 589.4243857073561 341.43486928440626 403.5384388918939
    vertex 601.924385707356 341.43486928440626 398.5384388918939
    vertex 601.924385707356 341.43486928440626 403.5384388918939
  endloop
endfacet
facet normal -0.7730104533628098 0.6343932841635568 0.0
  outer loop
    vertex 603.0557565572547 343.9034984345078 403.5384388918939
    vertex 603.2547370870402 344.14595691157484 398.5384388918939
    vertex 603.0557565572547 343.9034984345078 398.5384388918939
  endloop
endfacet
facet normal -0.7730104533628098 0.6343932841635568 0.0
  outer loop
    vertex 603.2547370870402 344.14595691157484 398.5384388918939
    vertex 603.0557565572547 343.9034984345078 403.5384388918939
    vertex 603.2547370870402 344.14595691157484 403.5384388918939
  endloop
endfacet
facet normal -0.634393284163658 0.7730104533627266 0.0
  outer loop
    vertex 603.0557565572547 343.9034984345078 403.5384388918939
    vertex 602.8132980801876 343.7045179047222 398.5384388918939
    vertex 602.8132980801876 343.7045179047222 403.5384388918939
  endloop
endfacet
facet normal -0.634393284163658 0.7730104533627266 0.0
  outer loop
    vertex 602.8132980801876 343.7045179047222 398.5384388918939
    vertex 603.0557565572547 343.9034984345078 403.5384388918939
    vertex 603.0557565572547 343.9034984345078 398.5384388918939
  endloop
endfacet
facet normal -0.4713967368257622 0.881921264348481 0.0
  outer loop
    vertex 602.8132980801876 343.7045179047222 403.5384388918939
    vertex 602.5366791991402 343.55666203238826 398.5384388918939
    vertex 602.5366791991402 343.55666203238826 403.5384388918939
  endloop
endfacet
facet normal -0.4713967368257622 0.881921264348481 0.0
  outer loop
    vertex 602.5366791991402 343.55666203238826 398.5384388918939
    vertex 602.8132980801876 343.7045179047222 403.5384388918939
    vertex 602.8132980801876 343.7045179047222 398.5384388918939
  endloop
endfacet
facet normal -0.29028467725458973 0.9569403357321703 0.0
  outer loop
    vertex 602.5366791991402 343.55666203238826 403.5384388918939
    vertex 602.236530222582 343.46561283576114 398.5384388918939
    vertex 602.236530222582 343.46561283576114 403.5384388918939
  endloop
endfacet
facet normal -0.29028467725458973 0.9569403357321703 0.0
  outer loop
    vertex 602.236530222582 343.46561283576114 398.5384388918939
    vertex 602.5366791991402 343.55666203238826 403.5384388918939
    vertex 602.5366791991402 343.55666203238826 398.5384388918939
  endloop
endfacet
facet normal -0.881921264348417 0.4713967368258819 0.0
  outer loop
    vertex 603.2547370870402 344.14595691157484 403.5384388918939
    vertex 603.4025929593741 344.42257579262207 398.5384388918939
    vertex 603.2547370870402 344.14595691157484 398.5384388918939
  endloop
endfacet
facet normal -0.881921264348417 0.4713967368258819 0.0
  outer loop
    vertex 603.4025929593741 344.42257579262207 398.5384388918939
    vertex 603.2547370870402 344.14595691157484 403.5384388918939
    vertex 603.4025929593741 344.42257579262207 403.5384388918939
  endloop
endfacet
facet normal -0.9569403357321147 0.29028467725477336 0.0
  outer loop
    vertex 603.4025929593741 344.42257579262207 403.5384388918939
    vertex 603.4936421560013 344.72272476918045 398.5384388918939
    vertex 603.4025929593741 344.42257579262207 398.5384388918939
  endloop
endfacet
facet normal -0.9569403357321147 0.29028467725477336 0.0
  outer loop
    vertex 603.4936421560013 344.72272476918045 398.5384388918939
    vertex 603.4025929593741 344.42257579262207 403.5384388918939
    vertex 603.4936421560013 344.72272476918045 403.5384388918939
  endloop
endfacet
facet normal -0.9951847266722057 0.0980171403294722 0.0
  outer loop
    vertex 603.4936421560013 344.72272476918045 403.5384388918939
    vertex 603.5243857073561 345.0348692844063 398.5384388918939
    vertex 603.4936421560013 344.72272476918045 398.5384388918939
  endloop
endfacet
facet normal -0.9951847266722057 0.0980171403294722 0.0
  outer loop
    vertex 603.5243857073561 345.0348692844063 398.5384388918939
    vertex 603.4936421560013 344.72272476918045 403.5384388918939
    vertex 603.5243857073561 345.0348692844063 403.5384388918939
  endloop
endfacet
facet normal -0.9951847266722044 -0.09801714032948611 0.0
  outer loop
    vertex 603.5243857073561 345.0348692844063 403.5384388918939
    vertex 603.4936421560013 345.34701379963207 398.5384388918939
    vertex 603.5243857073561 345.0348692844063 398.5384388918939
  endloop
endfacet
facet normal -0.9951847266722044 -0.09801714032948611 0.0
  outer loop
    vertex 603.4936421560013 345.34701379963207 398.5384388918939
    vertex 603.5243857073561 345.0348692844063 403.5384388918939
    vertex 603.4936421560013 345.34701379963207 403.5384388918939
  endloop
endfacet
facet normal -0.9569403357321147 -0.29028467725477325 0.0
  outer loop
    vertex 603.4936421560013 345.34701379963207 403.5384388918939
    vertex 603.4025929593741 345.6471627761904 398.5384388918939
    vertex 603.4936421560013 345.34701379963207 398.5384388918939
  endloop
endfacet
facet normal -0.9569403357321147 -0.29028467725477325 0.0
  outer loop
    vertex 603.4025929593741 345.6471627761904 398.5384388918939
    vertex 603.4936421560013 345.34701379963207 403.5384388918939
    vertex 603.4025929593741 345.6471627761904 403.5384388918939
  endloop
endfacet
facet normal -0.8819212643483529 -0.47139673682600136 0.0
  outer loop
    vertex 603.4025929593741 345.6471627761904 403.5384388918939
    vertex 603.2547370870402 345.92378165723756 398.5384388918939
    vertex 603.4025929593741 345.6471627761904 398.5384388918939
  endloop
endfacet
facet normal -0.8819212643483529 -0.47139673682600136 0.0
  outer loop
    vertex 603.2547370870402 345.92378165723756 398.5384388918939
    vertex 603.4025929593741 345.6471627761904 403.5384388918939
    vertex 603.2547370870402 345.92378165723756 403.5384388918939
  endloop
endfacet
facet normal 0.29028467725458984 0.9569403357321703 0.0
  outer loop
    vertex 601.6122411921302 343.46561283576114 403.5384388918939
    vertex 601.312092215572 343.55666203238826 398.5384388918939
    vertex 601.312092215572 343.55666203238826 403.5384388918939
  endloop
endfacet
facet normal 0.29028467725458984 0.9569403357321703 0.0
  outer loop
    vertex 601.312092215572 343.55666203238826 398.5384388918939
    vertex 601.6122411921302 343.46561283576114 403.5384388918939
    vertex 601.6122411921302 343.46561283576114 398.5384388918939
  endloop
endfacet
facet normal 0.47139673682576233 0.881921264348481 0.0
  outer loop
    vertex 601.312092215572 343.55666203238826 403.5384388918939
    vertex 601.0354733345247 343.7045179047222 398.5384388918939
    vertex 601.0354733345247 343.7045179047222 403.5384388918939
  endloop
endfacet
facet normal 0.47139673682576233 0.881921264348481 0.0
  outer loop
    vertex 601.0354733345247 343.7045179047222 398.5384388918939
    vertex 601.312092215572 343.55666203238826 403.5384388918939
    vertex 601.312092215572 343.55666203238826 398.5384388918939
  endloop
endfacet
facet normal 0.6343932841637991 0.7730104533626108 0.0
  outer loop
    vertex 601.0354733345247 343.7045179047222 403.5384388918939
    vertex 600.7930148574576 343.9034984345078 398.5384388918939
    vertex 600.7930148574576 343.9034984345078 403.5384388918939
  endloop
endfacet
facet normal 0.6343932841637991 0.7730104533626108 0.0
  outer loop
    vertex 600.7930148574576 343.9034984345078 398.5384388918939
    vertex 601.0354733345247 343.7045179047222 403.5384388918939
    vertex 601.0354733345247 343.7045179047222 398.5384388918939
  endloop
endfacet
facet normal 0.7730104533626687 0.6343932841637286 0.0
  outer loop
    vertex 600.594034327672 344.14595691157484 403.5384388918939
    vertex 600.7930148574576 343.9034984345078 398.5384388918939
    vertex 600.594034327672 344.14595691157484 398.5384388918939
  endloop
endfacet
facet normal 0.7730104533626687 0.6343932841637286 0.0
  outer loop
    vertex 600.7930148574576 343.9034984345078 398.5384388918939
    vertex 600.594034327672 344.14595691157484 403.5384388918939
    vertex 600.7930148574576 343.9034984345078 403.5384388918939
  endloop
endfacet
facet normal 0.881921264348417 0.4713967368258818 0.0
  outer loop
    vertex 600.4461784553381 344.42257579262207 403.5384388918939
    vertex 600.594034327672 344.14595691157484 398.5384388918939
    vertex 600.4461784553381 344.42257579262207 398.5384388918939
  endloop
endfacet
facet normal 0.881921264348417 0.4713967368258818 0.0
  outer loop
    vertex 600.594034327672 344.14595691157484 398.5384388918939
    vertex 600.4461784553381 344.42257579262207 403.5384388918939
    vertex 600.594034327672 344.14595691157484 403.5384388918939
  endloop
endfacet
facet normal 0.9569403357321945 0.2902846772545098 0.0
  outer loop
    vertex 600.3551292587109 344.72272476918045 403.5384388918939
    vertex 600.4461784553381 344.42257579262207 398.5384388918939
    vertex 600.3551292587109 344.72272476918045 398.5384388918939
  endloop
endfacet
facet normal 0.9569403357321945 0.2902846772545098 0.0
  outer loop
    vertex 600.4461784553381 344.42257579262207 398.5384388918939
    vertex 600.3551292587109 344.72272476918045 403.5384388918939
    vertex 600.4461784553381 344.42257579262207 403.5384388918939
  endloop
endfacet
facet normal 0.9951847266721776 0.098017140329757 0.0
  outer loop
    vertex 600.3243857073561 345.0348692844063 403.5384388918939
    vertex 600.3551292587109 344.72272476918045 398.5384388918939
    vertex 600.3243857073561 345.0348692844063 398.5384388918939
  endloop
endfacet
facet normal 0.9951847266721776 0.098017140329757 0.0
  outer loop
    vertex 600.3551292587109 344.72272476918045 398.5384388918939
    vertex 600.3243857073561 345.0348692844063 403.5384388918939
    vertex 600.3551292587109 344.72272476918045 403.5384388918939
  endloop
endfacet
facet normal 0.9951847266721762 -0.09801714032977116 0.0
  outer loop
    vertex 600.3551292587109 345.34701379963207 403.5384388918939
    vertex 600.3243857073561 345.0348692844063 398.5384388918939
    vertex 600.3551292587109 345.34701379963207 398.5384388918939
  endloop
endfacet
facet normal 0.9951847266721762 -0.09801714032977116 0.0
  outer loop
    vertex 600.3243857073561 345.0348692844063 398.5384388918939
    vertex 600.3551292587109 345.34701379963207 403.5384388918939
    vertex 600.3243857073561 345.0348692844063 403.5384388918939
  endloop
endfacet
facet normal 0.9569403357321945 -0.2902846772545099 0.0
  outer loop
    vertex 600.4461784553381 345.6471627761904 403.5384388918939
    vertex 600.3551292587109 345.34701379963207 398.5384388918939
    vertex 600.4461784553381 345.6471627761904 398.5384388918939
  endloop
endfacet
facet normal 0.9569403357321945 -0.2902846772545099 0.0
  outer loop
    vertex 600.3551292587109 345.34701379963207 398.5384388918939
    vertex 600.4461784553381 345.6471627761904 403.5384388918939
    vertex 600.3551292587109 345.34701379963207 403.5384388918939
  endloop
endfacet
facet normal 0.8819212643483529 -0.4713967368260015 0.0
  outer loop
    vertex 600.594034327672 345.92378165723756 403.5384388918939
    vertex 600.4461784553381 345.6471627761904 398.5384388918939
    vertex 600.594034327672 345.92378165723756 398.5384388918939
  endloop
endfacet
facet normal 0.8819212643483529 -0.4713967368260015 0.0
  outer loop
    vertex 600.4461784553381 345.6471627761904 398.5384388918939
    vertex 600.594034327672 345.92378165723756 403.5384388918939
    vertex 600.4461784553381 345.6471627761904 403.5384388918939
  endloop
endfacet
facet normal 0.7730104533627845 -0.6343932841635875 0.0
  outer loop
    vertex 600.7930148574576 346.1662401343047 403.5384388918939
    vertex 600.594034327672 345.92378165723756 398.5384388918939
    vertex 600.7930148574576 346.1662401343047 398.5384388918939
  endloop
endfacet
facet normal 0.7730104533627845 -0.6343932841635875 0.0
  outer loop
    vertex 600.594034327672 345.92378165723756 398.5384388918939
    vertex 600.7930148574576 346.1662401343047 403.5384388918939
    vertex 600.594034327672 345.92378165723756 403.5384388918939
  endloop
endfacet
facet normal 0.6343932841637991 -0.7730104533626108 0.0
  outer loop
    vertex 601.0354733345247 346.3652206640903 398.5384388918939
    vertex 600.7930148574576 346.1662401343047 403.5384388918939
    vertex 600.7930148574576 346.1662401343047 398.5384388918939
  endloop
endfacet
facet normal 0.6343932841637991 -0.7730104533626108 0.0
  outer loop
    vertex 600.7930148574576 346.1662401343047 403.5384388918939
    vertex 601.0354733345247 346.3652206640903 398.5384388918939
    vertex 601.0354733345247 346.3652206640903 403.5384388918939
  endloop
endfacet
facet normal 0.4713967368257622 -0.881921264348481 0.0
  outer loop
    vertex 601.312092215572 346.51307653642425 398.5384388918939
    vertex 601.0354733345247 346.3652206640903 403.5384388918939
    vertex 601.0354733345247 346.3652206640903 398.5384388918939
  endloop
endfacet
facet normal 0.4713967368257622 -0.881921264348481 0.0
  outer loop
    vertex 601.0354733345247 346.3652206640903 403.5384388918939
    vertex 601.312092215572 346.51307653642425 398.5384388918939
    vertex 601.312092215572 346.51307653642425 403.5384388918939
  endloop
endfacet
facet normal 0.29028467725458973 -0.9569403357321703 0.0
  outer loop
    vertex 601.6122411921302 346.6041257330514 398.5384388918939
    vertex 601.312092215572 346.51307653642425 403.5384388918939
    vertex 601.312092215572 346.51307653642425 398.5384388918939
  endloop
endfacet
facet normal 0.29028467725458973 -0.9569403357321703 0.0
  outer loop
    vertex 601.312092215572 346.51307653642425 403.5384388918939
    vertex 601.6122411921302 346.6041257330514 398.5384388918939
    vertex 601.6122411921302 346.6041257330514 403.5384388918939
  endloop
endfacet
facet normal 0.09801714032958646 -0.9951847266721944 0.0
  outer loop
    vertex 601.9243857073561 346.6348692844062 398.5384388918939
    vertex 601.6122411921302 346.6041257330514 403.5384388918939
    vertex 601.6122411921302 346.6041257330514 398.5384388918939
  endloop
endfacet
facet normal 0.09801714032958646 -0.9951847266721944 0.0
  outer loop
    vertex 601.6122411921302 346.6041257330514 403.5384388918939
    vertex 601.9243857073561 346.6348692844062 398.5384388918939
    vertex 601.9243857073561 346.6348692844062 403.5384388918939
  endloop
endfacet
facet normal -0.09801714032964272 -0.9951847266721888 0.0
  outer loop
    vertex 602.236530222582 346.6041257330514 398.5384388918939
    vertex 601.9243857073561 346.6348692844062 403.5384388918939
    vertex 601.9243857073561 346.6348692844062 398.5384388918939
  endloop
endfacet
facet normal -0.09801714032964272 -0.9951847266721888 0.0
  outer loop
    vertex 601.9243857073561 346.6348692844062 403.5384388918939
    vertex 602.236530222582 346.6041257330514 398.5384388918939
    vertex 602.236530222582 346.6041257330514 403.5384388918939
  endloop
endfacet
facet normal -0.29028467725458984 -0.9569403357321703 0.0
  outer loop
    vertex 602.5366791991402 346.51307653642425 398.5384388918939
    vertex 602.236530222582 346.6041257330514 403.5384388918939
    vertex 602.236530222582 346.6041257330514 398.5384388918939
  endloop
endfacet
facet normal -0.29028467725458984 -0.9569403357321703 0.0
  outer loop
    vertex 602.236530222582 346.6041257330514 403.5384388918939
    vertex 602.5366791991402 346.51307653642425 398.5384388918939
    vertex 602.5366791991402 346.51307653642425 403.5384388918939
  endloop
endfacet
facet normal -0.47139673682576233 -0.881921264348481 0.0
  outer loop
    vertex 602.8132980801876 346.3652206640903 398.5384388918939
    vertex 602.5366791991402 346.51307653642425 403.5384388918939
    vertex 602.5366791991402 346.51307653642425 398.5384388918939
  endloop
endfacet
facet normal -0.47139673682576233 -0.881921264348481 0.0
  outer loop
    vertex 602.5366791991402 346.51307653642425 403.5384388918939
    vertex 602.8132980801876 346.3652206640903 398.5384388918939
    vertex 602.8132980801876 346.3652206640903 403.5384388918939
  endloop
endfacet
facet normal -0.634393284163658 -0.7730104533627266 0.0
  outer loop
    vertex 603.0557565572547 346.1662401343047 398.5384388918939
    vertex 602.8132980801876 346.3652206640903 403.5384388918939
    vertex 602.8132980801876 346.3652206640903 398.5384388918939
  endloop
endfacet
facet normal -0.634393284163658 -0.7730104533627266 0.0
  outer loop
    vertex 602.8132980801876 346.3652206640903 403.5384388918939
    vertex 603.0557565572547 346.1662401343047 398.5384388918939
    vertex 603.0557565572547 346.1662401343047 403.5384388918939
  endloop
endfacet
facet normal -0.7730104533629256 -0.6343932841634157 0.0
  outer loop
    vertex 603.2547370870402 345.92378165723756 403.5384388918939
    vertex 603.0557565572547 346.1662401343047 398.5384388918939
    vertex 603.2547370870402 345.92378165723756 398.5384388918939
  endloop
endfacet
facet normal -0.7730104533629256 -0.6343932841634157 0.0
  outer loop
    vertex 603.0557565572547 346.1662401343047 398.5384388918939
    vertex 603.2547370870402 345.92378165723756 403.5384388918939
    vertex 603.0557565572547 346.1662401343047 403.5384388918939
  endloop
endfacet
endsolid SBOX_XL_2_5
