solid SBOX_XL_2_5
facet normal 1.2186278582761846e-30 4.481970486364684e-46 1.0
  outer loop
    vertex 102.28821694810411 355.1976930678401 403.5383934843583
    vertex 102.24384001999428 359.02245328443183 403.5383934843583
    vertex 101.59114882653611 355.76976209097376 403.5383934843583
  endloop
endfacet
facet normal 1.2186278582761846e-30 4.481970486364684e-46 1.0
  outer loop
    vertex 102.24384001999428 359.02245328443183 403.5383934843583
    vertex 102.28821694810411 355.1976930678401 403.5383934843583
    vertex 102.29379829094583 358.51521844718985 403.5383934843583
  endloop
endfacet
facet normal 1.2186278582761846e-30 4.481970486364684e-46 1.0
  outer loop
    vertex 102.29379829094583 358.51521844718985 403.5383934843583
    vertex 102.28821694810411 355.1976930678401 403.5383934843583
    vertex 103.08349623111476 354.77260743487994 403.5383934843583
  endloop
endfacet
facet normal 1.2186278582761846e-30 4.481970486364684e-46 1.0
  outer loop
    vertex 102.29379829094583 358.51521844718985 403.5383934843583
    vertex 103.08349623111476 354.77260743487994 403.5383934843583
    vertex 102.4417532354649 358.02747636028255 403.5383934843583
  endloop
endfacet
facet normal 1.2186278582761846e-30 4.481970486364684e-46 1.0
  outer loop
    vertex 102.4417532354649 358.02747636028255 403.5383934843583
    vertex 103.08349623111476 354.77260743487994 403.5383934843583
    vertex 102.6820190280076 357.5779706785808 403.5383934843583
  endloop
endfacet
facet normal 1.2186278582761846e-30 4.481970486364684e-46 1.0
  outer loop
    vertex 102.6820190280076 357.5779706785808 403.5383934843583
    vertex 103.08349623111476 354.77260743487994 403.5383934843583
    vertex 103.0053623889092 357.18397565334675 403.5383934843583
  endloop
endfacet
facet normal 1.2186278582761846e-30 4.481970486364684e-46 1.0
  outer loop
    vertex 103.0053623889092 357.18397565334675 403.5383934843583
    vertex 103.08349623111476 354.77260743487994 403.5383934843583
    vertex 103.39935741414334 356.86063229244525 403.5383934843583
  endloop
endfacet
facet normal 1.2186278582761846e-30 4.481970486364684e-46 1.0
  outer loop
    vertex 103.39935741414334 356.86063229244525 403.5383934843583
    vertex 103.08349623111476 354.77260743487994 403.5383934843583
    vertex 103.94642453872001 354.5108409945769 403.5383934843583
  endloop
endfacet
facet normal 1.2186278582761846e-30 4.481970486364684e-46 1.0
  outer loop
    vertex 103.39935741414334 356.86063229244525 403.5383934843583
    vertex 103.94642453872001 354.5108409945769 403.5383934843583
    vertex 103.84886309584493 356.62036649990245 403.5383934843583
  endloop
endfacet
facet normal 1.2186278582761846e-30 4.481970486364684e-46 1.0
  outer loop
    vertex 103.84886309584493 356.62036649990245 403.5383934843583
    vertex 103.94642453872001 354.5108409945769 403.5383934843583
    vertex 104.3366051827523 356.4724115553835 403.5383934843583
  endloop
endfacet
facet normal 1.2186278582761846e-30 4.481970486364684e-46 1.0
  outer loop
    vertex 104.3366051827523 356.4724115553835 403.5383934843583
    vertex 103.94642453872001 354.5108409945769 403.5383934843583
    vertex 104.84384001999422 354.4224532844318 403.5383934843583
  endloop
endfacet
facet normal 1.2186278582761846e-30 4.481970486364684e-46 1.0
  outer loop
    vertex 104.3366051827523 356.4724115553835 403.5383934843583
    vertex 104.84384001999422 354.4224532844318 403.5383934843583
    vertex 104.84384001999422 356.4224532844319 403.5383934843583
  endloop
endfacet
facet normal 1.2186278582761846e-30 4.481970486364684e-46 1.0
  outer loop
    vertex 104.84384001999422 356.4224532844319 403.5383934843583
    vertex 104.84384001999422 354.4224532844318 403.5383934843583
    vertex 132.84384001999433 354.4224532844318 403.5383934843583
  endloop
endfacet
facet normal 1.2186278582761846e-30 4.481970486364684e-46 1.0
  outer loop
    vertex 104.84384001999422 356.4224532844319 403.5383934843583
    vertex 132.84384001999433 354.4224532844318 403.5383934843583
    vertex 105.35107485723616 356.4724115553835 403.5383934843583
  endloop
endfacet
facet normal 1.2186278582761846e-30 4.481970486364684e-46 1.0
  outer loop
    vertex 105.35107485723616 356.4724115553835 403.5383934843583
    vertex 132.84384001999433 354.4224532844318 403.5383934843583
    vertex 105.83881694414352 356.62036649990245 403.5383934843583
  endloop
endfacet
facet normal 1.2186278582761846e-30 4.481970486364684e-46 1.0
  outer loop
    vertex 105.83881694414352 356.62036649990245 403.5383934843583
    vertex 132.84384001999433 354.4224532844318 403.5383934843583
    vertex 106.2883226258452 356.86063229244525 403.5383934843583
  endloop
endfacet
facet normal 1.2186278582761846e-30 4.481970486364684e-46 1.0
  outer loop
    vertex 106.2883226258452 356.86063229244525 403.5383934843583
    vertex 132.84384001999433 354.4224532844318 403.5383934843583
    vertex 106.68231765107925 357.18397565334675 403.5383934843583
  endloop
endfacet
facet normal 1.2186278582761846e-30 4.481970486364684e-46 1.0
  outer loop
    vertex 106.68231765107925 357.18397565334675 403.5383934843583
    vertex 132.84384001999433 354.4224532844318 403.5383934843583
    vertex 107.00566101198083 357.5779706785808 403.5383934843583
  endloop
endfacet
facet normal 1.2186278582761846e-30 4.481970486364684e-46 1.0
  outer loop
    vertex 107.00566101198083 357.5779706785808 403.5383934843583
    vertex 132.84384001999433 354.4224532844318 403.5383934843583
    vertex 107.24592680452363 358.02747636028255 403.5383934843583
  endloop
endfacet
facet normal 1.2186278582761846e-30 4.481970486364684e-46 1.0
  outer loop
    vertex 107.24592680452363 358.02747636028255 403.5383934843583
    vertex 132.84384001999433 354.4224532844318 403.5383934843583
    vertex 107.39388174904262 358.51521844718985 403.5383934843583
  endloop
endfacet
facet normal 1.2186278582761846e-30 4.481970486364684e-46 1.0
  outer loop
    vertex 107.39388174904262 358.51521844718985 403.5383934843583
    vertex 132.84384001999433 354.4224532844318 403.5383934843583
    vertex 107.44384001999417 359.02245328443183 403.5383934843583
  endloop
endfacet
facet normal 1.2186278582761846e-30 4.481970486364684e-46 1.0
  outer loop
    vertex 107.44384001999417 359.02245328443183 403.5383934843583
    vertex 132.84384001999433 354.4224532844318 403.5383934843583
    vertex 130.68201902800772 357.5779706785808 403.5383934843583
  endloop
endfacet
facet normal 1.2186278582761846e-30 4.481970486364684e-46 1.0
  outer loop
    vertex 107.44384001999417 359.02245328443183 403.5383934843583
    vertex 130.68201902800772 357.5779706785808 403.5383934843583
    vertex 130.441753235465 358.02747636028255 403.5383934843583
  endloop
endfacet
facet normal 1.2186278582761846e-30 4.481970486364684e-46 1.0
  outer loop
    vertex 107.44384001999417 359.02245328443183 403.5383934843583
    vertex 130.441753235465 358.02747636028255 403.5383934843583
    vertex 130.29379829094594 358.51521844718985 403.5383934843583
  endloop
endfacet
facet normal 1.2186278582761846e-30 4.481970486364684e-46 1.0
  outer loop
    vertex 107.44384001999417 359.02245328443183 403.5383934843583
    vertex 130.29379829094594 358.51521844718985 403.5383934843583
    vertex 130.2438400199944 359.02245328443183 403.5383934843583
  endloop
endfacet
facet normal 1.2186278582761846e-30 4.481970486364684e-46 1.0
  outer loop
    vertex 130.68201902800772 357.5779706785808 403.5383934843583
    vertex 132.84384001999433 354.4224532844318 403.5383934843583
    vertex 131.0053623889093 357.18397565334675 403.5383934843583
  endloop
endfacet
facet normal 1.2186278582761846e-30 4.481970486364684e-46 1.0
  outer loop
    vertex 131.0053623889093 357.18397565334675 403.5383934843583
    vertex 132.84384001999433 354.4224532844318 403.5383934843583
    vertex 131.39935741414345 356.86063229244525 403.5383934843583
  endloop
endfacet
facet normal 1.2186278582761846e-30 4.481970486364684e-46 1.0
  outer loop
    vertex 131.39935741414345 356.86063229244525 403.5383934843583
    vertex 132.84384001999433 354.4224532844318 403.5383934843583
    vertex 131.84886309584513 356.62036649990245 403.5383934843583
  endloop
endfacet
facet normal 1.2186278582761846e-30 4.481970486364684e-46 1.0
  outer loop
    vertex 131.84886309584513 356.62036649990245 403.5383934843583
    vertex 132.84384001999433 354.4224532844318 403.5383934843583
    vertex 132.3366051827525 356.4724115553835 403.5383934843583
  endloop
endfacet
facet normal 1.2186278582761846e-30 4.481970486364684e-46 1.0
  outer loop
    vertex 132.3366051827525 356.4724115553835 403.5383934843583
    vertex 132.84384001999433 354.4224532844318 403.5383934843583
    vertex 132.84384001999433 356.4224532844319 403.5383934843583
  endloop
endfacet
facet normal 1.2186278582761846e-30 4.481970486364684e-46 1.0
  outer loop
    vertex 132.84384001999433 356.4224532844319 403.5383934843583
    vertex 132.84384001999433 354.4224532844318 403.5383934843583
    vertex 133.74125550126854 354.5108409945769 403.5383934843583
  endloop
endfacet
facet normal 1.2186278582761846e-30 4.481970486364684e-46 1.0
  outer loop
    vertex 132.84384001999433 356.4224532844319 403.5383934843583
    vertex 133.74125550126854 354.5108409945769 403.5383934843583
    vertex 133.35107485723626 356.4724115553835 403.5383934843583
  endloop
endfacet
facet normal 1.2186278582761846e-30 4.481970486364684e-46 1.0
  outer loop
    vertex 133.35107485723626 356.4724115553835 403.5383934843583
    vertex 133.74125550126854 354.5108409945769 403.5383934843583
    vertex 133.83881694414362 356.62036649990245 403.5383934843583
  endloop
endfacet
facet normal 1.2186278582761846e-30 4.481970486364684e-46 1.0
  outer loop
    vertex 133.83881694414362 356.62036649990245 403.5383934843583
    vertex 133.74125550126854 354.5108409945769 403.5383934843583
    vertex 134.60418380887376 354.77260743487994 403.5383934843583
  endloop
endfacet
facet normal 1.2186278582761846e-30 4.481970486364684e-46 1.0
  outer loop
    vertex 133.83881694414362 356.62036649990245 403.5383934843583
    vertex 134.60418380887376 354.77260743487994 403.5383934843583
    vertex 134.2883226258453 356.86063229244525 403.5383934843583
  endloop
endfacet
facet normal 1.2186278582761846e-30 4.481970486364684e-46 1.0
  outer loop
    vertex 134.2883226258453 356.86063229244525 403.5383934843583
    vertex 134.60418380887376 354.77260743487994 403.5383934843583
    vertex 134.68231765107944 357.18397565334675 403.5383934843583
  endloop
endfacet
facet normal 1.2186278582761846e-30 4.481970486364684e-46 1.0
  outer loop
    vertex 134.68231765107944 357.18397565334675 403.5383934843583
    vertex 134.60418380887376 354.77260743487994 403.5383934843583
    vertex 135.39946309188457 355.1976930678401 403.5383934843583
  endloop
endfacet
facet normal 1.2186278582761846e-30 4.481970486364684e-46 1.0
  outer loop
    vertex 134.68231765107944 357.18397565334675 403.5383934843583
    vertex 135.39946309188457 355.1976930678401 403.5383934843583
    vertex 135.00566101198095 357.5779706785808 403.5383934843583
  endloop
endfacet
facet normal 1.2186278582761846e-30 4.481970486364684e-46 1.0
  outer loop
    vertex 135.00566101198095 357.5779706785808 403.5383934843583
    vertex 135.39946309188457 355.1976930678401 403.5383934843583
    vertex 135.24592680452375 358.02747636028255 403.5383934843583
  endloop
endfacet
facet normal 1.2186278582761846e-30 4.481970486364684e-46 1.0
  outer loop
    vertex 135.24592680452375 358.02747636028255 403.5383934843583
    vertex 135.39946309188457 355.1976930678401 403.5383934843583
    vertex 135.39388174904272 358.51521844718985 403.5383934843583
  endloop
endfacet
facet normal 1.2186278582761846e-30 4.481970486364684e-46 1.0
  outer loop
    vertex 135.39388174904272 358.51521844718985 403.5383934843583
    vertex 135.39946309188457 355.1976930678401 403.5383934843583
    vertex 135.44384001999427 359.02245328443183 403.5383934843583
  endloop
endfacet
facet normal 1.2186278582761846e-30 4.481970486364684e-46 1.0
  outer loop
    vertex 135.44384001999427 359.02245328443183 403.5383934843583
    vertex 135.39946309188457 355.1976930678401 403.5383934843583
    vertex 136.09653121345244 355.76976209097376 403.5383934843583
  endloop
endfacet
facet normal 1.2186278582761846e-30 4.481970486364684e-46 1.0
  outer loop
    vertex 100.33222773013935 358.1250378031576 403.5383934843583
    vertex 100.2438400199942 370.0224532844319 403.5383934843583
    vertex 100.2438400199942 359.02245328443183 403.5383934843583
  endloop
endfacet
facet normal 1.2186278582761846e-30 4.481970486364684e-46 1.0
  outer loop
    vertex 100.2438400199942 370.0224532844319 403.5383934843583
    vertex 100.33222773013935 358.1250378031576 403.5383934843583
    vertex 103.0053623889092 360.8609309155168 403.5383934843583
  endloop
endfacet
facet normal 1.2186278582761846e-30 4.481970486364684e-46 1.0
  outer loop
    vertex 100.2438400199942 370.0224532844319 403.5383934843583
    vertex 103.0053623889092 360.8609309155168 403.5383934843583
    vertex 103.39935741414334 361.1842742764185 403.5383934843583
  endloop
endfacet
facet normal 1.2186278582761846e-30 4.481970486364684e-46 1.0
  outer loop
    vertex 100.2438400199942 370.0224532844319 403.5383934843583
    vertex 103.39935741414334 361.1842742764185 403.5383934843583
    vertex 103.84886309584502 361.4245400689611 403.5383934843583
  endloop
endfacet
facet normal 1.2186278582761846e-30 4.481970486364684e-46 1.0
  outer loop
    vertex 100.2438400199942 370.0224532844319 403.5383934843583
    vertex 103.84886309584502 361.4245400689611 403.5383934843583
    vertex 104.3366051827523 361.5724950134801 403.5383934843583
  endloop
endfacet
facet normal 1.2186278582761846e-30 4.481970486364684e-46 1.0
  outer loop
    vertex 100.2438400199942 370.0224532844319 403.5383934843583
    vertex 104.3366051827523 361.5724950134801 403.5383934843583
    vertex 137.44384001999435 370.0224532844319 403.5383934843583
  endloop
endfacet
facet normal 1.2186278582761846e-30 4.481970486364684e-46 1.0
  outer loop
    vertex 103.0053623889092 360.8609309155168 403.5383934843583
    vertex 100.33222773013935 358.1250378031576 403.5383934843583
    vertex 102.6820190280076 360.46693589028274 403.5383934843583
  endloop
endfacet
facet normal 1.2186278582761846e-30 4.481970486364684e-46 1.0
  outer loop
    vertex 102.6820190280076 360.46693589028274 403.5383934843583
    vertex 100.33222773013935 358.1250378031576 403.5383934843583
    vertex 100.59399417044231 357.2621094955525 403.5383934843583
  endloop
endfacet
facet normal 1.2186278582761846e-30 4.481970486364684e-46 1.0
  outer loop
    vertex 102.6820190280076 360.46693589028274 403.5383934843583
    vertex 100.59399417044231 357.2621094955525 403.5383934843583
    vertex 102.4417532354649 360.0174302085811 403.5383934843583
  endloop
endfacet
facet normal 1.2186278582761846e-30 4.481970486364684e-46 1.0
  outer loop
    vertex 102.4417532354649 360.0174302085811 403.5383934843583
    vertex 100.59399417044231 357.2621094955525 403.5383934843583
    vertex 101.01907980340252 356.46683021254165 403.5383934843583
  endloop
endfacet
facet normal 1.2186278582761846e-30 4.481970486364684e-46 1.0
  outer loop
    vertex 102.4417532354649 360.0174302085811 403.5383934843583
    vertex 101.01907980340252 356.46683021254165 403.5383934843583
    vertex 102.29379829094583 359.5296881216737 403.5383934843583
  endloop
endfacet
facet normal 1.2186278582761846e-30 4.481970486364684e-46 1.0
  outer loop
    vertex 102.29379829094583 359.5296881216737 403.5383934843583
    vertex 101.01907980340252 356.46683021254165 403.5383934843583
    vertex 101.59114882653611 355.76976209097376 403.5383934843583
  endloop
endfacet
facet normal 1.2186278582761846e-30 4.481970486364684e-46 1.0
  outer loop
    vertex 102.29379829094583 359.5296881216737 403.5383934843583
    vertex 101.59114882653611 355.76976209097376 403.5383934843583
    vertex 102.24384001999428 359.02245328443183 403.5383934843583
  endloop
endfacet
facet normal 1.2186278582761846e-30 4.481970486364684e-46 1.0
  outer loop
    vertex 137.44384001999435 370.0224532844319 403.5383934843583
    vertex 104.3366051827523 361.5724950134801 403.5383934843583
    vertex 104.84384001999422 361.6224532844318 403.5383934843583
  endloop
endfacet
facet normal 1.2186278582761846e-30 4.481970486364684e-46 1.0
  outer loop
    vertex 137.44384001999435 370.0224532844319 403.5383934843583
    vertex 104.84384001999422 361.6224532844318 403.5383934843583
    vertex 105.35107485723616 361.5724950134801 403.5383934843583
  endloop
endfacet
facet normal 1.2186278582761846e-30 4.481970486364684e-46 1.0
  outer loop
    vertex 137.44384001999435 370.0224532844319 403.5383934843583
    vertex 105.35107485723616 361.5724950134801 403.5383934843583
    vertex 105.83881694414352 361.4245400689611 403.5383934843583
  endloop
endfacet
facet normal 1.2186278582761846e-30 4.481970486364684e-46 1.0
  outer loop
    vertex 137.44384001999435 370.0224532844319 403.5383934843583
    vertex 105.83881694414352 361.4245400689611 403.5383934843583
    vertex 106.2883226258452 361.1842742764185 403.5383934843583
  endloop
endfacet
facet normal 1.2186278582761846e-30 4.481970486364684e-46 1.0
  outer loop
    vertex 137.44384001999435 370.0224532844319 403.5383934843583
    vertex 106.2883226258452 361.1842742764185 403.5383934843583
    vertex 106.68231765107925 360.8609309155168 403.5383934843583
  endloop
endfacet
facet normal 1.2186278582761846e-30 4.481970486364684e-46 1.0
  outer loop
    vertex 137.44384001999435 370.0224532844319 403.5383934843583
    vertex 106.68231765107925 360.8609309155168 403.5383934843583
    vertex 107.00566101198083 360.46693589028274 403.5383934843583
  endloop
endfacet
facet normal 1.2186278582761846e-30 4.481970486364684e-46 1.0
  outer loop
    vertex 137.44384001999435 370.0224532844319 403.5383934843583
    vertex 107.00566101198083 360.46693589028274 403.5383934843583
    vertex 107.24592680452363 360.0174302085811 403.5383934843583
  endloop
endfacet
facet normal 1.2186278582761846e-30 4.481970486364684e-46 1.0
  outer loop
    vertex 137.44384001999435 370.0224532844319 403.5383934843583
    vertex 107.24592680452363 360.0174302085811 403.5383934843583
    vertex 107.39388174904262 359.5296881216737 403.5383934843583
  endloop
endfacet
facet normal 1.2186278582761846e-30 4.481970486364684e-46 1.0
  outer loop
    vertex 137.44384001999435 370.0224532844319 403.5383934843583
    vertex 107.39388174904262 359.5296881216737 403.5383934843583
    vertex 107.44384001999417 359.02245328443183 403.5383934843583
  endloop
endfacet
facet normal 1.2186278582761846e-30 4.481970486364684e-46 1.0
  outer loop
    vertex 137.44384001999435 370.0224532844319 403.5383934843583
    vertex 107.44384001999417 359.02245328443183 403.5383934843583
    vertex 130.68201902800772 360.46693589028274 403.5383934843583
  endloop
endfacet
facet normal 1.2186278582761846e-30 4.481970486364684e-46 1.0
  outer loop
    vertex 130.68201902800772 360.46693589028274 403.5383934843583
    vertex 107.44384001999417 359.02245328443183 403.5383934843583
    vertex 130.441753235465 360.0174302085811 403.5383934843583
  endloop
endfacet
facet normal 1.2186278582761846e-30 4.481970486364684e-46 1.0
  outer loop
    vertex 130.441753235465 360.0174302085811 403.5383934843583
    vertex 107.44384001999417 359.02245328443183 403.5383934843583
    vertex 130.29379829094594 359.5296881216737 403.5383934843583
  endloop
endfacet
facet normal 1.2186278582761846e-30 4.481970486364684e-46 1.0
  outer loop
    vertex 130.29379829094594 359.5296881216737 403.5383934843583
    vertex 107.44384001999417 359.02245328443183 403.5383934843583
    vertex 130.2438400199944 359.02245328443183 403.5383934843583
  endloop
endfacet
facet normal 1.2186278582761846e-30 4.481970486364684e-46 1.0
  outer loop
    vertex 137.44384001999435 370.0224532844319 403.5383934843583
    vertex 130.68201902800772 360.46693589028274 403.5383934843583
    vertex 131.0053623889093 360.8609309155168 403.5383934843583
  endloop
endfacet
facet normal 1.2186278582761846e-30 4.481970486364684e-46 1.0
  outer loop
    vertex 137.44384001999435 370.0224532844319 403.5383934843583
    vertex 131.0053623889093 360.8609309155168 403.5383934843583
    vertex 131.39935741414345 361.1842742764185 403.5383934843583
  endloop
endfacet
facet normal 1.2186278582761846e-30 4.481970486364684e-46 1.0
  outer loop
    vertex 137.44384001999435 370.0224532844319 403.5383934843583
    vertex 131.39935741414345 361.1842742764185 403.5383934843583
    vertex 131.84886309584513 361.4245400689611 403.5383934843583
  endloop
endfacet
facet normal 1.2186278582761846e-30 4.481970486364684e-46 1.0
  outer loop
    vertex 137.44384001999435 370.0224532844319 403.5383934843583
    vertex 131.84886309584513 361.4245400689611 403.5383934843583
    vertex 132.3366051827525 361.5724950134801 403.5383934843583
  endloop
endfacet
facet normal 1.2186278582761846e-30 4.481970486364684e-46 1.0
  outer loop
    vertex 137.44384001999435 370.0224532844319 403.5383934843583
    vertex 132.3366051827525 361.5724950134801 403.5383934843583
    vertex 132.84384001999433 361.6224532844318 403.5383934843583
  endloop
endfacet
facet normal 1.2186278582761846e-30 4.481970486364684e-46 1.0
  outer loop
    vertex 137.44384001999435 370.0224532844319 403.5383934843583
    vertex 132.84384001999433 361.6224532844318 403.5383934843583
    vertex 133.35107485723626 361.5724950134801 403.5383934843583
  endloop
endfacet
facet normal 1.2186278582761846e-30 4.481970486364684e-46 1.0
  outer loop
    vertex 137.44384001999435 370.0224532844319 403.5383934843583
    vertex 133.35107485723626 361.5724950134801 403.5383934843583
    vertex 133.83881694414362 361.4245400689611 403.5383934843583
  endloop
endfacet
facet normal 1.2186278582761846e-30 4.481970486364684e-46 1.0
  outer loop
    vertex 137.44384001999435 370.0224532844319 403.5383934843583
    vertex 133.83881694414362 361.4245400689611 403.5383934843583
    vertex 134.2883226258453 361.1842742764185 403.5383934843583
  endloop
endfacet
facet normal 1.2186278582761846e-30 4.481970486364684e-46 1.0
  outer loop
    vertex 137.44384001999435 370.0224532844319 403.5383934843583
    vertex 134.2883226258453 361.1842742764185 403.5383934843583
    vertex 134.68231765107944 360.8609309155168 403.5383934843583
  endloop
endfacet
facet normal 1.2186278582761846e-30 4.481970486364684e-46 1.0
  outer loop
    vertex 137.44384001999435 370.0224532844319 403.5383934843583
    vertex 134.68231765107944 360.8609309155168 403.5383934843583
    vertex 135.00566101198095 360.46693589028274 403.5383934843583
  endloop
endfacet
facet normal 1.2186278582761846e-30 4.481970486364684e-46 1.0
  outer loop
    vertex 137.44384001999435 370.0224532844319 403.5383934843583
    vertex 135.00566101198095 360.46693589028274 403.5383934843583
    vertex 135.24592680452375 360.0174302085811 403.5383934843583
  endloop
endfacet
facet normal 1.2186278582761846e-30 4.481970486364684e-46 1.0
  outer loop
    vertex 137.44384001999435 370.0224532844319 403.5383934843583
    vertex 135.24592680452375 360.0174302085811 403.5383934843583
    vertex 135.39388174904272 359.5296881216737 403.5383934843583
  endloop
endfacet
facet normal 1.2186278582761846e-30 4.481970486364684e-46 1.0
  outer loop
    vertex 137.44384001999435 370.0224532844319 403.5383934843583
    vertex 135.39388174904272 359.5296881216737 403.5383934843583
    vertex 135.44384001999427 359.02245328443183 403.5383934843583
  endloop
endfacet
facet normal 1.2186278582761846e-30 4.481970486364684e-46 1.0
  outer loop
    vertex 137.44384001999435 370.0224532844319 403.5383934843583
    vertex 135.44384001999427 359.02245328443183 403.5383934843583
    vertex 136.09653121345244 355.76976209097376 403.5383934843583
  endloop
endfacet
facet normal 1.2186278582761846e-30 4.481970486364684e-46 1.0
  outer loop
    vertex 137.44384001999435 370.0224532844319 403.5383934843583
    vertex 136.09653121345244 355.76976209097376 403.5383934843583
    vertex 136.66860023658612 356.46683021254165 403.5383934843583
  endloop
endfacet
facet normal 1.2186278582761846e-30 4.481970486364684e-46 1.0
  outer loop
    vertex 137.44384001999435 370.0224532844319 403.5383934843583
    vertex 136.66860023658612 356.46683021254165 403.5383934843583
    vertex 137.09368586954625 357.2621094955525 403.5383934843583
  endloop
endfacet
facet normal 1.2186278582761846e-30 4.481970486364684e-46 1.0
  outer loop
    vertex 137.44384001999435 370.0224532844319 403.5383934843583
    vertex 137.09368586954625 357.2621094955525 403.5383934843583
    vertex 137.3554523098492 358.1250378031576 403.5383934843583
  endloop
endfacet
facet normal 1.2186278582761846e-30 4.481970486364684e-46 1.0
  outer loop
    vertex 137.44384001999435 370.0224532844319 403.5383934843583
    vertex 137.3554523098492 358.1250378031576 403.5383934843583
    vertex 137.44384001999435 359.02245328443183 403.5383934843583
  endloop
endfacet
facet normal 0.29028467725429674 0.9569403357322592 0.0
  outer loop
    vertex 131.84886309584513 356.62036649990245 403.5383934843583
    vertex 132.3366051827525 356.4724115553835 398.5383934843583
    vertex 131.84886309584513 356.62036649990245 398.5383934843583
  endloop
endfacet
facet normal 0.29028467725429674 0.9569403357322592 0.0
  outer loop
    vertex 132.3366051827525 356.4724115553835 398.5383934843583
    vertex 131.84886309584513 356.62036649990245 403.5383934843583
    vertex 132.3366051827525 356.4724115553835 403.5383934843583
  endloop
endfacet
facet normal 0.09801714032949804 0.9951847266722031 0.0
  outer loop
    vertex 132.3366051827525 356.4724115553835 403.5383934843583
    vertex 132.84384001999433 356.4224532844319 398.5383934843583
    vertex 132.3366051827525 356.4724115553835 398.5383934843583
  endloop
endfacet
facet normal 0.09801714032949804 0.9951847266722031 0.0
  outer loop
    vertex 132.84384001999433 356.4224532844319 398.5383934843583
    vertex 132.3366051827525 356.4724115553835 403.5383934843583
    vertex 132.84384001999433 356.4224532844319 403.5383934843583
  endloop
endfacet
facet normal -0.09801714032948076 0.9951847266722048 0.0
  outer loop
    vertex 132.84384001999433 356.4224532844319 403.5383934843583
    vertex 133.35107485723626 356.4724115553835 398.5383934843583
    vertex 132.84384001999433 356.4224532844319 398.5383934843583
  endloop
endfacet
facet normal -0.09801714032948076 0.9951847266722048 0.0
  outer loop
    vertex 133.35107485723626 356.4724115553835 398.5383934843583
    vertex 132.84384001999433 356.4224532844319 403.5383934843583
    vertex 133.35107485723626 356.4724115553835 403.5383934843583
  endloop
endfacet
facet normal -0.29028467725429674 0.9569403357322592 0.0
  outer loop
    vertex 133.35107485723626 356.4724115553835 403.5383934843583
    vertex 133.83881694414362 356.62036649990245 398.5383934843583
    vertex 133.35107485723626 356.4724115553835 398.5383934843583
  endloop
endfacet
facet normal -0.29028467725429674 0.9569403357322592 0.0
  outer loop
    vertex 133.83881694414362 356.62036649990245 398.5383934843583
    vertex 133.35107485723626 356.4724115553835 403.5383934843583
    vertex 133.83881694414362 356.62036649990245 403.5383934843583
  endloop
endfacet
facet normal -0.47139673682613437 0.8819212643482819 0.0
  outer loop
    vertex 133.83881694414362 356.62036649990245 403.5383934843583
    vertex 134.2883226258453 356.86063229244525 398.5383934843583
    vertex 133.83881694414362 356.62036649990245 398.5383934843583
  endloop
endfacet
facet normal -0.47139673682613437 0.8819212643482819 0.0
  outer loop
    vertex 134.2883226258453 356.86063229244525 398.5383934843583
    vertex 133.83881694414362 356.62036649990245 403.5383934843583
    vertex 134.2883226258453 356.86063229244525 403.5383934843583
  endloop
endfacet
facet normal -0.634393284163474 0.7730104533628778 0.0
  outer loop
    vertex 134.2883226258453 356.86063229244525 403.5383934843583
    vertex 134.68231765107944 357.18397565334675 398.5383934843583
    vertex 134.2883226258453 356.86063229244525 398.5383934843583
  endloop
endfacet
facet normal -0.634393284163474 0.7730104533628778 0.0
  outer loop
    vertex 134.68231765107944 357.18397565334675 398.5383934843583
    vertex 134.2883226258453 356.86063229244525 403.5383934843583
    vertex 134.68231765107944 357.18397565334675 403.5383934843583
  endloop
endfacet
facet normal -0.7730104533628065 0.6343932841635608 0.0
  outer loop
    vertex 135.00566101198095 357.5779706785808 403.5383934843583
    vertex 134.68231765107944 357.18397565334675 398.5383934843583
    vertex 134.68231765107944 357.18397565334675 403.5383934843583
  endloop
endfacet
facet normal -0.7730104533628065 0.6343932841635608 0.0
  outer loop
    vertex 134.68231765107944 357.18397565334675 398.5383934843583
    vertex 135.00566101198095 357.5779706785808 403.5383934843583
    vertex 135.00566101198095 357.5779706785808 398.5383934843583
  endloop
endfacet
facet normal -0.8819212643483214 0.47139673682606087 0.0
  outer loop
    vertex 135.24592680452375 358.02747636028255 403.5383934843583
    vertex 135.00566101198095 357.5779706785808 398.5383934843583
    vertex 135.00566101198095 357.5779706785808 403.5383934843583
  endloop
endfacet
facet normal -0.8819212643483214 0.47139673682606087 0.0
  outer loop
    vertex 135.00566101198095 357.5779706785808 398.5383934843583
    vertex 135.24592680452375 358.02747636028255 403.5383934843583
    vertex 135.24592680452375 358.02747636028255 398.5383934843583
  endloop
endfacet
facet normal -0.9569403357322442 0.2902846772543459 0.0
  outer loop
    vertex 135.39388174904272 358.51521844718985 403.5383934843583
    vertex 135.24592680452375 358.02747636028255 398.5383934843583
    vertex 135.24592680452375 358.02747636028255 403.5383934843583
  endloop
endfacet
facet normal -0.9569403357322442 0.2902846772543459 0.0
  outer loop
    vertex 135.24592680452375 358.02747636028255 398.5383934843583
    vertex 135.39388174904272 358.51521844718985 403.5383934843583
    vertex 135.39388174904272 358.51521844718985 398.5383934843583
  endloop
endfacet
facet normal -0.9951847266722065 0.09801714032946349 0.0
  outer loop
    vertex 135.44384001999427 359.02245328443183 403.5383934843583
    vertex 135.39388174904272 358.51521844718985 398.5383934843583
    vertex 135.39388174904272 358.51521844718985 403.5383934843583
  endloop
endfacet
facet normal -0.9951847266722065 0.09801714032946349 0.0
  outer loop
    vertex 135.39388174904272 358.51521844718985 398.5383934843583
    vertex 135.44384001999427 359.02245328443183 403.5383934843583
    vertex 135.44384001999427 359.02245328443183 398.5383934843583
  endloop
endfacet
facet normal 0.634393284163474 0.7730104533628778 0.0
  outer loop
    vertex 131.0053623889093 357.18397565334675 403.5383934843583
    vertex 131.39935741414345 356.86063229244525 398.5383934843583
    vertex 131.0053623889093 357.18397565334675 398.5383934843583
  endloop
endfacet
facet normal 0.634393284163474 0.7730104533628778 0.0
  outer loop
    vertex 131.39935741414345 356.86063229244525 398.5383934843583
    vertex 131.0053623889093 357.18397565334675 403.5383934843583
    vertex 131.39935741414345 356.86063229244525 403.5383934843583
  endloop
endfacet
facet normal 0.7730104533627197 0.6343932841636666 0.0
  outer loop
    vertex 130.68201902800772 357.5779706785808 398.5383934843583
    vertex 131.0053623889093 357.18397565334675 403.5383934843583
    vertex 131.0053623889093 357.18397565334675 398.5383934843583
  endloop
endfacet
facet normal 0.7730104533627197 0.6343932841636666 0.0
  outer loop
    vertex 131.0053623889093 357.18397565334675 403.5383934843583
    vertex 130.68201902800772 357.5779706785808 398.5383934843583
    vertex 130.68201902800772 357.5779706785808 403.5383934843583
  endloop
endfacet
facet normal 0.8819212643483949 0.4713967368259231 0.0
  outer loop
    vertex 130.441753235465 358.02747636028255 398.5383934843583
    vertex 130.68201902800772 357.5779706785808 403.5383934843583
    vertex 130.68201902800772 357.5779706785808 398.5383934843583
  endloop
endfacet
facet normal 0.8819212643483949 0.4713967368259231 0.0
  outer loop
    vertex 130.68201902800772 357.5779706785808 403.5383934843583
    vertex 130.441753235465 358.02747636028255 398.5383934843583
    vertex 130.441753235465 358.02747636028255 403.5383934843583
  endloop
endfacet
facet normal 0.9569403357321952 0.29028467725450807 0.0
  outer loop
    vertex 130.29379829094594 358.51521844718985 398.5383934843583
    vertex 130.441753235465 358.02747636028255 403.5383934843583
    vertex 130.441753235465 358.02747636028255 398.5383934843583
  endloop
endfacet
facet normal 0.9569403357321952 0.29028467725450807 0.0
  outer loop
    vertex 130.441753235465 358.02747636028255 403.5383934843583
    vertex 130.29379829094594 358.51521844718985 398.5383934843583
    vertex 130.29379829094594 358.51521844718985 403.5383934843583
  endloop
endfacet
facet normal 0.9951847266722065 0.09801714032946349 0.0
  outer loop
    vertex 130.2438400199944 359.02245328443183 398.5383934843583
    vertex 130.29379829094594 358.51521844718985 403.5383934843583
    vertex 130.29379829094594 358.51521844718985 398.5383934843583
  endloop
endfacet
facet normal 0.9951847266722065 0.09801714032946349 0.0
  outer loop
    vertex 130.29379829094594 358.51521844718985 403.5383934843583
    vertex 130.2438400199944 359.02245328443183 398.5383934843583
    vertex 130.2438400199944 359.02245328443183 403.5383934843583
  endloop
endfacet
facet normal 0.9951847266722031 -0.09801714032949804 0.0
  outer loop
    vertex 130.29379829094594 359.5296881216737 398.5383934843583
    vertex 130.2438400199944 359.02245328443183 403.5383934843583
    vertex 130.2438400199944 359.02245328443183 398.5383934843583
  endloop
endfacet
facet normal 0.9951847266722031 -0.09801714032949804 0.0
  outer loop
    vertex 130.2438400199944 359.02245328443183 403.5383934843583
    vertex 130.29379829094594 359.5296881216737 398.5383934843583
    vertex 130.29379829094594 359.5296881216737 403.5383934843583
  endloop
endfacet
facet normal 0.956940335732225 -0.2902846772544097 0.0
  outer loop
    vertex 130.441753235465 360.0174302085811 398.5383934843583
    vertex 130.29379829094594 359.5296881216737 403.5383934843583
    vertex 130.29379829094594 359.5296881216737 398.5383934843583
  endloop
endfacet
facet normal 0.956940335732225 -0.2902846772544097 0.0
  outer loop
    vertex 130.29379829094594 359.5296881216737 403.5383934843583
    vertex 130.441753235465 360.0174302085811 398.5383934843583
    vertex 130.441753235465 360.0174302085811 403.5383934843583
  endloop
endfacet
facet normal 0.8819212643483162 -0.4713967368260703 0.0
  outer loop
    vertex 130.68201902800772 360.46693589028274 398.5383934843583
    vertex 130.441753235465 360.0174302085811 403.5383934843583
    vertex 130.441753235465 360.0174302085811 398.5383934843583
  endloop
endfacet
facet normal 0.8819212643483162 -0.4713967368260703 0.0
  outer loop
    vertex 130.441753235465 360.0174302085811 403.5383934843583
    vertex 130.68201902800772 360.46693589028274 398.5383934843583
    vertex 130.68201902800772 360.46693589028274 403.5383934843583
  endloop
endfacet
facet normal 0.7730104533627197 -0.6343932841636666 0.0
  outer loop
    vertex 131.0053623889093 360.8609309155168 398.5383934843583
    vertex 130.68201902800772 360.46693589028274 403.5383934843583
    vertex 130.68201902800772 360.46693589028274 398.5383934843583
  endloop
endfacet
facet normal 0.7730104533627197 -0.6343932841636666 0.0
  outer loop
    vertex 130.68201902800772 360.46693589028274 403.5383934843583
    vertex 131.0053623889093 360.8609309155168 398.5383934843583
    vertex 131.0053623889093 360.8609309155168 403.5383934843583
  endloop
endfacet
facet normal 0.6343932841636856 -0.7730104533627041 0.0
  outer loop
    vertex 131.39935741414345 361.1842742764185 403.5383934843583
    vertex 131.0053623889093 360.8609309155168 398.5383934843583
    vertex 131.39935741414345 361.1842742764185 398.5383934843583
  endloop
endfacet
facet normal 0.6343932841636856 -0.7730104533627041 0.0
  outer loop
    vertex 131.0053623889093 360.8609309155168 398.5383934843583
    vertex 131.39935741414345 361.1842742764185 403.5383934843583
    vertex 131.0053623889093 360.8609309155168 403.5383934843583
  endloop
endfacet
facet normal 0.47139673682585903 -0.8819212643484292 0.0
  outer loop
    vertex 131.84886309584513 361.4245400689611 403.5383934843583
    vertex 131.39935741414345 361.1842742764185 398.5383934843583
    vertex 131.84886309584513 361.4245400689611 398.5383934843583
  endloop
endfacet
facet normal 0.47139673682585903 -0.8819212643484292 0.0
  outer loop
    vertex 131.39935741414345 361.1842742764185 398.5383934843583
    vertex 131.84886309584513 361.4245400689611 403.5383934843583
    vertex 131.39935741414345 361.1842742764185 403.5383934843583
  endloop
endfacet
facet normal 0.29028467725429674 -0.9569403357322592 0.0
  outer loop
    vertex 132.3366051827525 361.5724950134801 403.5383934843583
    vertex 131.84886309584513 361.4245400689611 398.5383934843583
    vertex 132.3366051827525 361.5724950134801 398.5383934843583
  endloop
endfacet
facet normal 0.29028467725429674 -0.9569403357322592 0.0
  outer loop
    vertex 131.84886309584513 361.4245400689611 398.5383934843583
    vertex 132.3366051827525 361.5724950134801 403.5383934843583
    vertex 131.84886309584513 361.4245400689611 403.5383934843583
  endloop
endfacet
facet normal 0.0980171403298487 -0.9951847266721685 0.0
  outer loop
    vertex 132.84384001999433 361.6224532844318 403.5383934843583
    vertex 132.3366051827525 361.5724950134801 398.5383934843583
    vertex 132.84384001999433 361.6224532844318 398.5383934843583
  endloop
endfacet
facet normal 0.0980171403298487 -0.9951847266721685 0.0
  outer loop
    vertex 132.3366051827525 361.5724950134801 398.5383934843583
    vertex 132.84384001999433 361.6224532844318 403.5383934843583
    vertex 132.3366051827525 361.5724950134801 403.5383934843583
  endloop
endfacet
facet normal -0.09801714032983146 -0.9951847266721703 -0.0
  outer loop
    vertex 133.35107485723626 361.5724950134801 403.5383934843583
    vertex 132.84384001999433 361.6224532844318 398.5383934843583
    vertex 133.35107485723626 361.5724950134801 398.5383934843583
  endloop
endfacet
facet normal -0.09801714032983146 -0.9951847266721703 -0.0
  outer loop
    vertex 132.84384001999433 361.6224532844318 398.5383934843583
    vertex 133.35107485723626 361.5724950134801 403.5383934843583
    vertex 132.84384001999433 361.6224532844318 403.5383934843583
  endloop
endfacet
facet normal -0.29028467725429674 -0.9569403357322592 -0.0
  outer loop
    vertex 133.83881694414362 361.4245400689611 403.5383934843583
    vertex 133.35107485723626 361.5724950134801 398.5383934843583
    vertex 133.83881694414362 361.4245400689611 398.5383934843583
  endloop
endfacet
facet normal -0.29028467725429674 -0.9569403357322592 -0.0
  outer loop
    vertex 133.35107485723626 361.5724950134801 398.5383934843583
    vertex 133.83881694414362 361.4245400689611 403.5383934843583
    vertex 133.35107485723626 361.5724950134801 403.5383934843583
  endloop
endfacet
facet normal -0.47139673682585903 -0.8819212643484292 -0.0
  outer loop
    vertex 134.2883226258453 361.1842742764185 403.5383934843583
    vertex 133.83881694414362 361.4245400689611 398.5383934843583
    vertex 134.2883226258453 361.1842742764185 398.5383934843583
  endloop
endfacet
facet normal -0.47139673682585903 -0.8819212643484292 -0.0
  outer loop
    vertex 133.83881694414362 361.4245400689611 398.5383934843583
    vertex 134.2883226258453 361.1842742764185 403.5383934843583
    vertex 133.83881694414362 361.4245400689611 403.5383934843583
  endloop
endfacet
facet normal -0.6343932841636856 -0.7730104533627041 -0.0
  outer loop
    vertex 134.68231765107944 360.8609309155168 403.5383934843583
    vertex 134.2883226258453 361.1842742764185 398.5383934843583
    vertex 134.68231765107944 360.8609309155168 398.5383934843583
  endloop
endfacet
facet normal -0.6343932841636856 -0.7730104533627041 -0.0
  outer loop
    vertex 134.2883226258453 361.1842742764185 398.5383934843583
    vertex 134.68231765107944 360.8609309155168 403.5383934843583
    vertex 134.2883226258453 361.1842742764185 403.5383934843583
  endloop
endfacet
facet normal -0.7730104533628065 -0.6343932841635608 -0.0
  outer loop
    vertex 134.68231765107944 360.8609309155168 403.5383934843583
    vertex 135.00566101198095 360.46693589028274 398.5383934843583
    vertex 135.00566101198095 360.46693589028274 403.5383934843583
  endloop
endfacet
facet normal -0.7730104533628065 -0.6343932841635608 -0.0
  outer loop
    vertex 135.00566101198095 360.46693589028274 398.5383934843583
    vertex 134.68231765107944 360.8609309155168 403.5383934843583
    vertex 134.68231765107944 360.8609309155168 398.5383934843583
  endloop
endfacet
facet normal -0.8819212643482427 -0.47139673682620803 -0.0
  outer loop
    vertex 135.00566101198095 360.46693589028274 403.5383934843583
    vertex 135.24592680452375 360.0174302085811 398.5383934843583
    vertex 135.24592680452375 360.0174302085811 403.5383934843583
  endloop
endfacet
facet normal -0.8819212643482427 -0.47139673682620803 -0.0
  outer loop
    vertex 135.24592680452375 360.0174302085811 398.5383934843583
    vertex 135.00566101198095 360.46693589028274 403.5383934843583
    vertex 135.00566101198095 360.46693589028274 398.5383934843583
  endloop
endfacet
facet normal -0.9569403357322741 -0.29028467725424756 -0.0
  outer loop
    vertex 135.24592680452375 360.0174302085811 403.5383934843583
    vertex 135.39388174904272 359.5296881216737 398.5383934843583
    vertex 135.39388174904272 359.5296881216737 403.5383934843583
  endloop
endfacet
facet normal -0.9569403357322741 -0.29028467725424756 -0.0
  outer loop
    vertex 135.39388174904272 359.5296881216737 398.5383934843583
    vertex 135.24592680452375 360.0174302085811 403.5383934843583
    vertex 135.24592680452375 360.0174302085811 398.5383934843583
  endloop
endfacet
facet normal -0.9951847266722031 -0.09801714032949804 -0.0
  outer loop
    vertex 135.39388174904272 359.5296881216737 403.5383934843583
    vertex 135.44384001999427 359.02245328443183 398.5383934843583
    vertex 135.44384001999427 359.02245328443183 403.5383934843583
  endloop
endfacet
facet normal -0.9951847266722031 -0.09801714032949804 -0.0
  outer loop
    vertex 135.44384001999427 359.02245328443183 398.5383934843583
    vertex 135.39388174904272 359.5296881216737 403.5383934843583
    vertex 135.39388174904272 359.5296881216737 398.5383934843583
  endloop
endfacet
facet normal 0.2902846772542967 0.9569403357322591 0.0
  outer loop
    vertex 103.84886309584493 356.62036649990245 403.5383934843583
    vertex 104.3366051827523 356.4724115553835 398.5383934843583
    vertex 103.84886309584493 356.62036649990245 398.5383934843583
  endloop
endfacet
facet normal 0.2902846772542967 0.9569403357322591 0.0
  outer loop
    vertex 104.3366051827523 356.4724115553835 398.5383934843583
    vertex 103.84886309584493 356.62036649990245 403.5383934843583
    vertex 104.3366051827523 356.4724115553835 403.5383934843583
  endloop
endfacet
facet normal 0.47139673682620803 0.8819212643482426 0.0
  outer loop
    vertex 103.39935741414334 356.86063229244525 403.5383934843583
    vertex 103.84886309584493 356.62036649990245 398.5383934843583
    vertex 103.39935741414334 356.86063229244525 398.5383934843583
  endloop
endfacet
facet normal 0.47139673682620803 0.8819212643482426 0.0
  outer loop
    vertex 103.84886309584493 356.62036649990245 398.5383934843583
    vertex 103.39935741414334 356.86063229244525 403.5383934843583
    vertex 103.84886309584493 356.62036649990245 403.5383934843583
  endloop
endfacet
facet normal 0.634393284163474 0.7730104533628777 0.0
  outer loop
    vertex 103.0053623889092 357.18397565334675 403.5383934843583
    vertex 103.39935741414334 356.86063229244525 398.5383934843583
    vertex 103.0053623889092 357.18397565334675 398.5383934843583
  endloop
endfacet
facet normal 0.634393284163474 0.7730104533628777 0.0
  outer loop
    vertex 103.39935741414334 356.86063229244525 398.5383934843583
    vertex 103.0053623889092 357.18397565334675 403.5383934843583
    vertex 103.39935741414334 356.86063229244525 403.5383934843583
  endloop
endfacet
facet normal 0.7730104533627197 0.6343932841636666 0.0
  outer loop
    vertex 102.6820190280076 357.5779706785808 398.5383934843583
    vertex 103.0053623889092 357.18397565334675 403.5383934843583
    vertex 103.0053623889092 357.18397565334675 398.5383934843583
  endloop
endfacet
facet normal 0.7730104533627197 0.6343932841636666 0.0
  outer loop
    vertex 103.0053623889092 357.18397565334675 403.5383934843583
    vertex 102.6820190280076 357.5779706785808 398.5383934843583
    vertex 102.6820190280076 357.5779706785808 403.5383934843583
  endloop
endfacet
facet normal 0.8819212643483949 0.4713967368259231 0.0
  outer loop
    vertex 102.4417532354649 358.02747636028255 398.5383934843583
    vertex 102.6820190280076 357.5779706785808 403.5383934843583
    vertex 102.6820190280076 357.5779706785808 398.5383934843583
  endloop
endfacet
facet normal 0.8819212643483949 0.4713967368259231 0.0
  outer loop
    vertex 102.6820190280076 357.5779706785808 403.5383934843583
    vertex 102.4417532354649 358.02747636028255 398.5383934843583
    vertex 102.4417532354649 358.02747636028255 403.5383934843583
  endloop
endfacet
facet normal 0.9569403357321951 0.290284677254508 0.0
  outer loop
    vertex 102.29379829094583 358.51521844718985 398.5383934843583
    vertex 102.4417532354649 358.02747636028255 403.5383934843583
    vertex 102.4417532354649 358.02747636028255 398.5383934843583
  endloop
endfacet
facet normal 0.9569403357321951 0.290284677254508 0.0
  outer loop
    vertex 102.4417532354649 358.02747636028255 403.5383934843583
    vertex 102.29379829094583 358.51521844718985 398.5383934843583
    vertex 102.29379829094583 358.51521844718985 403.5383934843583
  endloop
endfacet
facet normal 0.9951847266722066 0.09801714032946351 0.0
  outer loop
    vertex 102.24384001999428 359.02245328443183 398.5383934843583
    vertex 102.29379829094583 358.51521844718985 403.5383934843583
    vertex 102.29379829094583 358.51521844718985 398.5383934843583
  endloop
endfacet
facet normal 0.9951847266722066 0.09801714032946351 0.0
  outer loop
    vertex 102.29379829094583 358.51521844718985 403.5383934843583
    vertex 102.24384001999428 359.02245328443183 398.5383934843583
    vertex 102.24384001999428 359.02245328443183 403.5383934843583
  endloop
endfacet
facet normal 0.9951847266722031 -0.09801714032949803 0.0
  outer loop
    vertex 102.29379829094583 359.5296881216737 398.5383934843583
    vertex 102.24384001999428 359.02245328443183 403.5383934843583
    vertex 102.24384001999428 359.02245328443183 398.5383934843583
  endloop
endfacet
facet normal 0.9951847266722031 -0.09801714032949803 0.0
  outer loop
    vertex 102.24384001999428 359.02245328443183 403.5383934843583
    vertex 102.29379829094583 359.5296881216737 398.5383934843583
    vertex 102.29379829094583 359.5296881216737 403.5383934843583
  endloop
endfacet
facet normal 0.9569403357322248 -0.29028467725440965 0.0
  outer loop
    vertex 102.4417532354649 360.0174302085811 398.5383934843583
    vertex 102.29379829094583 359.5296881216737 403.5383934843583
    vertex 102.29379829094583 359.5296881216737 398.5383934843583
  endloop
endfacet
facet normal 0.9569403357322248 -0.29028467725440965 0.0
  outer loop
    vertex 102.29379829094583 359.5296881216737 403.5383934843583
    vertex 102.4417532354649 360.0174302085811 398.5383934843583
    vertex 102.4417532354649 360.0174302085811 403.5383934843583
  endloop
endfacet
facet normal 0.8819212643483162 -0.47139673682607036 0.0
  outer loop
    vertex 102.6820190280076 360.46693589028274 398.5383934843583
    vertex 102.4417532354649 360.0174302085811 403.5383934843583
    vertex 102.4417532354649 360.0174302085811 398.5383934843583
  endloop
endfacet
facet normal 0.8819212643483162 -0.47139673682607036 0.0
  outer loop
    vertex 102.4417532354649 360.0174302085811 403.5383934843583
    vertex 102.6820190280076 360.46693589028274 398.5383934843583
    vertex 102.6820190280076 360.46693589028274 403.5383934843583
  endloop
endfacet
facet normal 0.7730104533627197 -0.6343932841636666 0.0
  outer loop
    vertex 103.0053623889092 360.8609309155168 398.5383934843583
    vertex 102.6820190280076 360.46693589028274 403.5383934843583
    vertex 102.6820190280076 360.46693589028274 398.5383934843583
  endloop
endfacet
facet normal 0.7730104533627197 -0.6343932841636666 0.0
  outer loop
    vertex 102.6820190280076 360.46693589028274 403.5383934843583
    vertex 103.0053623889092 360.8609309155168 398.5383934843583
    vertex 103.0053623889092 360.8609309155168 403.5383934843583
  endloop
endfacet
facet normal 0.6343932841636856 -0.7730104533627041 0.0
  outer loop
    vertex 103.39935741414334 361.1842742764185 403.5383934843583
    vertex 103.0053623889092 360.8609309155168 398.5383934843583
    vertex 103.39935741414334 361.1842742764185 398.5383934843583
  endloop
endfacet
facet normal 0.6343932841636856 -0.7730104533627041 0.0
  outer loop
    vertex 103.0053623889092 360.8609309155168 398.5383934843583
    vertex 103.39935741414334 361.1842742764185 403.5383934843583
    vertex 103.0053623889092 360.8609309155168 403.5383934843583
  endloop
endfacet
facet normal 0.47139673682585903 -0.8819212643484291 0.0
  outer loop
    vertex 103.84886309584502 361.4245400689611 403.5383934843583
    vertex 103.39935741414334 361.1842742764185 398.5383934843583
    vertex 103.84886309584502 361.4245400689611 398.5383934843583
  endloop
endfacet
facet normal 0.47139673682585903 -0.8819212643484291 0.0
  outer loop
    vertex 103.39935741414334 361.1842742764185 398.5383934843583
    vertex 103.84886309584502 361.4245400689611 403.5383934843583
    vertex 103.39935741414334 361.1842742764185 403.5383934843583
  endloop
endfacet
facet normal 0.290284677254346 -0.9569403357322442 0.0
  outer loop
    vertex 104.3366051827523 361.5724950134801 403.5383934843583
    vertex 103.84886309584502 361.4245400689611 398.5383934843583
    vertex 104.3366051827523 361.5724950134801 398.5383934843583
  endloop
endfacet
facet normal 0.290284677254346 -0.9569403357322442 0.0
  outer loop
    vertex 103.84886309584502 361.4245400689611 398.5383934843583
    vertex 104.3366051827523 361.5724950134801 403.5383934843583
    vertex 103.84886309584502 361.4245400689611 403.5383934843583
  endloop
endfacet
facet normal 0.09801714032983144 -0.9951847266721703 0.0
  outer loop
    vertex 104.84384001999422 361.6224532844318 403.5383934843583
    vertex 104.3366051827523 361.5724950134801 398.5383934843583
    vertex 104.84384001999422 361.6224532844318 398.5383934843583
  endloop
endfacet
facet normal 0.09801714032983144 -0.9951847266721703 0.0
  outer loop
    vertex 104.3366051827523 361.5724950134801 398.5383934843583
    vertex 104.84384001999422 361.6224532844318 403.5383934843583
    vertex 104.3366051827523 361.5724950134801 403.5383934843583
  endloop
endfacet
facet normal -0.09801714032983144 -0.9951847266721703 0.0
  outer loop
    vertex 105.35107485723616 361.5724950134801 403.5383934843583
    vertex 104.84384001999422 361.6224532844318 398.5383934843583
    vertex 105.35107485723616 361.5724950134801 398.5383934843583
  endloop
endfacet
facet normal -0.09801714032983144 -0.9951847266721703 0.0
  outer loop
    vertex 104.84384001999422 361.6224532844318 398.5383934843583
    vertex 105.35107485723616 361.5724950134801 403.5383934843583
    vertex 104.84384001999422 361.6224532844318 403.5383934843583
  endloop
endfacet
facet normal -0.2902846772542967 -0.9569403357322591 0.0
  outer loop
    vertex 105.83881694414352 361.4245400689611 403.5383934843583
    vertex 105.35107485723616 361.5724950134801 398.5383934843583
    vertex 105.83881694414352 361.4245400689611 398.5383934843583
  endloop
endfacet
facet normal -0.2902846772542967 -0.9569403357322591 0.0
  outer loop
    vertex 105.35107485723616 361.5724950134801 398.5383934843583
    vertex 105.83881694414352 361.4245400689611 403.5383934843583
    vertex 105.35107485723616 361.5724950134801 403.5383934843583
  endloop
endfacet
facet normal -0.47139673682585903 -0.8819212643484291 0.0
  outer loop
    vertex 106.2883226258452 361.1842742764185 403.5383934843583
    vertex 105.83881694414352 361.4245400689611 398.5383934843583
    vertex 106.2883226258452 361.1842742764185 398.5383934843583
  endloop
endfacet
facet normal -0.47139673682585903 -0.8819212643484291 0.0
  outer loop
    vertex 105.83881694414352 361.4245400689611 398.5383934843583
    vertex 106.2883226258452 361.1842742764185 403.5383934843583
    vertex 105.83881694414352 361.4245400689611 403.5383934843583
  endloop
endfacet
facet normal -0.6343932841637723 -0.7730104533626329 0.0
  outer loop
    vertex 106.68231765107925 360.8609309155168 403.5383934843583
    vertex 106.2883226258452 361.1842742764185 398.5383934843583
    vertex 106.68231765107925 360.8609309155168 398.5383934843583
  endloop
endfacet
facet normal -0.6343932841637723 -0.7730104533626329 0.0
  outer loop
    vertex 106.2883226258452 361.1842742764185 398.5383934843583
    vertex 106.68231765107925 360.8609309155168 403.5383934843583
    vertex 106.2883226258452 361.1842742764185 403.5383934843583
  endloop
endfacet
facet normal -0.7730104533627197 -0.6343932841636666 0.0
  outer loop
    vertex 106.68231765107925 360.8609309155168 403.5383934843583
    vertex 107.00566101198083 360.46693589028274 398.5383934843583
    vertex 107.00566101198083 360.46693589028274 403.5383934843583
  endloop
endfacet
facet normal -0.7730104533627197 -0.6343932841636666 0.0
  outer loop
    vertex 107.00566101198083 360.46693589028274 398.5383934843583
    vertex 106.68231765107925 360.8609309155168 403.5383934843583
    vertex 106.68231765107925 360.8609309155168 398.5383934843583
  endloop
endfacet
facet normal -0.8819212643482426 -0.47139673682620803 0.0
  outer loop
    vertex 107.00566101198083 360.46693589028274 403.5383934843583
    vertex 107.24592680452363 360.0174302085811 398.5383934843583
    vertex 107.24592680452363 360.0174302085811 403.5383934843583
  endloop
endfacet
facet normal -0.8819212643482426 -0.47139673682620803 0.0
  outer loop
    vertex 107.24592680452363 360.0174302085811 398.5383934843583
    vertex 107.00566101198083 360.46693589028274 403.5383934843583
    vertex 107.00566101198083 360.46693589028274 398.5383934843583
  endloop
endfacet
facet normal -0.956940335732274 -0.29028467725424756 0.0
  outer loop
    vertex 107.24592680452363 360.0174302085811 403.5383934843583
    vertex 107.39388174904262 359.5296881216737 398.5383934843583
    vertex 107.39388174904262 359.5296881216737 403.5383934843583
  endloop
endfacet
facet normal -0.956940335732274 -0.29028467725424756 0.0
  outer loop
    vertex 107.39388174904262 359.5296881216737 398.5383934843583
    vertex 107.24592680452363 360.0174302085811 403.5383934843583
    vertex 107.24592680452363 360.0174302085811 398.5383934843583
  endloop
endfacet
facet normal -0.9951847266722031 -0.09801714032949803 0.0
  outer loop
    vertex 107.39388174904262 359.5296881216737 403.5383934843583
    vertex 107.44384001999417 359.02245328443183 398.5383934843583
    vertex 107.44384001999417 359.02245328443183 403.5383934843583
  endloop
endfacet
facet normal -0.9951847266722031 -0.09801714032949803 0.0
  outer loop
    vertex 107.44384001999417 359.02245328443183 398.5383934843583
    vertex 107.39388174904262 359.5296881216737 403.5383934843583
    vertex 107.39388174904262 359.5296881216737 398.5383934843583
  endloop
endfacet
facet normal -0.9951847266722066 0.09801714032946351 0.0
  outer loop
    vertex 107.44384001999417 359.02245328443183 403.5383934843583
    vertex 107.39388174904262 358.51521844718985 398.5383934843583
    vertex 107.39388174904262 358.51521844718985 403.5383934843583
  endloop
endfacet
facet normal -0.9951847266722066 0.09801714032946351 0.0
  outer loop
    vertex 107.39388174904262 358.51521844718985 398.5383934843583
    vertex 107.44384001999417 359.02245328443183 403.5383934843583
    vertex 107.44384001999417 359.02245328443183 398.5383934843583
  endloop
endfacet
facet normal -0.9569403357322442 0.290284677254346 0.0
  outer loop
    vertex 107.39388174904262 358.51521844718985 403.5383934843583
    vertex 107.24592680452363 358.02747636028255 398.5383934843583
    vertex 107.24592680452363 358.02747636028255 403.5383934843583
  endloop
endfacet
facet normal -0.9569403357322442 0.290284677254346 0.0
  outer loop
    vertex 107.24592680452363 358.02747636028255 398.5383934843583
    vertex 107.39388174904262 358.51521844718985 403.5383934843583
    vertex 107.39388174904262 358.51521844718985 398.5383934843583
  endloop
endfacet
facet normal -0.8819212643483214 0.47139673682606087 0.0
  outer loop
    vertex 107.24592680452363 358.02747636028255 403.5383934843583
    vertex 107.00566101198083 357.5779706785808 398.5383934843583
    vertex 107.00566101198083 357.5779706785808 403.5383934843583
  endloop
endfacet
facet normal -0.8819212643483214 0.47139673682606087 0.0
  outer loop
    vertex 107.00566101198083 357.5779706785808 398.5383934843583
    vertex 107.24592680452363 358.02747636028255 403.5383934843583
    vertex 107.24592680452363 358.02747636028255 398.5383934843583
  endloop
endfacet
facet normal -0.7730104533627197 0.6343932841636666 0.0
  outer loop
    vertex 107.00566101198083 357.5779706785808 403.5383934843583
    vertex 106.68231765107925 357.18397565334675 398.5383934843583
    vertex 106.68231765107925 357.18397565334675 403.5383934843583
  endloop
endfacet
facet normal -0.7730104533627197 0.6343932841636666 0.0
  outer loop
    vertex 106.68231765107925 357.18397565334675 398.5383934843583
    vertex 107.00566101198083 357.5779706785808 403.5383934843583
    vertex 107.00566101198083 357.5779706785808 398.5383934843583
  endloop
endfacet
facet normal -0.6343932841635608 0.7730104533628066 0.0
  outer loop
    vertex 106.2883226258452 356.86063229244525 403.5383934843583
    vertex 106.68231765107925 357.18397565334675 398.5383934843583
    vertex 106.2883226258452 356.86063229244525 398.5383934843583
  endloop
endfacet
facet normal -0.6343932841635608 0.7730104533628066 0.0
  outer loop
    vertex 106.68231765107925 357.18397565334675 398.5383934843583
    vertex 106.2883226258452 356.86063229244525 403.5383934843583
    vertex 106.68231765107925 357.18397565334675 403.5383934843583
  endloop
endfacet
facet normal -0.4713967368261344 0.881921264348282 0.0
  outer loop
    vertex 105.83881694414352 356.62036649990245 403.5383934843583
    vertex 106.2883226258452 356.86063229244525 398.5383934843583
    vertex 105.83881694414352 356.62036649990245 398.5383934843583
  endloop
endfacet
facet normal -0.4713967368261344 0.881921264348282 0.0
  outer loop
    vertex 106.2883226258452 356.86063229244525 398.5383934843583
    vertex 105.83881694414352 356.62036649990245 403.5383934843583
    vertex 106.2883226258452 356.86063229244525 403.5383934843583
  endloop
endfacet
facet normal -0.2902846772542967 0.9569403357322591 0.0
  outer loop
    vertex 105.35107485723616 356.4724115553835 403.5383934843583
    vertex 105.83881694414352 356.62036649990245 398.5383934843583
    vertex 105.35107485723616 356.4724115553835 398.5383934843583
  endloop
endfacet
facet normal -0.2902846772542967 0.9569403357322591 0.0
  outer loop
    vertex 105.83881694414352 356.62036649990245 398.5383934843583
    vertex 105.35107485723616 356.4724115553835 403.5383934843583
    vertex 105.83881694414352 356.62036649990245 403.5383934843583
  endloop
endfacet
facet normal -0.09801714032948076 0.9951847266722048 0.0
  outer loop
    vertex 104.84384001999422 356.4224532844319 403.5383934843583
    vertex 105.35107485723616 356.4724115553835 398.5383934843583
    vertex 104.84384001999422 356.4224532844319 398.5383934843583
  endloop
endfacet
facet normal -0.09801714032948076 0.9951847266722048 0.0
  outer loop
    vertex 105.35107485723616 356.4724115553835 398.5383934843583
    vertex 104.84384001999422 356.4224532844319 403.5383934843583
    vertex 105.35107485723616 356.4724115553835 403.5383934843583
  endloop
endfacet
facet normal 0.09801714032948076 0.9951847266722048 0.0
  outer loop
    vertex 104.3366051827523 356.4724115553835 403.5383934843583
    vertex 104.84384001999422 356.4224532844319 398.5383934843583
    vertex 104.3366051827523 356.4724115553835 398.5383934843583
  endloop
endfacet
facet normal 0.09801714032948076 0.9951847266722048 0.0
  outer loop
    vertex 104.84384001999422 356.4224532844319 398.5383934843583
    vertex 104.3366051827523 356.4724115553835 403.5383934843583
    vertex 104.84384001999422 356.4224532844319 403.5383934843583
  endloop
endfacet
facet normal -0.9569403357321955 -0.29028467725450674 0.0
  outer loop
    vertex 100.33222773013935 358.1250378031576 403.5383934843583
    vertex 100.59399417044231 357.2621094955525 398.5383934843583
    vertex 100.59399417044231 357.2621094955525 403.5383934843583
  endloop
endfacet
facet normal -0.9569403357321955 -0.29028467725450674 0.0
  outer loop
    vertex 100.59399417044231 357.2621094955525 398.5383934843583
    vertex 100.33222773013935 358.1250378031576 403.5383934843583
    vertex 100.33222773013935 358.1250378031576 398.5383934843583
  endloop
endfacet
facet normal -0.8819212643483848 -0.47139673682594213 -1.7953853303254572e-29
  outer loop
    vertex 100.59399417044231 357.2621094955525 403.5383934843583
    vertex 101.01907980340252 356.46683021254165 398.5383934843583
    vertex 101.01907980340252 356.46683021254165 403.5383934843583
  endloop
endfacet
facet normal -0.8819212643483848 -0.47139673682594213 -1.7953853303254572e-29
  outer loop
    vertex 101.01907980340252 356.46683021254165 398.5383934843583
    vertex 100.59399417044231 357.2621094955525 403.5383934843583
    vertex 100.59399417044231 357.2621094955525 398.5383934843583
  endloop
endfacet
facet normal -0.7730104533627087 -0.6343932841636799 -1.5736684035859646e-29
  outer loop
    vertex 101.01907980340252 356.46683021254165 403.5383934843583
    vertex 101.59114882653611 355.76976209097376 398.5383934843583
    vertex 101.59114882653611 355.76976209097376 403.5383934843583
  endloop
endfacet
facet normal -0.7730104533627087 -0.6343932841636799 -1.5736684035859646e-29
  outer loop
    vertex 101.59114882653611 355.76976209097376 398.5383934843583
    vertex 101.01907980340252 356.46683021254165 403.5383934843583
    vertex 101.01907980340252 356.46683021254165 398.5383934843583
  endloop
endfacet
facet normal -0.634393284163677 -0.773010453362711 1.2914762826203092e-29
  outer loop
    vertex 102.28821694810411 355.1976930678401 403.5383934843583
    vertex 101.59114882653611 355.76976209097376 398.5383934843583
    vertex 102.28821694810411 355.1976930678401 398.5383934843583
  endloop
endfacet
facet normal -0.634393284163677 -0.773010453362711 1.2914762826203092e-29
  outer loop
    vertex 101.59114882653611 355.76976209097376 398.5383934843583
    vertex 102.28821694810411 355.1976930678401 403.5383934843583
    vertex 101.59114882653611 355.76976209097376 403.5383934843583
  endloop
endfacet
facet normal -0.471396736825978 -0.8819212643483656 0.0
  outer loop
    vertex 103.08349623111476 354.77260743487994 403.5383934843583
    vertex 102.28821694810411 355.1976930678401 398.5383934843583
    vertex 103.08349623111476 354.77260743487994 398.5383934843583
  endloop
endfacet
facet normal -0.471396736825978 -0.8819212643483656 0.0
  outer loop
    vertex 102.28821694810411 355.1976930678401 398.5383934843583
    vertex 103.08349623111476 354.77260743487994 403.5383934843583
    vertex 102.28821694810411 355.1976930678401 403.5383934843583
  endloop
endfacet
facet normal -0.2902846772545637 -0.9569403357321782 -1.1819033562960445e-29
  outer loop
    vertex 103.94642453872001 354.5108409945769 403.5383934843583
    vertex 103.08349623111476 354.77260743487994 398.5383934843583
    vertex 103.94642453872001 354.5108409945769 398.5383934843583
  endloop
endfacet
facet normal -0.2902846772545637 -0.9569403357321782 -1.1819033562960445e-29
  outer loop
    vertex 103.08349623111476 354.77260743487994 398.5383934843583
    vertex 103.94642453872001 354.5108409945769 403.5383934843583
    vertex 103.08349623111476 354.77260743487994 403.5383934843583
  endloop
endfacet
facet normal -0.09801714032947703 -0.9951847266722053 0.0
  outer loop
    vertex 104.84384001999422 354.4224532844318 403.5383934843583
    vertex 103.94642453872001 354.5108409945769 398.5383934843583
    vertex 104.84384001999422 354.4224532844318 398.5383934843583
  endloop
endfacet
facet normal -0.09801714032947703 -0.9951847266722053 0.0
  outer loop
    vertex 103.94642453872001 354.5108409945769 398.5383934843583
    vertex 104.84384001999422 354.4224532844318 403.5383934843583
    vertex 103.94642453872001 354.5108409945769 403.5383934843583
  endloop
endfacet
facet normal 0.0 -1.0 0.0
  outer loop
    vertex 132.84384001999433 354.4224532844318 403.5383934843583
    vertex 104.84384001999422 354.4224532844318 398.5383934843583
    vertex 132.84384001999433 354.4224532844318 398.5383934843583
  endloop
endfacet
facet normal 0.0 -1.0 0.0
  outer loop
    vertex 104.84384001999422 354.4224532844318 398.5383934843583
    vertex 132.84384001999433 354.4224532844318 403.5383934843583
    vertex 104.84384001999422 354.4224532844318 403.5383934843583
  endloop
endfacet
facet normal 0.098017140329477 -0.9951847266722051 0.0
  outer loop
    vertex 133.74125550126854 354.5108409945769 403.5383934843583
    vertex 132.84384001999433 354.4224532844318 398.5383934843583
    vertex 133.74125550126854 354.5108409945769 398.5383934843583
  endloop
endfacet
facet normal 0.098017140329477 -0.9951847266722051 0.0
  outer loop
    vertex 132.84384001999433 354.4224532844318 398.5383934843583
    vertex 133.74125550126854 354.5108409945769 403.5383934843583
    vertex 132.84384001999433 354.4224532844318 403.5383934843583
  endloop
endfacet
facet normal 0.2902846772545706 -0.9569403357321761 0.0
  outer loop
    vertex 134.60418380887376 354.77260743487994 403.5383934843583
    vertex 133.74125550126854 354.5108409945769 398.5383934843583
    vertex 134.60418380887376 354.77260743487994 398.5383934843583
  endloop
endfacet
facet normal 0.2902846772545706 -0.9569403357321761 0.0
  outer loop
    vertex 133.74125550126854 354.5108409945769 398.5383934843583
    vertex 134.60418380887376 354.77260743487994 403.5383934843583
    vertex 133.74125550126854 354.5108409945769 403.5383934843583
  endloop
endfacet
facet normal 0.4713967368259156 -0.881921264348399 0.0
  outer loop
    vertex 135.39946309188457 355.1976930678401 403.5383934843583
    vertex 134.60418380887376 354.77260743487994 398.5383934843583
    vertex 135.39946309188457 355.1976930678401 398.5383934843583
  endloop
endfacet
facet normal 0.4713967368259156 -0.881921264348399 0.0
  outer loop
    vertex 134.60418380887376 354.77260743487994 398.5383934843583
    vertex 135.39946309188457 355.1976930678401 403.5383934843583
    vertex 134.60418380887376 354.77260743487994 403.5383934843583
  endloop
endfacet
facet normal 0.6343932841637323 -0.7730104533626657 0.0
  outer loop
    vertex 136.09653121345244 355.76976209097376 403.5383934843583
    vertex 135.39946309188457 355.1976930678401 398.5383934843583
    vertex 136.09653121345244 355.76976209097376 398.5383934843583
  endloop
endfacet
facet normal 0.6343932841637323 -0.7730104533626657 0.0
  outer loop
    vertex 135.39946309188457 355.1976930678401 398.5383934843583
    vertex 136.09653121345244 355.76976209097376 403.5383934843583
    vertex 135.39946309188457 355.1976930678401 403.5383934843583
  endloop
endfacet
facet normal 0.7730104533626657 -0.6343932841637323 0.0
  outer loop
    vertex 136.66860023658612 356.46683021254165 398.5383934843583
    vertex 136.09653121345244 355.76976209097376 403.5383934843583
    vertex 136.09653121345244 355.76976209097376 398.5383934843583
  endloop
endfacet
facet normal 0.7730104533626657 -0.6343932841637323 0.0
  outer loop
    vertex 136.09653121345244 355.76976209097376 403.5383934843583
    vertex 136.66860023658612 356.46683021254165 398.5383934843583
    vertex 136.66860023658612 356.46683021254165 403.5383934843583
  endloop
endfacet
facet normal 0.8819212643484211 -0.47139673682587396 0.0
  outer loop
    vertex 137.09368586954625 357.2621094955525 398.5383934843583
    vertex 136.66860023658612 356.46683021254165 403.5383934843583
    vertex 136.66860023658612 356.46683021254165 398.5383934843583
  endloop
endfacet
facet normal 0.8819212643484211 -0.47139673682587396 0.0
  outer loop
    vertex 136.66860023658612 356.46683021254165 403.5383934843583
    vertex 137.09368586954625 357.2621094955525 398.5383934843583
    vertex 137.09368586954625 357.2621094955525 403.5383934843583
  endloop
endfacet
facet normal 0.9569403357321954 -0.29028467725450674 0.0
  outer loop
    vertex 137.3554523098492 358.1250378031576 398.5383934843583
    vertex 137.09368586954625 357.2621094955525 403.5383934843583
    vertex 137.09368586954625 357.2621094955525 398.5383934843583
  endloop
endfacet
facet normal 0.9569403357321954 -0.29028467725450674 0.0
  outer loop
    vertex 137.09368586954625 357.2621094955525 403.5383934843583
    vertex 137.3554523098492 358.1250378031576 398.5383934843583
    vertex 137.3554523098492 358.1250378031576 403.5383934843583
  endloop
endfacet
facet normal 0.9951847266721954 -0.0980171403295761 0.0
  outer loop
    vertex 137.44384001999435 359.02245328443183 398.5383934843583
    vertex 137.3554523098492 358.1250378031576 403.5383934843583
    vertex 137.3554523098492 358.1250378031576 398.5383934843583
  endloop
endfacet
facet normal 0.9951847266721954 -0.0980171403295761 0.0
  outer loop
    vertex 137.3554523098492 358.1250378031576 403.5383934843583
    vertex 137.44384001999435 359.02245328443183 398.5383934843583
    vertex 137.44384001999435 359.02245328443183 403.5383934843583
  endloop
endfacet
facet normal 1.0 0.0 0.0
  outer loop
    vertex 137.44384001999435 370.0224532844319 398.5383934843583
    vertex 137.44384001999435 359.02245328443183 403.5383934843583
    vertex 137.44384001999435 359.02245328443183 398.5383934843583
  endloop
endfacet
facet normal 1.0 0.0 0.0
  outer loop
    vertex 137.44384001999435 359.02245328443183 403.5383934843583
    vertex 137.44384001999435 370.0224532844319 398.5383934843583
    vertex 137.44384001999435 370.0224532844319 403.5383934843583
  endloop
endfacet
facet normal 0.0 1.0 0.0
  outer loop
    vertex 100.2438400199942 370.0224532844319 403.5383934843583
    vertex 137.44384001999435 370.0224532844319 398.5383934843583
    vertex 100.2438400199942 370.0224532844319 398.5383934843583
  endloop
endfacet
facet normal 0.0 1.0 0.0
  outer loop
    vertex 137.44384001999435 370.0224532844319 398.5383934843583
    vertex 100.2438400199942 370.0224532844319 403.5383934843583
    vertex 137.44384001999435 370.0224532844319 403.5383934843583
  endloop
endfacet
facet normal -1.0 0.0 0.0
  outer loop
    vertex 100.2438400199942 370.0224532844319 403.5383934843583
    vertex 100.2438400199942 359.02245328443183 398.5383934843583
    vertex 100.2438400199942 359.02245328443183 403.5383934843583
  endloop
endfacet
facet normal -1.0 0.0 0.0
  outer loop
    vertex 100.2438400199942 359.02245328443183 398.5383934843583
    vertex 100.2438400199942 370.0224532844319 403.5383934843583
    vertex 100.2438400199942 370.0224532844319 398.5383934843583
  endloop
endfacet
facet normal -0.9951847266721954 -0.0980171403295761 0.0
  outer loop
    vertex 100.2438400199942 359.02245328443183 403.5383934843583
    vertex 100.33222773013935 358.1250378031576 398.5383934843583
    vertex 100.33222773013935 358.1250378031576 403.5383934843583
  endloop
endfacet
facet normal -0.9951847266721954 -0.0980171403295761 0.0
  outer loop
    vertex 100.33222773013935 358.1250378031576 398.5383934843583
    vertex 100.2438400199942 359.02245328443183 403.5383934843583
    vertex 100.2438400199942 359.02245328443183 398.5383934843583
  endloop
endfacet
facet normal 0.0 0.0 -1.0
  outer loop
    vertex 100.2438400199942 370.0224532844319 398.5383934843583
    vertex 103.39935741414334 361.1842742764185 398.5383934843583
    vertex 100.2438400199942 359.02245328443183 398.5383934843583
  endloop
endfacet
facet normal 0.0 0.0 -1.0
  outer loop
    vertex 103.39935741414334 361.1842742764185 398.5383934843583
    vertex 100.2438400199942 370.0224532844319 398.5383934843583
    vertex 103.84886309584502 361.4245400689611 398.5383934843583
  endloop
endfacet
facet normal 0.0 0.0 -1.0
  outer loop
    vertex 103.84886309584502 361.4245400689611 398.5383934843583
    vertex 100.2438400199942 370.0224532844319 398.5383934843583
    vertex 104.3366051827523 361.5724950134801 398.5383934843583
  endloop
endfacet
facet normal 0.0 0.0 -1.0
  outer loop
    vertex 104.3366051827523 361.5724950134801 398.5383934843583
    vertex 100.2438400199942 370.0224532844319 398.5383934843583
    vertex 137.44384001999435 370.0224532844319 398.5383934843583
  endloop
endfacet
facet normal 0.0 0.0 -1.0
  outer loop
    vertex 100.2438400199942 359.02245328443183 398.5383934843583
    vertex 103.39935741414334 361.1842742764185 398.5383934843583
    vertex 103.0053623889092 360.8609309155168 398.5383934843583
  endloop
endfacet
facet normal 0.0 0.0 -1.0
  outer loop
    vertex 100.2438400199942 359.02245328443183 398.5383934843583
    vertex 103.0053623889092 360.8609309155168 398.5383934843583
    vertex 100.33222773013935 358.1250378031576 398.5383934843583
  endloop
endfacet
facet normal 0.0 0.0 -1.0
  outer loop
    vertex 100.33222773013935 358.1250378031576 398.5383934843583
    vertex 103.0053623889092 360.8609309155168 398.5383934843583
    vertex 102.6820190280076 360.46693589028274 398.5383934843583
  endloop
endfacet
facet normal 0.0 0.0 -1.0
  outer loop
    vertex 100.33222773013935 358.1250378031576 398.5383934843583
    vertex 102.6820190280076 360.46693589028274 398.5383934843583
    vertex 100.59399417044231 357.2621094955525 398.5383934843583
  endloop
endfacet
facet normal 0.0 0.0 -1.0
  outer loop
    vertex 100.59399417044231 357.2621094955525 398.5383934843583
    vertex 102.6820190280076 360.46693589028274 398.5383934843583
    vertex 102.4417532354649 360.0174302085811 398.5383934843583
  endloop
endfacet
facet normal 0.0 0.0 -1.0
  outer loop
    vertex 100.59399417044231 357.2621094955525 398.5383934843583
    vertex 102.4417532354649 360.0174302085811 398.5383934843583
    vertex 101.01907980340252 356.46683021254165 398.5383934843583
  endloop
endfacet
facet normal 0.0 0.0 -1.0
  outer loop
    vertex 101.01907980340252 356.46683021254165 398.5383934843583
    vertex 102.4417532354649 360.0174302085811 398.5383934843583
    vertex 102.29379829094583 359.5296881216737 398.5383934843583
  endloop
endfacet
facet normal 0.0 0.0 -1.0
  outer loop
    vertex 101.01907980340252 356.46683021254165 398.5383934843583
    vertex 102.29379829094583 359.5296881216737 398.5383934843583
    vertex 101.59114882653611 355.76976209097376 398.5383934843583
  endloop
endfacet
facet normal 0.0 0.0 -1.0
  outer loop
    vertex 101.59114882653611 355.76976209097376 398.5383934843583
    vertex 102.29379829094583 359.5296881216737 398.5383934843583
    vertex 102.24384001999428 359.02245328443183 398.5383934843583
  endloop
endfacet
facet normal 0.0 0.0 -1.0
  outer loop
    vertex 104.3366051827523 361.5724950134801 398.5383934843583
    vertex 137.44384001999435 370.0224532844319 398.5383934843583
    vertex 104.84384001999422 361.6224532844318 398.5383934843583
  endloop
endfacet
facet normal 0.0 0.0 -1.0
  outer loop
    vertex 104.84384001999422 361.6224532844318 398.5383934843583
    vertex 137.44384001999435 370.0224532844319 398.5383934843583
    vertex 105.35107485723616 361.5724950134801 398.5383934843583
  endloop
endfacet
facet normal 0.0 0.0 -1.0
  outer loop
    vertex 105.35107485723616 361.5724950134801 398.5383934843583
    vertex 137.44384001999435 370.0224532844319 398.5383934843583
    vertex 105.83881694414352 361.4245400689611 398.5383934843583
  endloop
endfacet
facet normal 0.0 0.0 -1.0
  outer loop
    vertex 105.83881694414352 361.4245400689611 398.5383934843583
    vertex 137.44384001999435 370.0224532844319 398.5383934843583
    vertex 106.2883226258452 361.1842742764185 398.5383934843583
  endloop
endfacet
facet normal 0.0 0.0 -1.0
  outer loop
    vertex 106.2883226258452 361.1842742764185 398.5383934843583
    vertex 137.44384001999435 370.0224532844319 398.5383934843583
    vertex 106.68231765107925 360.8609309155168 398.5383934843583
  endloop
endfacet
facet normal 0.0 0.0 -1.0
  outer loop
    vertex 106.68231765107925 360.8609309155168 398.5383934843583
    vertex 137.44384001999435 370.0224532844319 398.5383934843583
    vertex 107.00566101198083 360.46693589028274 398.5383934843583
  endloop
endfacet
facet normal 0.0 0.0 -1.0
  outer loop
    vertex 107.00566101198083 360.46693589028274 398.5383934843583
    vertex 137.44384001999435 370.0224532844319 398.5383934843583
    vertex 107.24592680452363 360.0174302085811 398.5383934843583
  endloop
endfacet
facet normal 0.0 0.0 -1.0
  outer loop
    vertex 107.24592680452363 360.0174302085811 398.5383934843583
    vertex 137.44384001999435 370.0224532844319 398.5383934843583
    vertex 107.39388174904262 359.5296881216737 398.5383934843583
  endloop
endfacet
facet normal 0.0 0.0 -1.0
  outer loop
    vertex 107.39388174904262 359.5296881216737 398.5383934843583
    vertex 137.44384001999435 370.0224532844319 398.5383934843583
    vertex 107.44384001999417 359.02245328443183 398.5383934843583
  endloop
endfacet
facet normal 0.0 0.0 -1.0
  outer loop
    vertex 107.44384001999417 359.02245328443183 398.5383934843583
    vertex 137.44384001999435 370.0224532844319 398.5383934843583
    vertex 130.68201902800772 360.46693589028274 398.5383934843583
  endloop
endfacet
facet normal 0.0 0.0 -1.0
  outer loop
    vertex 107.44384001999417 359.02245328443183 398.5383934843583
    vertex 130.68201902800772 360.46693589028274 398.5383934843583
    vertex 130.441753235465 360.0174302085811 398.5383934843583
  endloop
endfacet
facet normal 0.0 0.0 -1.0
  outer loop
    vertex 107.44384001999417 359.02245328443183 398.5383934843583
    vertex 130.441753235465 360.0174302085811 398.5383934843583
    vertex 130.29379829094594 359.5296881216737 398.5383934843583
  endloop
endfacet
facet normal 0.0 0.0 -1.0
  outer loop
    vertex 107.44384001999417 359.02245328443183 398.5383934843583
    vertex 130.29379829094594 359.5296881216737 398.5383934843583
    vertex 130.2438400199944 359.02245328443183 398.5383934843583
  endloop
endfacet
facet normal 0.0 0.0 -1.0
  outer loop
    vertex 130.68201902800772 360.46693589028274 398.5383934843583
    vertex 137.44384001999435 370.0224532844319 398.5383934843583
    vertex 131.0053623889093 360.8609309155168 398.5383934843583
  endloop
endfacet
facet normal 0.0 0.0 -1.0
  outer loop
    vertex 131.0053623889093 360.8609309155168 398.5383934843583
    vertex 137.44384001999435 370.0224532844319 398.5383934843583
    vertex 131.39935741414345 361.1842742764185 398.5383934843583
  endloop
endfacet
facet normal 0.0 0.0 -1.0
  outer loop
    vertex 131.39935741414345 361.1842742764185 398.5383934843583
    vertex 137.44384001999435 370.0224532844319 398.5383934843583
    vertex 131.84886309584513 361.4245400689611 398.5383934843583
  endloop
endfacet
facet normal 0.0 0.0 -1.0
  outer loop
    vertex 131.84886309584513 361.4245400689611 398.5383934843583
    vertex 137.44384001999435 370.0224532844319 398.5383934843583
    vertex 132.3366051827525 361.5724950134801 398.5383934843583
  endloop
endfacet
facet normal 0.0 0.0 -1.0
  outer loop
    vertex 132.3366051827525 361.5724950134801 398.5383934843583
    vertex 137.44384001999435 370.0224532844319 398.5383934843583
    vertex 132.84384001999433 361.6224532844318 398.5383934843583
  endloop
endfacet
facet normal 0.0 0.0 -1.0
  outer loop
    vertex 132.84384001999433 361.6224532844318 398.5383934843583
    vertex 137.44384001999435 370.0224532844319 398.5383934843583
    vertex 133.35107485723626 361.5724950134801 398.5383934843583
  endloop
endfacet
facet normal 0.0 0.0 -1.0
  outer loop
    vertex 133.35107485723626 361.5724950134801 398.5383934843583
    vertex 137.44384001999435 370.0224532844319 398.5383934843583
    vertex 133.83881694414362 361.4245400689611 398.5383934843583
  endloop
endfacet
facet normal 0.0 0.0 -1.0
  outer loop
    vertex 133.83881694414362 361.4245400689611 398.5383934843583
    vertex 137.44384001999435 370.0224532844319 398.5383934843583
    vertex 134.2883226258453 361.1842742764185 398.5383934843583
  endloop
endfacet
facet normal 0.0 0.0 -1.0
  outer loop
    vertex 134.2883226258453 361.1842742764185 398.5383934843583
    vertex 137.44384001999435 370.0224532844319 398.5383934843583
    vertex 134.68231765107944 360.8609309155168 398.5383934843583
  endloop
endfacet
facet normal 0.0 0.0 -1.0
  outer loop
    vertex 134.68231765107944 360.8609309155168 398.5383934843583
    vertex 137.44384001999435 370.0224532844319 398.5383934843583
    vertex 135.00566101198095 360.46693589028274 398.5383934843583
  endloop
endfacet
facet normal 0.0 0.0 -1.0
  outer loop
    vertex 135.00566101198095 360.46693589028274 398.5383934843583
    vertex 137.44384001999435 370.0224532844319 398.5383934843583
    vertex 135.24592680452375 360.0174302085811 398.5383934843583
  endloop
endfacet
facet normal 0.0 0.0 -1.0
  outer loop
    vertex 135.24592680452375 360.0174302085811 398.5383934843583
    vertex 137.44384001999435 370.0224532844319 398.5383934843583
    vertex 135.39388174904272 359.5296881216737 398.5383934843583
  endloop
endfacet
facet normal 0.0 0.0 -1.0
  outer loop
    vertex 135.39388174904272 359.5296881216737 398.5383934843583
    vertex 137.44384001999435 370.0224532844319 398.5383934843583
    vertex 135.44384001999427 359.02245328443183 398.5383934843583
  endloop
endfacet
facet normal 0.0 0.0 -1.0
  outer loop
    vertex 135.44384001999427 359.02245328443183 398.5383934843583
    vertex 137.44384001999435 370.0224532844319 398.5383934843583
    vertex 136.09653121345244 355.76976209097376 398.5383934843583
  endloop
endfacet
facet normal 0.0 0.0 -1.0
  outer loop
    vertex 136.09653121345244 355.76976209097376 398.5383934843583
    vertex 137.44384001999435 370.0224532844319 398.5383934843583
    vertex 136.66860023658612 356.46683021254165 398.5383934843583
  endloop
endfacet
facet normal 0.0 0.0 -1.0
  outer loop
    vertex 136.66860023658612 356.46683021254165 398.5383934843583
    vertex 137.44384001999435 370.0224532844319 398.5383934843583
    vertex 137.09368586954625 357.2621094955525 398.5383934843583
  endloop
endfacet
facet normal 0.0 0.0 -1.0
  outer loop
    vertex 137.09368586954625 357.2621094955525 398.5383934843583
    vertex 137.44384001999435 370.0224532844319 398.5383934843583
    vertex 137.3554523098492 358.1250378031576 398.5383934843583
  endloop
endfacet
facet normal 0.0 0.0 -1.0
  outer loop
    vertex 137.3554523098492 358.1250378031576 398.5383934843583
    vertex 137.44384001999435 370.0224532844319 398.5383934843583
    vertex 137.44384001999435 359.02245328443183 398.5383934843583
  endloop
endfacet
facet normal 0.0 0.0 -1.0
  outer loop
    vertex 102.24384001999428 359.02245328443183 398.5383934843583
    vertex 102.28821694810411 355.1976930678401 398.5383934843583
    vertex 101.59114882653611 355.76976209097376 398.5383934843583
  endloop
endfacet
facet normal 0.0 0.0 -1.0
  outer loop
    vertex 102.28821694810411 355.1976930678401 398.5383934843583
    vertex 102.24384001999428 359.02245328443183 398.5383934843583
    vertex 102.29379829094583 358.51521844718985 398.5383934843583
  endloop
endfacet
facet normal 0.0 0.0 -1.0
  outer loop
    vertex 102.28821694810411 355.1976930678401 398.5383934843583
    vertex 102.29379829094583 358.51521844718985 398.5383934843583
    vertex 103.08349623111476 354.77260743487994 398.5383934843583
  endloop
endfacet
facet normal 0.0 0.0 -1.0
  outer loop
    vertex 103.08349623111476 354.77260743487994 398.5383934843583
    vertex 102.29379829094583 358.51521844718985 398.5383934843583
    vertex 102.4417532354649 358.02747636028255 398.5383934843583
  endloop
endfacet
facet normal 0.0 0.0 -1.0
  outer loop
    vertex 103.08349623111476 354.77260743487994 398.5383934843583
    vertex 102.4417532354649 358.02747636028255 398.5383934843583
    vertex 102.6820190280076 357.5779706785808 398.5383934843583
  endloop
endfacet
facet normal 0.0 0.0 -1.0
  outer loop
    vertex 103.08349623111476 354.77260743487994 398.5383934843583
    vertex 102.6820190280076 357.5779706785808 398.5383934843583
    vertex 103.0053623889092 357.18397565334675 398.5383934843583
  endloop
endfacet
facet normal 0.0 0.0 -1.0
  outer loop
    vertex 103.08349623111476 354.77260743487994 398.5383934843583
    vertex 103.0053623889092 357.18397565334675 398.5383934843583
    vertex 103.39935741414334 356.86063229244525 398.5383934843583
  endloop
endfacet
facet normal 0.0 0.0 -1.0
  outer loop
    vertex 103.08349623111476 354.77260743487994 398.5383934843583
    vertex 103.39935741414334 356.86063229244525 398.5383934843583
    vertex 103.94642453872001 354.5108409945769 398.5383934843583
  endloop
endfacet
facet normal 0.0 0.0 -1.0
  outer loop
    vertex 103.94642453872001 354.5108409945769 398.5383934843583
    vertex 103.39935741414334 356.86063229244525 398.5383934843583
    vertex 103.84886309584493 356.62036649990245 398.5383934843583
  endloop
endfacet
facet normal 0.0 0.0 -1.0
  outer loop
    vertex 103.94642453872001 354.5108409945769 398.5383934843583
    vertex 103.84886309584493 356.62036649990245 398.5383934843583
    vertex 104.3366051827523 356.4724115553835 398.5383934843583
  endloop
endfacet
facet normal 0.0 0.0 -1.0
  outer loop
    vertex 103.94642453872001 354.5108409945769 398.5383934843583
    vertex 104.3366051827523 356.4724115553835 398.5383934843583
    vertex 104.84384001999422 354.4224532844318 398.5383934843583
  endloop
endfacet
facet normal 0.0 0.0 -1.0
  outer loop
    vertex 104.84384001999422 354.4224532844318 398.5383934843583
    vertex 104.3366051827523 356.4724115553835 398.5383934843583
    vertex 104.84384001999422 356.4224532844319 398.5383934843583
  endloop
endfacet
facet normal 0.0 0.0 -1.0
  outer loop
    vertex 104.84384001999422 354.4224532844318 398.5383934843583
    vertex 104.84384001999422 356.4224532844319 398.5383934843583
    vertex 105.35107485723616 356.4724115553835 398.5383934843583
  endloop
endfacet
facet normal 0.0 0.0 -1.0
  outer loop
    vertex 104.84384001999422 354.4224532844318 398.5383934843583
    vertex 105.35107485723616 356.4724115553835 398.5383934843583
    vertex 132.84384001999433 354.4224532844318 398.5383934843583
  endloop
endfacet
facet normal 0.0 0.0 -1.0
  outer loop
    vertex 132.84384001999433 354.4224532844318 398.5383934843583
    vertex 105.35107485723616 356.4724115553835 398.5383934843583
    vertex 105.83881694414352 356.62036649990245 398.5383934843583
  endloop
endfacet
facet normal 0.0 0.0 -1.0
  outer loop
    vertex 132.84384001999433 354.4224532844318 398.5383934843583
    vertex 105.83881694414352 356.62036649990245 398.5383934843583
    vertex 106.2883226258452 356.86063229244525 398.5383934843583
  endloop
endfacet
facet normal 0.0 0.0 -1.0
  outer loop
    vertex 132.84384001999433 354.4224532844318 398.5383934843583
    vertex 106.2883226258452 356.86063229244525 398.5383934843583
    vertex 106.68231765107925 357.18397565334675 398.5383934843583
  endloop
endfacet
facet normal 0.0 0.0 -1.0
  outer loop
    vertex 132.84384001999433 354.4224532844318 398.5383934843583
    vertex 106.68231765107925 357.18397565334675 398.5383934843583
    vertex 107.00566101198083 357.5779706785808 398.5383934843583
  endloop
endfacet
facet normal 0.0 0.0 -1.0
  outer loop
    vertex 132.84384001999433 354.4224532844318 398.5383934843583
    vertex 107.00566101198083 357.5779706785808 398.5383934843583
    vertex 107.24592680452363 358.02747636028255 398.5383934843583
  endloop
endfacet
facet normal 0.0 0.0 -1.0
  outer loop
    vertex 132.84384001999433 354.4224532844318 398.5383934843583
    vertex 107.24592680452363 358.02747636028255 398.5383934843583
    vertex 107.39388174904262 358.51521844718985 398.5383934843583
  endloop
endfacet
facet normal 0.0 0.0 -1.0
  outer loop
    vertex 132.84384001999433 354.4224532844318 398.5383934843583
    vertex 107.39388174904262 358.51521844718985 398.5383934843583
    vertex 107.44384001999417 359.02245328443183 398.5383934843583
  endloop
endfacet
facet normal 0.0 0.0 -1.0
  outer loop
    vertex 132.84384001999433 354.4224532844318 398.5383934843583
    vertex 107.44384001999417 359.02245328443183 398.5383934843583
    vertex 130.68201902800772 357.5779706785808 398.5383934843583
  endloop
endfacet
facet normal 0.0 0.0 -1.0
  outer loop
    vertex 130.68201902800772 357.5779706785808 398.5383934843583
    vertex 107.44384001999417 359.02245328443183 398.5383934843583
    vertex 130.441753235465 358.02747636028255 398.5383934843583
  endloop
endfacet
facet normal 0.0 0.0 -1.0
  outer loop
    vertex 130.441753235465 358.02747636028255 398.5383934843583
    vertex 107.44384001999417 359.02245328443183 398.5383934843583
    vertex 130.29379829094594 358.51521844718985 398.5383934843583
  endloop
endfacet
facet normal 0.0 0.0 -1.0
  outer loop
    vertex 130.29379829094594 358.51521844718985 398.5383934843583
    vertex 107.44384001999417 359.02245328443183 398.5383934843583
    vertex 130.2438400199944 359.02245328443183 398.5383934843583
  endloop
endfacet
facet normal 0.0 0.0 -1.0
  outer loop
    vertex 132.84384001999433 354.4224532844318 398.5383934843583
    vertex 130.68201902800772 357.5779706785808 398.5383934843583
    vertex 131.0053623889093 357.18397565334675 398.5383934843583
  endloop
endfacet
facet normal 0.0 0.0 -1.0
  outer loop
    vertex 132.84384001999433 354.4224532844318 398.5383934843583
    vertex 131.0053623889093 357.18397565334675 398.5383934843583
    vertex 131.39935741414345 356.86063229244525 398.5383934843583
  endloop
endfacet
facet normal 0.0 0.0 -1.0
  outer loop
    vertex 132.84384001999433 354.4224532844318 398.5383934843583
    vertex 131.39935741414345 356.86063229244525 398.5383934843583
    vertex 131.84886309584513 356.62036649990245 398.5383934843583
  endloop
endfacet
facet normal 0.0 0.0 -1.0
  outer loop
    vertex 132.84384001999433 354.4224532844318 398.5383934843583
    vertex 131.84886309584513 356.62036649990245 398.5383934843583
    vertex 132.3366051827525 356.4724115553835 398.5383934843583
  endloop
endfacet
facet normal 0.0 0.0 -1.0
  outer loop
    vertex 132.84384001999433 354.4224532844318 398.5383934843583
    vertex 132.3366051827525 356.4724115553835 398.5383934843583
    vertex 132.84384001999433 356.4224532844319 398.5383934843583
  endloop
endfacet
facet normal 0.0 0.0 -1.0
  outer loop
    vertex 132.84384001999433 354.4224532844318 398.5383934843583
    vertex 132.84384001999433 356.4224532844319 398.5383934843583
    vertex 133.35107485723626 356.4724115553835 398.5383934843583
  endloop
endfacet
facet normal 0.0 0.0 -1.0
  outer loop
    vertex 132.84384001999433 354.4224532844318 398.5383934843583
    vertex 133.35107485723626 356.4724115553835 398.5383934843583
    vertex 133.74125550126854 354.5108409945769 398.5383934843583
  endloop
endfacet
facet normal 0.0 0.0 -1.0
  outer loop
    vertex 133.74125550126854 354.5108409945769 398.5383934843583
    vertex 133.35107485723626 356.4724115553835 398.5383934843583
    vertex 133.83881694414362 356.62036649990245 398.5383934843583
  endloop
endfacet
facet normal 0.0 0.0 -1.0
  outer loop
    vertex 133.74125550126854 354.5108409945769 398.5383934843583
    vertex 133.83881694414362 356.62036649990245 398.5383934843583
    vertex 134.60418380887376 354.77260743487994 398.5383934843583
  endloop
endfacet
facet normal 0.0 0.0 -1.0
  outer loop
    vertex 134.60418380887376 354.77260743487994 398.5383934843583
    vertex 133.83881694414362 356.62036649990245 398.5383934843583
    vertex 134.2883226258453 356.86063229244525 398.5383934843583
  endloop
endfacet
facet normal 0.0 0.0 -1.0
  outer loop
    vertex 134.60418380887376 354.77260743487994 398.5383934843583
    vertex 134.2883226258453 356.86063229244525 398.5383934843583
    vertex 134.68231765107944 357.18397565334675 398.5383934843583
  endloop
endfacet
facet normal 0.0 0.0 -1.0
  outer loop
    vertex 134.60418380887376 354.77260743487994 398.5383934843583
    vertex 134.68231765107944 357.18397565334675 398.5383934843583
    vertex 135.39946309188457 355.1976930678401 398.5383934843583
  endloop
endfacet
facet normal 0.0 0.0 -1.0
  outer loop
    vertex 135.39946309188457 355.1976930678401 398.5383934843583
    vertex 134.68231765107944 357.18397565334675 398.5383934843583
    vertex 135.00566101198095 357.5779706785808 398.5383934843583
  endloop
endfacet
facet normal 0.0 0.0 -1.0
  outer loop
    vertex 135.39946309188457 355.1976930678401 398.5383934843583
    vertex 135.00566101198095 357.5779706785808 398.5383934843583
    vertex 135.24592680452375 358.02747636028255 398.5383934843583
  endloop
endfacet
facet normal 0.0 0.0 -1.0
  outer loop
    vertex 135.39946309188457 355.1976930678401 398.5383934843583
    vertex 135.24592680452375 358.02747636028255 398.5383934843583
    vertex 135.39388174904272 358.51521844718985 398.5383934843583
  endloop
endfacet
facet normal 0.0 0.0 -1.0
  outer loop
    vertex 135.39946309188457 355.1976930678401 398.5383934843583
    vertex 135.39388174904272 358.51521844718985 398.5383934843583
    vertex 135.44384001999427 359.02245328443183 398.5383934843583
  endloop
endfacet
facet normal 0.0 0.0 -1.0
  outer loop
    vertex 135.39946309188457 355.1976930678401 398.5383934843583
    vertex 135.44384001999427 359.02245328443183 398.5383934843583
    vertex 136.09653121345244 355.76976209097376 398.5383934843583
  endloop
endfacet
facet normal 0.47139673682613437 0.8819212643482819 0.0
  outer loop
    vertex 131.39935741414345 356.86063229244525 403.5383934843583
    vertex 131.84886309584513 356.62036649990245 398.5383934843583
    vertex 131.39935741414345 356.86063229244525 398.5383934843583
  endloop
endfacet
facet normal 0.47139673682613437 0.8819212643482819 0.0
  outer loop
    vertex 131.84886309584513 356.62036649990245 398.5383934843583
    vertex 131.39935741414345 356.86063229244525 403.5383934843583
    vertex 131.84886309584513 356.62036649990245 403.5383934843583
  endloop
endfacet
endsolid SBOX_XL_2_5
